M48
; DRILL file {KiCad (5.1.4-0-10_14)} date 2021 March 15, Monday 20:53:14
; FORMAT={-:-/ absolute / metric / decimal}
; #@! TF.CreationDate,2021-03-15T20:53:14+09:00
; #@! TF.GenerationSoftware,Kicad,Pcbnew,(5.1.4-0-10_14)
FMAT,2
METRIC
T1C0.400
T2C0.800
T3C1.000
T4C1.200
T5C3.200
%
G90
G05
T1
X77.87Y-79.495
X94.584Y-96.31
X98.304Y-96.048
X103.844Y-84.3
X103.928Y-85.54
X108.631Y-89.262
X115.0Y-84.5
X119.035Y-93.2
X126.588Y-89.192
X129.5Y-134.0
X130.094Y-86.525
X136.5Y-97.0
X137.578Y-87.307
T2
X109.5Y-80.5
X109.5Y-83.04
X109.5Y-85.58
X109.5Y-88.12
X109.5Y-90.66
X109.5Y-93.2
X109.5Y-95.74
X109.5Y-98.28
X109.5Y-100.82
X109.5Y-103.36
X109.5Y-105.9
X109.5Y-108.44
X109.5Y-110.98
X109.5Y-113.52
X109.5Y-116.06
X109.5Y-118.6
X109.5Y-121.14
X109.5Y-123.68
X109.5Y-126.22
X109.5Y-128.76
X124.74Y-80.5
X124.74Y-83.04
X124.74Y-85.58
X124.74Y-88.12
X124.74Y-90.66
X124.74Y-93.2
X124.74Y-95.74
X124.74Y-98.28
X124.74Y-100.82
X124.74Y-103.36
X124.74Y-105.9
X124.74Y-108.44
X124.74Y-110.98
X124.74Y-113.52
X89.25Y-83.0
X124.74Y-116.06
X124.74Y-118.6
X124.74Y-121.14
X124.74Y-123.68
X124.74Y-126.22
X124.74Y-128.76
X89.0Y-110.5
X89.0Y-113.04
X89.0Y-115.58
X89.0Y-118.12
X89.0Y-120.66
X89.0Y-123.2
X89.0Y-125.74
X89.0Y-128.28
X96.62Y-110.5
X96.62Y-113.04
X96.62Y-115.58
X96.62Y-118.12
X96.62Y-120.66
X96.62Y-123.2
X96.62Y-125.74
X96.62Y-128.28
X48.34Y-94.0
X58.5Y-94.0
X63.5Y-112.0
X73.66Y-112.0
X67.25Y-128.5
X77.41Y-128.5
X49.0Y-85.5
X49.0Y-88.0
X71.25Y-93.5
X73.75Y-93.5
X78.0Y-116.25
X78.0Y-118.75
X129.5Y-79.46
X64.0Y-104.5
X64.0Y-107.0
X94.75Y-107.5
X97.25Y-107.5
X129.5Y-76.92
X129.5Y-82.0
X67.25Y-132.0
X77.41Y-132.0
X67.0Y-106.75
X67.0Y-99.13
X69.54Y-99.13
X69.54Y-106.75
X72.08Y-99.13
X72.08Y-106.75
X74.62Y-99.13
X74.62Y-106.75
X67.25Y-125.0
X77.41Y-125.0
X58.0Y-85.17
X58.0Y-90.25
X60.54Y-87.71
X89.25Y-85.54
X89.25Y-88.08
X89.25Y-90.62
X89.25Y-93.16
X89.25Y-95.7
X89.25Y-98.24
X96.87Y-83.0
X96.87Y-85.54
X96.87Y-88.08
X96.87Y-90.62
X96.87Y-93.16
X96.87Y-95.7
X96.87Y-98.24
X64.0Y-79.25
X64.0Y-81.75
X122.75Y-132.0
X125.25Y-132.0
X83.0Y-78.0
X67.25Y-79.88
X67.25Y-87.5
X69.79Y-79.88
X69.79Y-87.5
X72.33Y-79.88
X72.33Y-87.5
X74.87Y-79.88
X74.87Y-87.5
X83.0Y-80.5
X69.75Y-115.92
X69.75Y-121.0
X72.29Y-118.46
X95.0Y-80.0
X97.5Y-80.0
T3
X61.5Y-70.96
X61.5Y-73.5
X64.04Y-70.96
X64.04Y-73.5
X66.58Y-70.96
X66.58Y-73.5
X69.12Y-70.96
X69.12Y-73.5
X71.66Y-70.96
X71.66Y-73.5
X74.2Y-70.96
X74.2Y-73.5
X76.74Y-70.96
X76.74Y-73.5
X79.28Y-70.96
X79.28Y-73.5
X81.82Y-70.96
X81.82Y-73.5
X84.36Y-70.96
X84.36Y-73.5
X86.9Y-70.96
X86.9Y-73.5
X89.44Y-70.96
X89.44Y-73.5
X91.98Y-70.96
X91.98Y-73.5
X94.52Y-70.96
X94.52Y-73.5
X97.06Y-70.96
X97.06Y-73.5
X99.6Y-70.96
X99.6Y-73.5
X102.14Y-70.96
X102.14Y-73.5
X104.68Y-70.96
X104.68Y-73.5
X107.22Y-70.96
X107.22Y-73.5
X101.5Y-110.75
X101.5Y-113.29
X101.5Y-115.83
X101.5Y-118.37
X101.5Y-120.91
X101.5Y-123.45
X101.5Y-125.99
X101.5Y-128.53
X119.92Y-73.5
X109.76Y-70.96
X109.76Y-73.5
X112.3Y-70.96
X112.3Y-73.5
X114.84Y-70.96
X114.84Y-73.5
X117.38Y-70.96
X117.38Y-73.5
X104.04Y-115.83
X104.04Y-113.29
X104.04Y-118.37
X104.04Y-120.91
X122.46Y-70.96
X104.04Y-123.45
X122.46Y-73.5
X104.04Y-125.99
X119.92Y-70.96
X104.04Y-128.53
X136.5Y-121.74
X139.04Y-119.2
X139.04Y-121.74
X104.04Y-110.75
X136.5Y-106.5
X136.5Y-109.04
X136.5Y-111.58
X136.5Y-114.12
X136.5Y-116.66
X136.5Y-119.2
X139.04Y-106.5
X139.04Y-109.04
X139.04Y-111.58
X139.04Y-114.12
X139.04Y-116.66
X136.5Y-76.0
X136.5Y-78.54
X136.5Y-81.08
X136.5Y-83.62
X136.5Y-86.16
X136.5Y-88.7
X136.5Y-91.24
X139.04Y-76.0
X139.04Y-78.54
X139.04Y-81.08
X139.04Y-83.62
X139.04Y-86.16
X139.04Y-88.7
X139.04Y-91.24
T5
X136.5Y-131.5
X47.5Y-65.5
X47.5Y-131.5
X136.5Y-65.5
T4
G00X47.45Y-103.65
M15
G01X47.45Y-102.85
M16
G05
G00X50.55Y-107.75
M15
G01X51.35Y-107.75
M16
G05
G00X53.85Y-100.35
M15
G01X54.65Y-100.35
M16
G05
G00X55.55Y-97.85
M15
G01X56.35Y-97.85
M16
G05
G00X58.75Y-107.95
M15
G01X58.75Y-107.15
M16
G05
T0
M30
