M48
; DRILL file {KiCad (5.1.4-0-10_14)} date 2021 February 18, Thursday 19:35:22
; FORMAT={-:-/ absolute / inch / decimal}
; #@! TF.CreationDate,2021-02-18T19:35:22+09:00
; #@! TF.GenerationSoftware,Kicad,Pcbnew,(5.1.4-0-10_14)
FMAT,2
INCH
T1C0.0157
T2C0.0315
T3C0.0394
T4C0.0472
T5C0.1260
%
G90
G05
T1
X3.0658Y-3.1297
X3.7238Y-3.7917
X3.8702Y-3.7814
X4.0883Y-3.3189
X4.0917Y-3.3677
X4.2768Y-3.5143
X4.5276Y-3.3268
X4.6864Y-3.6693
X4.9838Y-3.5115
X5.0984Y-5.2756
X5.1218Y-3.4065
X5.374Y-3.8189
X5.4164Y-3.4373
T2
X2.6476Y-4.9213
X3.0476Y-4.9213
X2.6476Y-5.0591
X3.0476Y-5.0591
X5.0984Y-3.2283
X4.8327Y-5.1969
X4.9311Y-5.1969
X2.8051Y-3.6811
X2.9035Y-3.6811
X1.9291Y-3.3661
X1.9291Y-3.4646
X2.6476Y-5.1969
X3.0476Y-5.1969
X3.7402Y-3.1496
X3.8386Y-3.1496
X5.0984Y-3.0283
X5.0984Y-3.1283
X2.2835Y-3.3531
X2.2835Y-3.5531
X2.3835Y-3.4531
X3.5039Y-4.3504
X3.5039Y-4.4504
X3.5039Y-4.5504
X3.5039Y-4.6504
X3.5039Y-4.7504
X3.5039Y-4.8504
X3.5039Y-4.9504
X3.7303Y-4.2323
X3.8287Y-4.2323
X4.311Y-3.1693
X4.311Y-3.2693
X4.311Y-3.3693
X4.311Y-3.4693
X4.311Y-3.5693
X4.311Y-3.6693
X4.311Y-3.7693
X4.311Y-3.8693
X4.311Y-3.9693
X4.311Y-4.0693
X4.311Y-4.1693
X4.311Y-4.2693
X4.311Y-4.3693
X4.311Y-4.4693
X4.311Y-4.5693
X4.311Y-4.6693
X4.311Y-4.7693
X4.311Y-4.8693
X4.311Y-4.9693
X4.311Y-5.0693
X4.911Y-3.1693
X4.911Y-3.2693
X4.911Y-3.3693
X4.911Y-3.4693
X4.911Y-3.5693
X4.911Y-3.6693
X4.911Y-3.7693
X4.911Y-3.8693
X4.911Y-3.9693
X4.911Y-4.0693
X4.911Y-4.1693
X4.911Y-4.2693
X4.911Y-4.3693
X4.911Y-4.4693
X3.8039Y-4.4504
X4.911Y-4.5693
X3.8039Y-4.9504
X4.911Y-4.6693
X3.8039Y-4.5504
X4.911Y-4.7693
X3.8039Y-4.6504
X4.911Y-4.8693
X4.911Y-4.9693
X3.8039Y-4.7504
X4.911Y-5.0693
X3.8039Y-4.8504
X3.8039Y-5.0504
X2.5197Y-3.1201
X2.5197Y-3.2185
X3.5039Y-5.0504
X3.8039Y-4.3504
X3.5138Y-3.2677
X3.5138Y-3.3677
X3.0709Y-4.5768
X3.0709Y-4.6752
X2.8378Y-3.9028
X3.5138Y-3.4677
X3.5138Y-3.5677
X3.5138Y-3.6677
X3.5138Y-3.7677
X3.5138Y-3.8677
X3.8138Y-3.2677
X3.8138Y-3.3677
X3.8138Y-3.4677
X3.8138Y-3.5677
X3.8138Y-3.6677
X3.8138Y-3.7677
X3.8138Y-3.8677
X2.6378Y-3.9028
X2.6378Y-4.2028
X2.7378Y-3.9028
X2.7378Y-4.2028
X3.2677Y-3.0709
X2.9378Y-3.9028
X2.5197Y-4.2126
X2.8378Y-4.2028
X3.2677Y-3.1693
X2.5197Y-4.1142
X2.9378Y-4.2028
X2.5Y-4.4094
X2.6476Y-3.1449
X2.6476Y-3.4449
X2.7476Y-3.1449
X2.7476Y-3.4449
X2.8476Y-3.1449
X2.8476Y-3.4449
X2.9476Y-3.1449
X2.9476Y-3.4449
X1.9031Y-3.7008
X2.3031Y-3.7008
X2.9Y-4.4094
X2.7461Y-4.5638
X2.7461Y-4.7638
X2.8461Y-4.6638
T3
X3.9961Y-4.3602
X3.9961Y-4.4602
X3.9961Y-4.5602
X3.9961Y-4.6602
X3.9961Y-4.7602
X3.9961Y-4.8602
X3.9961Y-4.9602
X3.9961Y-5.0602
X4.0961Y-4.3602
X4.0961Y-4.4602
X4.0961Y-4.5602
X4.0961Y-4.6602
X4.0961Y-4.7602
X4.0961Y-4.8602
X4.0961Y-4.9602
X4.0961Y-5.0602
X2.4213Y-2.7937
X2.4213Y-2.8937
X2.5213Y-2.7937
X2.5213Y-2.8937
X2.6213Y-2.7937
X2.6213Y-2.8937
X2.7213Y-2.7937
X2.7213Y-2.8937
X2.8213Y-2.7937
X2.8213Y-2.8937
X2.9213Y-2.7937
X2.9213Y-2.8937
X3.0213Y-2.7937
X3.0213Y-2.8937
X3.1213Y-2.7937
X3.1213Y-2.8937
X3.2213Y-2.7937
X3.2213Y-2.8937
X3.3213Y-2.7937
X3.3213Y-2.8937
X3.4213Y-2.7937
X3.4213Y-2.8937
X3.5213Y-2.7937
X3.5213Y-2.8937
X3.6213Y-2.7937
X3.6213Y-2.8937
X3.7213Y-2.7937
X3.7213Y-2.8937
X3.8213Y-2.7937
X3.8213Y-2.8937
X3.9213Y-2.7937
X3.9213Y-2.8937
X4.0213Y-2.7937
X4.0213Y-2.8937
X4.1213Y-2.7937
X4.1213Y-2.8937
X4.2213Y-2.7937
X4.2213Y-2.8937
X4.3213Y-2.7937
X4.3213Y-2.8937
X4.4213Y-2.7937
X4.4213Y-2.8937
X4.5213Y-2.7937
X4.5213Y-2.8937
X4.6213Y-2.7937
X4.6213Y-2.8937
X4.7213Y-2.7937
X4.7213Y-2.8937
X4.8213Y-2.7937
X4.8213Y-2.8937
X5.374Y-2.9921
X5.374Y-4.1929
X5.374Y-4.7929
X5.474Y-4.1929
X5.474Y-4.6929
X5.474Y-4.7929
X5.374Y-3.2921
X5.374Y-3.3921
X5.374Y-3.4921
X5.374Y-3.5921
X5.474Y-3.1921
X5.474Y-3.2921
X5.474Y-3.3921
X5.474Y-3.4921
X5.474Y-3.5921
X5.374Y-4.2929
X5.374Y-4.3929
X5.374Y-4.5929
X5.374Y-4.6929
X5.474Y-4.2929
X5.474Y-4.3929
X5.474Y-4.4929
X5.474Y-4.5929
X5.374Y-3.0921
X5.374Y-3.1921
X5.474Y-2.9921
X5.474Y-3.0921
X5.374Y-4.4929
T5
X5.374Y-5.1772
X1.8701Y-2.5787
X1.8701Y-5.1772
X5.374Y-2.5787
T4
G00X1.8681Y-4.0807
M15
G01X1.8681Y-4.0492
M16
G05
G00X1.9902Y-4.2421
M15
G01X2.0217Y-4.2421
M16
G05
G00X2.1201Y-3.9508
M15
G01X2.1516Y-3.9508
M16
G05
G00X2.187Y-3.8524
M15
G01X2.2185Y-3.8524
M16
G05
G00X2.313Y-4.25
M15
G01X2.313Y-4.2185
M16
G05
T0
M30
