G04 #@! TF.GenerationSoftware,KiCad,Pcbnew,(5.1.4-0-10_14)*
G04 #@! TF.CreationDate,2021-03-15T20:29:22+09:00*
G04 #@! TF.ProjectId,PC8001-YM2203,50433830-3031-42d5-994d-323230332e6b,rev?*
G04 #@! TF.SameCoordinates,Original*
G04 #@! TF.FileFunction,Copper,L2,Bot*
G04 #@! TF.FilePolarity,Positive*
%FSLAX46Y46*%
G04 Gerber Fmt 4.6, Leading zero omitted, Abs format (unit mm)*
G04 Created by KiCad (PCBNEW (5.1.4-0-10_14)) date 2021-03-15 20:29:22*
%MOMM*%
%LPD*%
G04 APERTURE LIST*
%ADD10O,1.700000X1.700000*%
%ADD11R,1.700000X1.700000*%
%ADD12O,1.600000X1.600000*%
%ADD13R,1.600000X1.600000*%
%ADD14R,1.500000X1.500000*%
%ADD15C,1.500000*%
%ADD16C,1.440000*%
%ADD17C,1.600000*%
%ADD18O,3.000000X2.000000*%
%ADD19O,2.000000X3.000000*%
%ADD20C,0.800000*%
%ADD21C,0.600000*%
%ADD22C,0.250000*%
%ADD23C,0.254000*%
G04 APERTURE END LIST*
D10*
X139040000Y-121740000D03*
X136500000Y-121740000D03*
X139040000Y-119200000D03*
X136500000Y-119200000D03*
X139040000Y-116660000D03*
X136500000Y-116660000D03*
X139040000Y-114120000D03*
X136500000Y-114120000D03*
X139040000Y-111580000D03*
X136500000Y-111580000D03*
X139040000Y-109040000D03*
X136500000Y-109040000D03*
X139040000Y-106500000D03*
D11*
X136500000Y-106500000D03*
D10*
X139040000Y-91240000D03*
X136500000Y-91240000D03*
X139040000Y-88700000D03*
X136500000Y-88700000D03*
X139040000Y-86160000D03*
X136500000Y-86160000D03*
X139040000Y-83620000D03*
X136500000Y-83620000D03*
X139040000Y-81080000D03*
X136500000Y-81080000D03*
X139040000Y-78540000D03*
X136500000Y-78540000D03*
X139040000Y-76000000D03*
D11*
X136500000Y-76000000D03*
D12*
X67000000Y-99130000D03*
X74620000Y-106750000D03*
X69540000Y-99130000D03*
X72080000Y-106750000D03*
X72080000Y-99130000D03*
X69540000Y-106750000D03*
X74620000Y-99130000D03*
D13*
X67000000Y-106750000D03*
D12*
X124740000Y-80500000D03*
X109500000Y-128760000D03*
X124740000Y-83040000D03*
X109500000Y-126220000D03*
X124740000Y-85580000D03*
X109500000Y-123680000D03*
X124740000Y-88120000D03*
X109500000Y-121140000D03*
X124740000Y-90660000D03*
X109500000Y-118600000D03*
X124740000Y-93200000D03*
X109500000Y-116060000D03*
X124740000Y-95740000D03*
X109500000Y-113520000D03*
X124740000Y-98280000D03*
X109500000Y-110980000D03*
X124740000Y-100820000D03*
X109500000Y-108440000D03*
X124740000Y-103360000D03*
X109500000Y-105900000D03*
X124740000Y-105900000D03*
X109500000Y-103360000D03*
X124740000Y-108440000D03*
X109500000Y-100820000D03*
X124740000Y-110980000D03*
X109500000Y-98280000D03*
X124740000Y-113520000D03*
X109500000Y-95740000D03*
X124740000Y-116060000D03*
X109500000Y-93200000D03*
X124740000Y-118600000D03*
X109500000Y-90660000D03*
X124740000Y-121140000D03*
X109500000Y-88120000D03*
X124740000Y-123680000D03*
X109500000Y-85580000D03*
X124740000Y-126220000D03*
X109500000Y-83040000D03*
X124740000Y-128760000D03*
D13*
X109500000Y-80500000D03*
D14*
X129500000Y-82000000D03*
D15*
X129500000Y-76920000D03*
X129500000Y-79460000D03*
D12*
X96620000Y-110500000D03*
X89000000Y-128280000D03*
X96620000Y-113040000D03*
X89000000Y-125740000D03*
X96620000Y-115580000D03*
X89000000Y-123200000D03*
X96620000Y-118120000D03*
X89000000Y-120660000D03*
X96620000Y-120660000D03*
X89000000Y-118120000D03*
X96620000Y-123200000D03*
X89000000Y-115580000D03*
X96620000Y-125740000D03*
X89000000Y-113040000D03*
X96620000Y-128280000D03*
D13*
X89000000Y-110500000D03*
D12*
X96870000Y-83000000D03*
X89250000Y-98240000D03*
X96870000Y-85540000D03*
X89250000Y-95700000D03*
X96870000Y-88080000D03*
X89250000Y-93160000D03*
X96870000Y-90620000D03*
X89250000Y-90620000D03*
X96870000Y-93160000D03*
X89250000Y-88080000D03*
X96870000Y-95700000D03*
X89250000Y-85540000D03*
X96870000Y-98240000D03*
D13*
X89250000Y-83000000D03*
D12*
X67250000Y-79880000D03*
X74870000Y-87500000D03*
X69790000Y-79880000D03*
X72330000Y-87500000D03*
X72330000Y-79880000D03*
X69790000Y-87500000D03*
X74870000Y-79880000D03*
D13*
X67250000Y-87500000D03*
D16*
X58000000Y-90250000D03*
X60540000Y-87710000D03*
X58000000Y-85170000D03*
X69750000Y-121000000D03*
X72290000Y-118460000D03*
X69750000Y-115920000D03*
D12*
X48340000Y-94000000D03*
D17*
X58500000Y-94000000D03*
D12*
X73660000Y-112000000D03*
D17*
X63500000Y-112000000D03*
D12*
X77410000Y-125000000D03*
D17*
X67250000Y-125000000D03*
D12*
X77410000Y-128500000D03*
D17*
X67250000Y-128500000D03*
D12*
X77410000Y-132000000D03*
D17*
X67250000Y-132000000D03*
D18*
X50950000Y-107750000D03*
D19*
X58750000Y-107550000D03*
D18*
X54250000Y-100350000D03*
X55950000Y-97850000D03*
D19*
X47450000Y-103250000D03*
D10*
X104040000Y-128530000D03*
X101500000Y-128530000D03*
X104040000Y-125990000D03*
X101500000Y-125990000D03*
X104040000Y-123450000D03*
X101500000Y-123450000D03*
X104040000Y-120910000D03*
X101500000Y-120910000D03*
X104040000Y-118370000D03*
X101500000Y-118370000D03*
X104040000Y-115830000D03*
X101500000Y-115830000D03*
X104040000Y-113290000D03*
X101500000Y-113290000D03*
X104040000Y-110750000D03*
D11*
X101500000Y-110750000D03*
D10*
X122460000Y-70960000D03*
X122460000Y-73500000D03*
X119920000Y-70960000D03*
X119920000Y-73500000D03*
X117380000Y-70960000D03*
X117380000Y-73500000D03*
X114840000Y-70960000D03*
X114840000Y-73500000D03*
X112300000Y-70960000D03*
X112300000Y-73500000D03*
X109760000Y-70960000D03*
X109760000Y-73500000D03*
X107220000Y-70960000D03*
X107220000Y-73500000D03*
X104680000Y-70960000D03*
X104680000Y-73500000D03*
X102140000Y-70960000D03*
X102140000Y-73500000D03*
X99600000Y-70960000D03*
X99600000Y-73500000D03*
X97060000Y-70960000D03*
X97060000Y-73500000D03*
X94520000Y-70960000D03*
X94520000Y-73500000D03*
X91980000Y-70960000D03*
X91980000Y-73500000D03*
X89440000Y-70960000D03*
X89440000Y-73500000D03*
X86900000Y-70960000D03*
X86900000Y-73500000D03*
X84360000Y-70960000D03*
X84360000Y-73500000D03*
X81820000Y-70960000D03*
X81820000Y-73500000D03*
X79280000Y-70960000D03*
X79280000Y-73500000D03*
X76740000Y-70960000D03*
X76740000Y-73500000D03*
X74200000Y-70960000D03*
X74200000Y-73500000D03*
X71660000Y-70960000D03*
X71660000Y-73500000D03*
X69120000Y-70960000D03*
X69120000Y-73500000D03*
X66580000Y-70960000D03*
X66580000Y-73500000D03*
X64040000Y-70960000D03*
X64040000Y-73500000D03*
X61500000Y-70960000D03*
D11*
X61500000Y-73500000D03*
D17*
X49000000Y-88000000D03*
D13*
X49000000Y-85500000D03*
D17*
X73750000Y-93500000D03*
D13*
X71250000Y-93500000D03*
D17*
X78000000Y-116250000D03*
D13*
X78000000Y-118750000D03*
D17*
X64000000Y-107000000D03*
X64000000Y-104500000D03*
X125250000Y-132000000D03*
X122750000Y-132000000D03*
X97250000Y-107500000D03*
X94750000Y-107500000D03*
X97500000Y-80000000D03*
X95000000Y-80000000D03*
X64000000Y-79250000D03*
X64000000Y-81750000D03*
X83000000Y-80500000D03*
D13*
X83000000Y-78000000D03*
D20*
X103928000Y-85540000D03*
X129500000Y-134000000D03*
X136500000Y-97000000D03*
X115000000Y-84500000D03*
X103843600Y-84299800D03*
X94583800Y-96309700D03*
X98304000Y-96048300D03*
X77870100Y-79494700D03*
X126588300Y-89192300D03*
X130093900Y-86525200D03*
X137577700Y-87306700D03*
X119034800Y-93200000D03*
X108631300Y-89262000D03*
D21*
X108199700Y-80500000D02*
X108199700Y-81268300D01*
X108199700Y-81268300D02*
X103928000Y-85540000D01*
X139040000Y-91240000D02*
X137671700Y-92608300D01*
X137671700Y-92608300D02*
X135922800Y-92608300D01*
X135922800Y-92608300D02*
X131004300Y-87689800D01*
X131004300Y-87689800D02*
X131004300Y-80964300D01*
X131004300Y-80964300D02*
X129500000Y-79460000D01*
X110800300Y-80500000D02*
X116294900Y-75005400D01*
X116294900Y-75005400D02*
X123827400Y-75005400D01*
X109500000Y-80500000D02*
X108199700Y-80500000D01*
X123827400Y-75005400D02*
X125045400Y-75005400D01*
X125045400Y-75005400D02*
X129500000Y-79460000D01*
X122460000Y-70960000D02*
X123827400Y-72327400D01*
X123827400Y-72327400D02*
X123827400Y-75005400D01*
X109500000Y-80500000D02*
X110800300Y-80500000D01*
X96870000Y-88080000D02*
X98173800Y-89383800D01*
X98173800Y-89383800D02*
X98173800Y-91856200D01*
X98173800Y-91856200D02*
X96870000Y-93160000D01*
X89250000Y-99540300D02*
X87681900Y-101108400D01*
X87681900Y-101108400D02*
X87681900Y-116801900D01*
X87681900Y-116801900D02*
X89000000Y-118120000D01*
X89000000Y-118120000D02*
X89000000Y-120660000D01*
X96870000Y-93160000D02*
X96870000Y-95700000D01*
X89000000Y-120660000D02*
X87698400Y-121961600D01*
X87698400Y-121961600D02*
X87698400Y-126978400D01*
X87698400Y-126978400D02*
X89000000Y-128280000D01*
X89250000Y-98240000D02*
X89250000Y-99540300D01*
X95000000Y-80000000D02*
X95000000Y-83670000D01*
X95000000Y-83670000D02*
X96870000Y-85540000D01*
X96620000Y-110500000D02*
X96620000Y-109199700D01*
X96620000Y-109199700D02*
X97250000Y-108569700D01*
X97250000Y-108569700D02*
X97250000Y-107500000D01*
X129500000Y-76920000D02*
X135137400Y-82557400D01*
X135137400Y-82557400D02*
X135137400Y-89877400D01*
X135137400Y-89877400D02*
X136500000Y-91240000D01*
X67000000Y-106750000D02*
X67000000Y-105449700D01*
X67250000Y-79880000D02*
X67250000Y-81180300D01*
X67250000Y-81180300D02*
X65699700Y-82730600D01*
X65699700Y-82730600D02*
X65699700Y-104149400D01*
X65699700Y-104149400D02*
X67000000Y-105449700D01*
X124740000Y-128760000D02*
X124740000Y-130060300D01*
X125250000Y-132000000D02*
X125250000Y-130570300D01*
X125250000Y-130570300D02*
X124740000Y-130060300D01*
X97500000Y-80000000D02*
X96870000Y-80630000D01*
X96870000Y-80630000D02*
X96870000Y-83000000D01*
D22*
X73660000Y-112000000D02*
X74785300Y-112000000D01*
X78000000Y-116250000D02*
X74785300Y-113035300D01*
X74785300Y-113035300D02*
X74785300Y-112000000D01*
X72330000Y-87500000D02*
X72330000Y-88625300D01*
X72330000Y-88625300D02*
X71250000Y-89705300D01*
X71250000Y-89705300D02*
X71250000Y-93500000D01*
X71250000Y-93500000D02*
X71250000Y-94625300D01*
X71250000Y-94625300D02*
X69540000Y-96335300D01*
X69540000Y-96335300D02*
X69540000Y-99130000D01*
X112300000Y-74675300D02*
X103843600Y-83131700D01*
X103843600Y-83131700D02*
X103843600Y-84299800D01*
X112300000Y-73500000D02*
X112300000Y-74675300D01*
X89250000Y-90620000D02*
X89250000Y-89494700D01*
X89250000Y-85540000D02*
X89250000Y-86665300D01*
X89250000Y-86665300D02*
X89531300Y-86665300D01*
X89531300Y-86665300D02*
X90375300Y-87509300D01*
X90375300Y-87509300D02*
X90375300Y-88650800D01*
X90375300Y-88650800D02*
X89531400Y-89494700D01*
X89531400Y-89494700D02*
X89250000Y-89494700D01*
X89250000Y-83000000D02*
X89250000Y-81874700D01*
X107220000Y-73500000D02*
X107220000Y-72324700D01*
X107220000Y-72324700D02*
X106852600Y-72324700D01*
X106852600Y-72324700D02*
X106044700Y-71516800D01*
X106044700Y-71516800D02*
X106044700Y-70643400D01*
X106044700Y-70643400D02*
X105174900Y-69773600D01*
X105174900Y-69773600D02*
X94038800Y-69773600D01*
X94038800Y-69773600D02*
X93174400Y-70638000D01*
X93174400Y-70638000D02*
X93174400Y-71429800D01*
X93174400Y-71429800D02*
X92279600Y-72324600D01*
X92279600Y-72324600D02*
X91454400Y-72324600D01*
X91454400Y-72324600D02*
X90710000Y-73069000D01*
X90710000Y-73069000D02*
X90710000Y-80414700D01*
X90710000Y-80414700D02*
X89250000Y-81874700D01*
X124740000Y-121140000D02*
X123614700Y-121140000D01*
X104680000Y-70960000D02*
X104680000Y-72135300D01*
X104680000Y-72135300D02*
X105047300Y-72135300D01*
X105047300Y-72135300D02*
X105870600Y-72958600D01*
X105870600Y-72958600D02*
X105870600Y-74754800D01*
X105870600Y-74754800D02*
X102667900Y-77957500D01*
X102667900Y-77957500D02*
X102667900Y-105774800D01*
X102667900Y-105774800D02*
X109143100Y-112250000D01*
X109143100Y-112250000D02*
X114724700Y-112250000D01*
X114724700Y-112250000D02*
X123614700Y-121140000D01*
X89250000Y-93160000D02*
X89250000Y-92034700D01*
X104680000Y-73500000D02*
X103504700Y-73500000D01*
X103504700Y-73500000D02*
X103504700Y-73132700D01*
X103504700Y-73132700D02*
X102696600Y-72324600D01*
X102696600Y-72324600D02*
X93994400Y-72324600D01*
X93994400Y-72324600D02*
X93174200Y-73144800D01*
X93174200Y-73144800D02*
X93174200Y-88391800D01*
X93174200Y-88391800D02*
X89531300Y-92034700D01*
X89531300Y-92034700D02*
X89250000Y-92034700D01*
X102140000Y-74675300D02*
X102140000Y-99442000D01*
X102140000Y-99442000D02*
X95994600Y-105587400D01*
X95994600Y-105587400D02*
X95994600Y-108326100D01*
X95994600Y-108326100D02*
X90125300Y-114195400D01*
X90125300Y-114195400D02*
X90125300Y-121230800D01*
X90125300Y-121230800D02*
X89281400Y-122074700D01*
X89281400Y-122074700D02*
X89000000Y-122074700D01*
X89000000Y-123200000D02*
X89000000Y-122074700D01*
X102140000Y-73500000D02*
X102140000Y-74675300D01*
X89000000Y-114454700D02*
X89203000Y-114454700D01*
X89203000Y-114454700D02*
X93311500Y-110346200D01*
X93311500Y-110346200D02*
X93311500Y-106469400D01*
X93311500Y-106469400D02*
X99963800Y-99817100D01*
X99963800Y-99817100D02*
X99963800Y-75039100D01*
X99963800Y-75039100D02*
X99600000Y-74675300D01*
X89000000Y-115580000D02*
X89000000Y-114454700D01*
X99600000Y-73500000D02*
X99600000Y-74675300D01*
X89000000Y-113040000D02*
X89000000Y-111914700D01*
X97060000Y-73500000D02*
X97060000Y-74675300D01*
X97060000Y-74675300D02*
X99513400Y-77128700D01*
X99513400Y-77128700D02*
X99513400Y-97825100D01*
X99513400Y-97825100D02*
X90125300Y-107213200D01*
X90125300Y-107213200D02*
X90125300Y-111492800D01*
X90125300Y-111492800D02*
X89703400Y-111914700D01*
X89703400Y-111914700D02*
X89000000Y-111914700D01*
X94520000Y-73500000D02*
X94520000Y-74675300D01*
X94520000Y-74675300D02*
X99063000Y-79218300D01*
X99063000Y-79218300D02*
X99063000Y-97638600D01*
X99063000Y-97638600D02*
X89000000Y-107701600D01*
X89000000Y-107701600D02*
X89000000Y-110500000D01*
X81820000Y-73500000D02*
X81820000Y-87402300D01*
X81820000Y-87402300D02*
X88847700Y-94430000D01*
X88847700Y-94430000D02*
X92704100Y-94430000D01*
X92704100Y-94430000D02*
X94583800Y-96309700D01*
X79280000Y-73500000D02*
X79280000Y-87325500D01*
X79280000Y-87325500D02*
X88996800Y-97042300D01*
X88996800Y-97042300D02*
X97310000Y-97042300D01*
X97310000Y-97042300D02*
X98304000Y-96048300D01*
X109500000Y-92074700D02*
X109279500Y-92074700D01*
X109279500Y-92074700D02*
X103118200Y-85913400D01*
X103118200Y-85913400D02*
X103118200Y-82952000D01*
X103118200Y-82952000D02*
X108400100Y-77670100D01*
X108400100Y-77670100D02*
X108400100Y-70405900D01*
X108400100Y-70405900D02*
X107265700Y-69271500D01*
X107265700Y-69271500D02*
X81765800Y-69271500D01*
X81765800Y-69271500D02*
X80550000Y-70487300D01*
X80550000Y-70487300D02*
X80550000Y-71391000D01*
X80550000Y-71391000D02*
X79616300Y-72324700D01*
X79616300Y-72324700D02*
X78723200Y-72324700D01*
X78723200Y-72324700D02*
X77915300Y-73132600D01*
X77915300Y-73132600D02*
X77915300Y-73500000D01*
X109500000Y-93200000D02*
X109500000Y-92074700D01*
X76740000Y-73500000D02*
X77915300Y-73500000D01*
X71660000Y-73500000D02*
X72835300Y-73500000D01*
X72835300Y-73500000D02*
X72835300Y-74459900D01*
X72835300Y-74459900D02*
X77870100Y-79494700D01*
X104040000Y-125990000D02*
X104040000Y-128530000D01*
X104040000Y-123450000D02*
X104040000Y-125990000D01*
X104040000Y-120910000D02*
X104040000Y-123450000D01*
X104040000Y-118370000D02*
X104040000Y-120910000D01*
X104040000Y-115830000D02*
X104040000Y-118370000D01*
X104040000Y-113290000D02*
X104040000Y-115830000D01*
X104040000Y-110750000D02*
X104040000Y-113290000D01*
X89000000Y-125740000D02*
X90125300Y-125740000D01*
X101500000Y-128530000D02*
X100324700Y-128530000D01*
X100324700Y-128530000D02*
X98660000Y-126865300D01*
X98660000Y-126865300D02*
X91250600Y-126865300D01*
X91250600Y-126865300D02*
X90125300Y-125740000D01*
X56862700Y-97850000D02*
X58500000Y-96212700D01*
X58500000Y-96212700D02*
X58500000Y-94000000D01*
X56862700Y-97850000D02*
X56862700Y-103662600D01*
X56862700Y-103662600D02*
X52775300Y-107750000D01*
X56862700Y-103662600D02*
X57259800Y-103662600D01*
X57259800Y-103662600D02*
X63500000Y-109902800D01*
X63500000Y-109902800D02*
X63500000Y-112000000D01*
X50950000Y-107750000D02*
X52775300Y-107750000D01*
X55950000Y-97850000D02*
X56862700Y-97850000D01*
X110625300Y-116060000D02*
X116874000Y-122308700D01*
X116874000Y-122308700D02*
X132133900Y-122308700D01*
X132133900Y-122308700D02*
X133972600Y-120470000D01*
X133972600Y-120470000D02*
X139504600Y-120470000D01*
X139504600Y-120470000D02*
X141163800Y-118810800D01*
X141163800Y-118810800D02*
X141163800Y-78931800D01*
X141163800Y-78931800D02*
X139407300Y-77175300D01*
X139407300Y-77175300D02*
X139040000Y-77175300D01*
X139040000Y-76000000D02*
X139040000Y-77175300D01*
X109500000Y-116060000D02*
X110625300Y-116060000D01*
X109500000Y-104774700D02*
X109781400Y-104774700D01*
X109781400Y-104774700D02*
X110625300Y-103930800D01*
X110625300Y-103930800D02*
X110625300Y-103107800D01*
X110625300Y-103107800D02*
X124198500Y-89534600D01*
X124198500Y-89534600D02*
X126246000Y-89534600D01*
X126246000Y-89534600D02*
X126588300Y-89192300D01*
X109500000Y-105900000D02*
X109500000Y-104774700D01*
X139040000Y-89875300D02*
X139407400Y-89875300D01*
X139407400Y-89875300D02*
X140713500Y-91181400D01*
X140713500Y-91181400D02*
X140713500Y-116739000D01*
X140713500Y-116739000D02*
X139417300Y-118035200D01*
X139417300Y-118035200D02*
X139040000Y-118035200D01*
X139040000Y-88700000D02*
X139040000Y-89875300D01*
X125865300Y-118600000D02*
X126440600Y-118024700D01*
X126440600Y-118024700D02*
X139029500Y-118024700D01*
X139029500Y-118024700D02*
X139040000Y-118035200D01*
X139040000Y-119200000D02*
X139040000Y-118035200D01*
X124740000Y-118600000D02*
X125865300Y-118600000D01*
X109500000Y-107314700D02*
X109734000Y-107314700D01*
X109734000Y-107314700D02*
X110998500Y-106050200D01*
X110998500Y-106050200D02*
X110998500Y-105343900D01*
X110998500Y-105343900D02*
X124412400Y-91930000D01*
X124412400Y-91930000D02*
X125125000Y-91930000D01*
X125125000Y-91930000D02*
X130093900Y-86961100D01*
X130093900Y-86961100D02*
X130093900Y-86525200D01*
X109500000Y-108440000D02*
X109500000Y-107314700D01*
X136500000Y-78540000D02*
X136500000Y-79715300D01*
X137577700Y-87306700D02*
X137675300Y-87209100D01*
X137675300Y-87209100D02*
X137675300Y-80523200D01*
X137675300Y-80523200D02*
X136867400Y-79715300D01*
X136867400Y-79715300D02*
X136500000Y-79715300D01*
X136500000Y-76000000D02*
X137675300Y-76000000D01*
X109500000Y-118600000D02*
X110625300Y-118600000D01*
X110625300Y-118600000D02*
X116875600Y-124850300D01*
X116875600Y-124850300D02*
X137613100Y-124850300D01*
X137613100Y-124850300D02*
X141614200Y-120849200D01*
X141614200Y-120849200D02*
X141614200Y-76866200D01*
X141614200Y-76866200D02*
X139572700Y-74824700D01*
X139572700Y-74824700D02*
X138483200Y-74824700D01*
X138483200Y-74824700D02*
X137675300Y-75632600D01*
X137675300Y-75632600D02*
X137675300Y-76000000D01*
X139040000Y-114120000D02*
X139040000Y-112944700D01*
X124740000Y-98280000D02*
X132486100Y-98280000D01*
X132486100Y-98280000D02*
X140215300Y-106009200D01*
X140215300Y-106009200D02*
X140215300Y-112136800D01*
X140215300Y-112136800D02*
X139407400Y-112944700D01*
X139407400Y-112944700D02*
X139040000Y-112944700D01*
X124740000Y-100820000D02*
X132981800Y-100820000D01*
X132981800Y-100820000D02*
X137675300Y-105513500D01*
X137675300Y-105513500D02*
X137675300Y-112136800D01*
X137675300Y-112136800D02*
X136867400Y-112944700D01*
X136867400Y-112944700D02*
X136500000Y-112944700D01*
X136500000Y-114120000D02*
X136500000Y-112944700D01*
X124740000Y-116060000D02*
X125865300Y-116060000D01*
X136500000Y-106500000D02*
X135324700Y-106500000D01*
X125865300Y-116060000D02*
X125865300Y-115959400D01*
X125865300Y-115959400D02*
X135324700Y-106500000D01*
X109500000Y-128760000D02*
X108374700Y-128760000D01*
X77410000Y-132000000D02*
X105134700Y-132000000D01*
X105134700Y-132000000D02*
X108374700Y-128760000D01*
X67250000Y-125000000D02*
X69750000Y-122500000D01*
X69750000Y-122500000D02*
X69750000Y-121000000D01*
X67250000Y-128500000D02*
X67250000Y-125000000D01*
X67250000Y-132000000D02*
X67250000Y-128500000D01*
X109500000Y-126220000D02*
X108374700Y-126220000D01*
X77410000Y-128500000D02*
X78535300Y-128500000D01*
X78535300Y-128500000D02*
X80585200Y-130549900D01*
X80585200Y-130549900D02*
X104888800Y-130549900D01*
X104888800Y-130549900D02*
X108374700Y-127064000D01*
X108374700Y-127064000D02*
X108374700Y-126220000D01*
X69790000Y-79880000D02*
X68664700Y-79880000D01*
X58000000Y-90250000D02*
X58000000Y-88705100D01*
X58000000Y-88705100D02*
X60188500Y-86516600D01*
X60188500Y-86516600D02*
X60825000Y-86516600D01*
X60825000Y-86516600D02*
X65517400Y-81824200D01*
X65517400Y-81824200D02*
X65517400Y-80016300D01*
X65517400Y-80016300D02*
X66779000Y-78754700D01*
X66779000Y-78754700D02*
X67820800Y-78754700D01*
X67820800Y-78754700D02*
X68664700Y-79598600D01*
X68664700Y-79598600D02*
X68664700Y-79880000D01*
X67250000Y-87500000D02*
X67250000Y-88625300D01*
X67250000Y-88625300D02*
X67000000Y-88875300D01*
X67000000Y-88875300D02*
X67000000Y-99130000D01*
X69540000Y-106750000D02*
X69540000Y-105624700D01*
X74870000Y-79880000D02*
X74870000Y-81005300D01*
X74870000Y-81005300D02*
X73744700Y-82130600D01*
X73744700Y-82130600D02*
X73744700Y-89625100D01*
X73744700Y-89625100D02*
X72375400Y-90994400D01*
X72375400Y-90994400D02*
X72375400Y-95464600D01*
X72375400Y-95464600D02*
X70665300Y-97174700D01*
X70665300Y-97174700D02*
X70665300Y-104499400D01*
X70665300Y-104499400D02*
X69540000Y-105624700D01*
X108631300Y-89262000D02*
X115096800Y-89262000D01*
X115096800Y-89262000D02*
X119034800Y-93200000D01*
X124740000Y-85580000D02*
X125865300Y-85580000D01*
X129500000Y-82000000D02*
X128424700Y-82000000D01*
X128424700Y-82000000D02*
X125865300Y-84559400D01*
X125865300Y-84559400D02*
X125865300Y-85580000D01*
D21*
X64000000Y-104500000D02*
X65699600Y-106199600D01*
X65699600Y-106199600D02*
X65699600Y-111869600D01*
X65699600Y-111869600D02*
X69750000Y-115920000D01*
X69750000Y-115920000D02*
X71491900Y-115920000D01*
X71491900Y-115920000D02*
X85496400Y-129924500D01*
X85496400Y-129924500D02*
X104580600Y-129924500D01*
X104580600Y-129924500D02*
X105390400Y-129114700D01*
X105390400Y-129114700D02*
X105390400Y-125249600D01*
X105390400Y-125249600D02*
X109500000Y-121140000D01*
X73750000Y-93500000D02*
X73750000Y-96159700D01*
X73750000Y-96159700D02*
X72080000Y-97829700D01*
X72080000Y-99130000D02*
X72080000Y-97829700D01*
D23*
G36*
X116311801Y-125361303D02*
G01*
X116335599Y-125390301D01*
X116364597Y-125414099D01*
X116451323Y-125485274D01*
X116583353Y-125555846D01*
X116726614Y-125599303D01*
X116838267Y-125610300D01*
X116838276Y-125610300D01*
X116875599Y-125613976D01*
X116912922Y-125610300D01*
X123438762Y-125610300D01*
X123407818Y-125668192D01*
X123325764Y-125938691D01*
X123298057Y-126220000D01*
X123325764Y-126501309D01*
X123407818Y-126771808D01*
X123541068Y-127021101D01*
X123720392Y-127239608D01*
X123938899Y-127418932D01*
X124071858Y-127490000D01*
X123938899Y-127561068D01*
X123720392Y-127740392D01*
X123541068Y-127958899D01*
X123407818Y-128208192D01*
X123325764Y-128478691D01*
X123298057Y-128760000D01*
X123325764Y-129041309D01*
X123407818Y-129311808D01*
X123541068Y-129561101D01*
X123720392Y-129779608D01*
X123805001Y-129849045D01*
X123805001Y-130014359D01*
X123800476Y-130060300D01*
X123818529Y-130243591D01*
X123866253Y-130400913D01*
X123871994Y-130419840D01*
X123958815Y-130582272D01*
X124075657Y-130724644D01*
X124111337Y-130753926D01*
X124289008Y-130931596D01*
X124135363Y-131085241D01*
X124001308Y-131285869D01*
X123986671Y-131258486D01*
X123742702Y-131186903D01*
X122929605Y-132000000D01*
X123742702Y-132813097D01*
X123986671Y-132741514D01*
X124000324Y-132712659D01*
X124135363Y-132914759D01*
X124335241Y-133114637D01*
X124570273Y-133271680D01*
X124831426Y-133379853D01*
X125108665Y-133435000D01*
X125391335Y-133435000D01*
X125668574Y-133379853D01*
X125929727Y-133271680D01*
X126164759Y-133114637D01*
X126364637Y-132914759D01*
X126521680Y-132679727D01*
X126629853Y-132418574D01*
X126685000Y-132141335D01*
X126685000Y-131858665D01*
X126629853Y-131581426D01*
X126521680Y-131320273D01*
X126494685Y-131279872D01*
X134265000Y-131279872D01*
X134265000Y-131720128D01*
X134350890Y-132151925D01*
X134519369Y-132558669D01*
X134763962Y-132924729D01*
X135075271Y-133236038D01*
X135441331Y-133480631D01*
X135848075Y-133649110D01*
X136279872Y-133735000D01*
X136720128Y-133735000D01*
X137151925Y-133649110D01*
X137558669Y-133480631D01*
X137924729Y-133236038D01*
X138236038Y-132924729D01*
X138480631Y-132558669D01*
X138649110Y-132151925D01*
X138735000Y-131720128D01*
X138735000Y-131279872D01*
X138649110Y-130848075D01*
X138480631Y-130441331D01*
X138236038Y-130075271D01*
X137924729Y-129763962D01*
X137558669Y-129519369D01*
X137151925Y-129350890D01*
X136720128Y-129265000D01*
X136279872Y-129265000D01*
X135848075Y-129350890D01*
X135441331Y-129519369D01*
X135075271Y-129763962D01*
X134763962Y-130075271D01*
X134519369Y-130441331D01*
X134350890Y-130848075D01*
X134265000Y-131279872D01*
X126494685Y-131279872D01*
X126364637Y-131085241D01*
X126185000Y-130905604D01*
X126185000Y-130616232D01*
X126189524Y-130570300D01*
X126171471Y-130387008D01*
X126132232Y-130257654D01*
X126118007Y-130210760D01*
X126031186Y-130048328D01*
X125914344Y-129905956D01*
X125878654Y-129876666D01*
X125769519Y-129767531D01*
X125938932Y-129561101D01*
X126072182Y-129311808D01*
X126154236Y-129041309D01*
X126181943Y-128760000D01*
X126154236Y-128478691D01*
X126072182Y-128208192D01*
X125938932Y-127958899D01*
X125759608Y-127740392D01*
X125541101Y-127561068D01*
X125408142Y-127490000D01*
X125541101Y-127418932D01*
X125759608Y-127239608D01*
X125938932Y-127021101D01*
X126072182Y-126771808D01*
X126154236Y-126501309D01*
X126181943Y-126220000D01*
X126154236Y-125938691D01*
X126072182Y-125668192D01*
X126041238Y-125610300D01*
X137575778Y-125610300D01*
X137613100Y-125613976D01*
X137650422Y-125610300D01*
X137650433Y-125610300D01*
X137762086Y-125599303D01*
X137905347Y-125555846D01*
X138037376Y-125485274D01*
X138153101Y-125390301D01*
X138176904Y-125361297D01*
X141340001Y-122198201D01*
X141340001Y-135340000D01*
X84627000Y-135340000D01*
X84627000Y-132992702D01*
X121936903Y-132992702D01*
X122008486Y-133236671D01*
X122263996Y-133357571D01*
X122538184Y-133426300D01*
X122820512Y-133440217D01*
X123100130Y-133398787D01*
X123366292Y-133303603D01*
X123491514Y-133236671D01*
X123563097Y-132992702D01*
X122750000Y-132179605D01*
X121936903Y-132992702D01*
X84627000Y-132992702D01*
X84627000Y-132760000D01*
X105097378Y-132760000D01*
X105134700Y-132763676D01*
X105172022Y-132760000D01*
X105172033Y-132760000D01*
X105283686Y-132749003D01*
X105426947Y-132705546D01*
X105558976Y-132634974D01*
X105674701Y-132540001D01*
X105698504Y-132510997D01*
X106138989Y-132070512D01*
X121309783Y-132070512D01*
X121351213Y-132350130D01*
X121446397Y-132616292D01*
X121513329Y-132741514D01*
X121757298Y-132813097D01*
X122570395Y-132000000D01*
X121757298Y-131186903D01*
X121513329Y-131258486D01*
X121392429Y-131513996D01*
X121323700Y-131788184D01*
X121309783Y-132070512D01*
X106138989Y-132070512D01*
X107202203Y-131007298D01*
X121936903Y-131007298D01*
X122750000Y-131820395D01*
X123563097Y-131007298D01*
X123491514Y-130763329D01*
X123236004Y-130642429D01*
X122961816Y-130573700D01*
X122679488Y-130559783D01*
X122399870Y-130601213D01*
X122133708Y-130696397D01*
X122008486Y-130763329D01*
X121936903Y-131007298D01*
X107202203Y-131007298D01*
X108457630Y-129751872D01*
X108480392Y-129779608D01*
X108698899Y-129958932D01*
X108948192Y-130092182D01*
X109218691Y-130174236D01*
X109429508Y-130195000D01*
X109570492Y-130195000D01*
X109781309Y-130174236D01*
X110051808Y-130092182D01*
X110301101Y-129958932D01*
X110519608Y-129779608D01*
X110698932Y-129561101D01*
X110832182Y-129311808D01*
X110914236Y-129041309D01*
X110941943Y-128760000D01*
X110914236Y-128478691D01*
X110832182Y-128208192D01*
X110698932Y-127958899D01*
X110519608Y-127740392D01*
X110301101Y-127561068D01*
X110168142Y-127490000D01*
X110301101Y-127418932D01*
X110519608Y-127239608D01*
X110698932Y-127021101D01*
X110832182Y-126771808D01*
X110914236Y-126501309D01*
X110941943Y-126220000D01*
X110914236Y-125938691D01*
X110832182Y-125668192D01*
X110698932Y-125418899D01*
X110519608Y-125200392D01*
X110301101Y-125021068D01*
X110168142Y-124950000D01*
X110301101Y-124878932D01*
X110519608Y-124699608D01*
X110698932Y-124481101D01*
X110832182Y-124231808D01*
X110914236Y-123961309D01*
X110941943Y-123680000D01*
X110914236Y-123398691D01*
X110832182Y-123128192D01*
X110698932Y-122878899D01*
X110519608Y-122660392D01*
X110301101Y-122481068D01*
X110168142Y-122410000D01*
X110301101Y-122338932D01*
X110519608Y-122159608D01*
X110698932Y-121941101D01*
X110832182Y-121691808D01*
X110914236Y-121421309D01*
X110941943Y-121140000D01*
X110914236Y-120858691D01*
X110832182Y-120588192D01*
X110698932Y-120338899D01*
X110519608Y-120120392D01*
X110301101Y-119941068D01*
X110168142Y-119870000D01*
X110301101Y-119798932D01*
X110519608Y-119619608D01*
X110542371Y-119591872D01*
X116311801Y-125361303D01*
X116311801Y-125361303D01*
G37*
X116311801Y-125361303D02*
X116335599Y-125390301D01*
X116364597Y-125414099D01*
X116451323Y-125485274D01*
X116583353Y-125555846D01*
X116726614Y-125599303D01*
X116838267Y-125610300D01*
X116838276Y-125610300D01*
X116875599Y-125613976D01*
X116912922Y-125610300D01*
X123438762Y-125610300D01*
X123407818Y-125668192D01*
X123325764Y-125938691D01*
X123298057Y-126220000D01*
X123325764Y-126501309D01*
X123407818Y-126771808D01*
X123541068Y-127021101D01*
X123720392Y-127239608D01*
X123938899Y-127418932D01*
X124071858Y-127490000D01*
X123938899Y-127561068D01*
X123720392Y-127740392D01*
X123541068Y-127958899D01*
X123407818Y-128208192D01*
X123325764Y-128478691D01*
X123298057Y-128760000D01*
X123325764Y-129041309D01*
X123407818Y-129311808D01*
X123541068Y-129561101D01*
X123720392Y-129779608D01*
X123805001Y-129849045D01*
X123805001Y-130014359D01*
X123800476Y-130060300D01*
X123818529Y-130243591D01*
X123866253Y-130400913D01*
X123871994Y-130419840D01*
X123958815Y-130582272D01*
X124075657Y-130724644D01*
X124111337Y-130753926D01*
X124289008Y-130931596D01*
X124135363Y-131085241D01*
X124001308Y-131285869D01*
X123986671Y-131258486D01*
X123742702Y-131186903D01*
X122929605Y-132000000D01*
X123742702Y-132813097D01*
X123986671Y-132741514D01*
X124000324Y-132712659D01*
X124135363Y-132914759D01*
X124335241Y-133114637D01*
X124570273Y-133271680D01*
X124831426Y-133379853D01*
X125108665Y-133435000D01*
X125391335Y-133435000D01*
X125668574Y-133379853D01*
X125929727Y-133271680D01*
X126164759Y-133114637D01*
X126364637Y-132914759D01*
X126521680Y-132679727D01*
X126629853Y-132418574D01*
X126685000Y-132141335D01*
X126685000Y-131858665D01*
X126629853Y-131581426D01*
X126521680Y-131320273D01*
X126494685Y-131279872D01*
X134265000Y-131279872D01*
X134265000Y-131720128D01*
X134350890Y-132151925D01*
X134519369Y-132558669D01*
X134763962Y-132924729D01*
X135075271Y-133236038D01*
X135441331Y-133480631D01*
X135848075Y-133649110D01*
X136279872Y-133735000D01*
X136720128Y-133735000D01*
X137151925Y-133649110D01*
X137558669Y-133480631D01*
X137924729Y-133236038D01*
X138236038Y-132924729D01*
X138480631Y-132558669D01*
X138649110Y-132151925D01*
X138735000Y-131720128D01*
X138735000Y-131279872D01*
X138649110Y-130848075D01*
X138480631Y-130441331D01*
X138236038Y-130075271D01*
X137924729Y-129763962D01*
X137558669Y-129519369D01*
X137151925Y-129350890D01*
X136720128Y-129265000D01*
X136279872Y-129265000D01*
X135848075Y-129350890D01*
X135441331Y-129519369D01*
X135075271Y-129763962D01*
X134763962Y-130075271D01*
X134519369Y-130441331D01*
X134350890Y-130848075D01*
X134265000Y-131279872D01*
X126494685Y-131279872D01*
X126364637Y-131085241D01*
X126185000Y-130905604D01*
X126185000Y-130616232D01*
X126189524Y-130570300D01*
X126171471Y-130387008D01*
X126132232Y-130257654D01*
X126118007Y-130210760D01*
X126031186Y-130048328D01*
X125914344Y-129905956D01*
X125878654Y-129876666D01*
X125769519Y-129767531D01*
X125938932Y-129561101D01*
X126072182Y-129311808D01*
X126154236Y-129041309D01*
X126181943Y-128760000D01*
X126154236Y-128478691D01*
X126072182Y-128208192D01*
X125938932Y-127958899D01*
X125759608Y-127740392D01*
X125541101Y-127561068D01*
X125408142Y-127490000D01*
X125541101Y-127418932D01*
X125759608Y-127239608D01*
X125938932Y-127021101D01*
X126072182Y-126771808D01*
X126154236Y-126501309D01*
X126181943Y-126220000D01*
X126154236Y-125938691D01*
X126072182Y-125668192D01*
X126041238Y-125610300D01*
X137575778Y-125610300D01*
X137613100Y-125613976D01*
X137650422Y-125610300D01*
X137650433Y-125610300D01*
X137762086Y-125599303D01*
X137905347Y-125555846D01*
X138037376Y-125485274D01*
X138153101Y-125390301D01*
X138176904Y-125361297D01*
X141340001Y-122198201D01*
X141340001Y-135340000D01*
X84627000Y-135340000D01*
X84627000Y-132992702D01*
X121936903Y-132992702D01*
X122008486Y-133236671D01*
X122263996Y-133357571D01*
X122538184Y-133426300D01*
X122820512Y-133440217D01*
X123100130Y-133398787D01*
X123366292Y-133303603D01*
X123491514Y-133236671D01*
X123563097Y-132992702D01*
X122750000Y-132179605D01*
X121936903Y-132992702D01*
X84627000Y-132992702D01*
X84627000Y-132760000D01*
X105097378Y-132760000D01*
X105134700Y-132763676D01*
X105172022Y-132760000D01*
X105172033Y-132760000D01*
X105283686Y-132749003D01*
X105426947Y-132705546D01*
X105558976Y-132634974D01*
X105674701Y-132540001D01*
X105698504Y-132510997D01*
X106138989Y-132070512D01*
X121309783Y-132070512D01*
X121351213Y-132350130D01*
X121446397Y-132616292D01*
X121513329Y-132741514D01*
X121757298Y-132813097D01*
X122570395Y-132000000D01*
X121757298Y-131186903D01*
X121513329Y-131258486D01*
X121392429Y-131513996D01*
X121323700Y-131788184D01*
X121309783Y-132070512D01*
X106138989Y-132070512D01*
X107202203Y-131007298D01*
X121936903Y-131007298D01*
X122750000Y-131820395D01*
X123563097Y-131007298D01*
X123491514Y-130763329D01*
X123236004Y-130642429D01*
X122961816Y-130573700D01*
X122679488Y-130559783D01*
X122399870Y-130601213D01*
X122133708Y-130696397D01*
X122008486Y-130763329D01*
X121936903Y-131007298D01*
X107202203Y-131007298D01*
X108457630Y-129751872D01*
X108480392Y-129779608D01*
X108698899Y-129958932D01*
X108948192Y-130092182D01*
X109218691Y-130174236D01*
X109429508Y-130195000D01*
X109570492Y-130195000D01*
X109781309Y-130174236D01*
X110051808Y-130092182D01*
X110301101Y-129958932D01*
X110519608Y-129779608D01*
X110698932Y-129561101D01*
X110832182Y-129311808D01*
X110914236Y-129041309D01*
X110941943Y-128760000D01*
X110914236Y-128478691D01*
X110832182Y-128208192D01*
X110698932Y-127958899D01*
X110519608Y-127740392D01*
X110301101Y-127561068D01*
X110168142Y-127490000D01*
X110301101Y-127418932D01*
X110519608Y-127239608D01*
X110698932Y-127021101D01*
X110832182Y-126771808D01*
X110914236Y-126501309D01*
X110941943Y-126220000D01*
X110914236Y-125938691D01*
X110832182Y-125668192D01*
X110698932Y-125418899D01*
X110519608Y-125200392D01*
X110301101Y-125021068D01*
X110168142Y-124950000D01*
X110301101Y-124878932D01*
X110519608Y-124699608D01*
X110698932Y-124481101D01*
X110832182Y-124231808D01*
X110914236Y-123961309D01*
X110941943Y-123680000D01*
X110914236Y-123398691D01*
X110832182Y-123128192D01*
X110698932Y-122878899D01*
X110519608Y-122660392D01*
X110301101Y-122481068D01*
X110168142Y-122410000D01*
X110301101Y-122338932D01*
X110519608Y-122159608D01*
X110698932Y-121941101D01*
X110832182Y-121691808D01*
X110914236Y-121421309D01*
X110941943Y-121140000D01*
X110914236Y-120858691D01*
X110832182Y-120588192D01*
X110698932Y-120338899D01*
X110519608Y-120120392D01*
X110301101Y-119941068D01*
X110168142Y-119870000D01*
X110301101Y-119798932D01*
X110519608Y-119619608D01*
X110542371Y-119591872D01*
X116311801Y-125361303D01*
G36*
X88173626Y-97293928D02*
G01*
X88018963Y-97502580D01*
X87898754Y-97756913D01*
X87858096Y-97890961D01*
X87980085Y-98113000D01*
X89123000Y-98113000D01*
X89123000Y-98093000D01*
X89377000Y-98093000D01*
X89377000Y-98113000D01*
X90519915Y-98113000D01*
X90641904Y-97890961D01*
X90615012Y-97802300D01*
X95503204Y-97802300D01*
X95455764Y-97958691D01*
X95428057Y-98240000D01*
X95455764Y-98521309D01*
X95537818Y-98791808D01*
X95671068Y-99041101D01*
X95850392Y-99259608D01*
X96068899Y-99438932D01*
X96146427Y-99480371D01*
X88489003Y-107137796D01*
X88459999Y-107161599D01*
X88404871Y-107228774D01*
X88365026Y-107277324D01*
X88294455Y-107409353D01*
X88294454Y-107409354D01*
X88250997Y-107552615D01*
X88240000Y-107664268D01*
X88240000Y-107664278D01*
X88236324Y-107701600D01*
X88240000Y-107738923D01*
X88240000Y-109061928D01*
X88200000Y-109061928D01*
X88075518Y-109074188D01*
X87955820Y-109110498D01*
X87845506Y-109169463D01*
X87748815Y-109248815D01*
X87669463Y-109345506D01*
X87610498Y-109455820D01*
X87574188Y-109575518D01*
X87561928Y-109700000D01*
X87561928Y-111300000D01*
X87574188Y-111424482D01*
X87610498Y-111544180D01*
X87669463Y-111654494D01*
X87748815Y-111751185D01*
X87845506Y-111830537D01*
X87955820Y-111889502D01*
X88075518Y-111925812D01*
X88093482Y-111927581D01*
X87980392Y-112020392D01*
X87801068Y-112238899D01*
X87667818Y-112488192D01*
X87585764Y-112758691D01*
X87558057Y-113040000D01*
X87585764Y-113321309D01*
X87667818Y-113591808D01*
X87801068Y-113841101D01*
X87980392Y-114059608D01*
X88198899Y-114238932D01*
X88261160Y-114272211D01*
X88250997Y-114305714D01*
X88246058Y-114355861D01*
X88198899Y-114381068D01*
X87980392Y-114560392D01*
X87801068Y-114778899D01*
X87667818Y-115028192D01*
X87585764Y-115298691D01*
X87558057Y-115580000D01*
X87585764Y-115861309D01*
X87667818Y-116131808D01*
X87801068Y-116381101D01*
X87980392Y-116599608D01*
X88198899Y-116778932D01*
X88336682Y-116852579D01*
X88144869Y-116967615D01*
X87936481Y-117156586D01*
X87768963Y-117382580D01*
X87648754Y-117636913D01*
X87608096Y-117770961D01*
X87730085Y-117993000D01*
X88873000Y-117993000D01*
X88873000Y-117973000D01*
X89127000Y-117973000D01*
X89127000Y-117993000D01*
X89147000Y-117993000D01*
X89147000Y-118247000D01*
X89127000Y-118247000D01*
X89127000Y-120533000D01*
X89147000Y-120533000D01*
X89147000Y-120787000D01*
X89127000Y-120787000D01*
X89127000Y-120807000D01*
X88873000Y-120807000D01*
X88873000Y-120787000D01*
X87730085Y-120787000D01*
X87608096Y-121009039D01*
X87648754Y-121143087D01*
X87768963Y-121397420D01*
X87936481Y-121623414D01*
X88144869Y-121812385D01*
X88263748Y-121883680D01*
X88250997Y-121925714D01*
X88246058Y-121975861D01*
X88198899Y-122001068D01*
X87980392Y-122180392D01*
X87801068Y-122398899D01*
X87667818Y-122648192D01*
X87585764Y-122918691D01*
X87558057Y-123200000D01*
X87585764Y-123481309D01*
X87667818Y-123751808D01*
X87801068Y-124001101D01*
X87980392Y-124219608D01*
X88198899Y-124398932D01*
X88331858Y-124470000D01*
X88198899Y-124541068D01*
X87980392Y-124720392D01*
X87801068Y-124938899D01*
X87667818Y-125188192D01*
X87585764Y-125458691D01*
X87558057Y-125740000D01*
X87585764Y-126021309D01*
X87667818Y-126291808D01*
X87801068Y-126541101D01*
X87980392Y-126759608D01*
X88198899Y-126938932D01*
X88336682Y-127012579D01*
X88144869Y-127127615D01*
X87936481Y-127316586D01*
X87768963Y-127542580D01*
X87648754Y-127796913D01*
X87608096Y-127930961D01*
X87730085Y-128153000D01*
X88873000Y-128153000D01*
X88873000Y-128133000D01*
X89127000Y-128133000D01*
X89127000Y-128153000D01*
X90269915Y-128153000D01*
X90391904Y-127930961D01*
X90351246Y-127796913D01*
X90231037Y-127542580D01*
X90063519Y-127316586D01*
X89855131Y-127127615D01*
X89663318Y-127012579D01*
X89801101Y-126938932D01*
X90019608Y-126759608D01*
X90042370Y-126731872D01*
X90686800Y-127376302D01*
X90710599Y-127405301D01*
X90739597Y-127429099D01*
X90826324Y-127500274D01*
X90958353Y-127570846D01*
X91101614Y-127614303D01*
X91250600Y-127628977D01*
X91287933Y-127625300D01*
X95342815Y-127625300D01*
X95287818Y-127728192D01*
X95205764Y-127998691D01*
X95178057Y-128280000D01*
X95205764Y-128561309D01*
X95287818Y-128831808D01*
X95372106Y-128989500D01*
X90244233Y-128989500D01*
X90351246Y-128763087D01*
X90391904Y-128629039D01*
X90269915Y-128407000D01*
X89127000Y-128407000D01*
X89127000Y-128427000D01*
X88873000Y-128427000D01*
X88873000Y-128407000D01*
X87730085Y-128407000D01*
X87608096Y-128629039D01*
X87648754Y-128763087D01*
X87755767Y-128989500D01*
X85883689Y-128989500D01*
X84627000Y-127732811D01*
X84627000Y-118469039D01*
X87608096Y-118469039D01*
X87648754Y-118603087D01*
X87768963Y-118857420D01*
X87936481Y-119083414D01*
X88144869Y-119272385D01*
X88340982Y-119390000D01*
X88144869Y-119507615D01*
X87936481Y-119696586D01*
X87768963Y-119922580D01*
X87648754Y-120176913D01*
X87608096Y-120310961D01*
X87730085Y-120533000D01*
X88873000Y-120533000D01*
X88873000Y-118247000D01*
X87730085Y-118247000D01*
X87608096Y-118469039D01*
X84627000Y-118469039D01*
X84627000Y-98589039D01*
X87858096Y-98589039D01*
X87898754Y-98723087D01*
X88018963Y-98977420D01*
X88186481Y-99203414D01*
X88394869Y-99392385D01*
X88636119Y-99537070D01*
X88900960Y-99631909D01*
X89123000Y-99510624D01*
X89123000Y-98367000D01*
X89377000Y-98367000D01*
X89377000Y-99510624D01*
X89599040Y-99631909D01*
X89863881Y-99537070D01*
X90105131Y-99392385D01*
X90313519Y-99203414D01*
X90481037Y-98977420D01*
X90601246Y-98723087D01*
X90641904Y-98589039D01*
X90519915Y-98367000D01*
X89377000Y-98367000D01*
X89123000Y-98367000D01*
X87980085Y-98367000D01*
X87858096Y-98589039D01*
X84627000Y-98589039D01*
X84627000Y-93747302D01*
X88173626Y-97293928D01*
X88173626Y-97293928D01*
G37*
X88173626Y-97293928D02*
X88018963Y-97502580D01*
X87898754Y-97756913D01*
X87858096Y-97890961D01*
X87980085Y-98113000D01*
X89123000Y-98113000D01*
X89123000Y-98093000D01*
X89377000Y-98093000D01*
X89377000Y-98113000D01*
X90519915Y-98113000D01*
X90641904Y-97890961D01*
X90615012Y-97802300D01*
X95503204Y-97802300D01*
X95455764Y-97958691D01*
X95428057Y-98240000D01*
X95455764Y-98521309D01*
X95537818Y-98791808D01*
X95671068Y-99041101D01*
X95850392Y-99259608D01*
X96068899Y-99438932D01*
X96146427Y-99480371D01*
X88489003Y-107137796D01*
X88459999Y-107161599D01*
X88404871Y-107228774D01*
X88365026Y-107277324D01*
X88294455Y-107409353D01*
X88294454Y-107409354D01*
X88250997Y-107552615D01*
X88240000Y-107664268D01*
X88240000Y-107664278D01*
X88236324Y-107701600D01*
X88240000Y-107738923D01*
X88240000Y-109061928D01*
X88200000Y-109061928D01*
X88075518Y-109074188D01*
X87955820Y-109110498D01*
X87845506Y-109169463D01*
X87748815Y-109248815D01*
X87669463Y-109345506D01*
X87610498Y-109455820D01*
X87574188Y-109575518D01*
X87561928Y-109700000D01*
X87561928Y-111300000D01*
X87574188Y-111424482D01*
X87610498Y-111544180D01*
X87669463Y-111654494D01*
X87748815Y-111751185D01*
X87845506Y-111830537D01*
X87955820Y-111889502D01*
X88075518Y-111925812D01*
X88093482Y-111927581D01*
X87980392Y-112020392D01*
X87801068Y-112238899D01*
X87667818Y-112488192D01*
X87585764Y-112758691D01*
X87558057Y-113040000D01*
X87585764Y-113321309D01*
X87667818Y-113591808D01*
X87801068Y-113841101D01*
X87980392Y-114059608D01*
X88198899Y-114238932D01*
X88261160Y-114272211D01*
X88250997Y-114305714D01*
X88246058Y-114355861D01*
X88198899Y-114381068D01*
X87980392Y-114560392D01*
X87801068Y-114778899D01*
X87667818Y-115028192D01*
X87585764Y-115298691D01*
X87558057Y-115580000D01*
X87585764Y-115861309D01*
X87667818Y-116131808D01*
X87801068Y-116381101D01*
X87980392Y-116599608D01*
X88198899Y-116778932D01*
X88336682Y-116852579D01*
X88144869Y-116967615D01*
X87936481Y-117156586D01*
X87768963Y-117382580D01*
X87648754Y-117636913D01*
X87608096Y-117770961D01*
X87730085Y-117993000D01*
X88873000Y-117993000D01*
X88873000Y-117973000D01*
X89127000Y-117973000D01*
X89127000Y-117993000D01*
X89147000Y-117993000D01*
X89147000Y-118247000D01*
X89127000Y-118247000D01*
X89127000Y-120533000D01*
X89147000Y-120533000D01*
X89147000Y-120787000D01*
X89127000Y-120787000D01*
X89127000Y-120807000D01*
X88873000Y-120807000D01*
X88873000Y-120787000D01*
X87730085Y-120787000D01*
X87608096Y-121009039D01*
X87648754Y-121143087D01*
X87768963Y-121397420D01*
X87936481Y-121623414D01*
X88144869Y-121812385D01*
X88263748Y-121883680D01*
X88250997Y-121925714D01*
X88246058Y-121975861D01*
X88198899Y-122001068D01*
X87980392Y-122180392D01*
X87801068Y-122398899D01*
X87667818Y-122648192D01*
X87585764Y-122918691D01*
X87558057Y-123200000D01*
X87585764Y-123481309D01*
X87667818Y-123751808D01*
X87801068Y-124001101D01*
X87980392Y-124219608D01*
X88198899Y-124398932D01*
X88331858Y-124470000D01*
X88198899Y-124541068D01*
X87980392Y-124720392D01*
X87801068Y-124938899D01*
X87667818Y-125188192D01*
X87585764Y-125458691D01*
X87558057Y-125740000D01*
X87585764Y-126021309D01*
X87667818Y-126291808D01*
X87801068Y-126541101D01*
X87980392Y-126759608D01*
X88198899Y-126938932D01*
X88336682Y-127012579D01*
X88144869Y-127127615D01*
X87936481Y-127316586D01*
X87768963Y-127542580D01*
X87648754Y-127796913D01*
X87608096Y-127930961D01*
X87730085Y-128153000D01*
X88873000Y-128153000D01*
X88873000Y-128133000D01*
X89127000Y-128133000D01*
X89127000Y-128153000D01*
X90269915Y-128153000D01*
X90391904Y-127930961D01*
X90351246Y-127796913D01*
X90231037Y-127542580D01*
X90063519Y-127316586D01*
X89855131Y-127127615D01*
X89663318Y-127012579D01*
X89801101Y-126938932D01*
X90019608Y-126759608D01*
X90042370Y-126731872D01*
X90686800Y-127376302D01*
X90710599Y-127405301D01*
X90739597Y-127429099D01*
X90826324Y-127500274D01*
X90958353Y-127570846D01*
X91101614Y-127614303D01*
X91250600Y-127628977D01*
X91287933Y-127625300D01*
X95342815Y-127625300D01*
X95287818Y-127728192D01*
X95205764Y-127998691D01*
X95178057Y-128280000D01*
X95205764Y-128561309D01*
X95287818Y-128831808D01*
X95372106Y-128989500D01*
X90244233Y-128989500D01*
X90351246Y-128763087D01*
X90391904Y-128629039D01*
X90269915Y-128407000D01*
X89127000Y-128407000D01*
X89127000Y-128427000D01*
X88873000Y-128427000D01*
X88873000Y-128407000D01*
X87730085Y-128407000D01*
X87608096Y-128629039D01*
X87648754Y-128763087D01*
X87755767Y-128989500D01*
X85883689Y-128989500D01*
X84627000Y-127732811D01*
X84627000Y-118469039D01*
X87608096Y-118469039D01*
X87648754Y-118603087D01*
X87768963Y-118857420D01*
X87936481Y-119083414D01*
X88144869Y-119272385D01*
X88340982Y-119390000D01*
X88144869Y-119507615D01*
X87936481Y-119696586D01*
X87768963Y-119922580D01*
X87648754Y-120176913D01*
X87608096Y-120310961D01*
X87730085Y-120533000D01*
X88873000Y-120533000D01*
X88873000Y-118247000D01*
X87730085Y-118247000D01*
X87608096Y-118469039D01*
X84627000Y-118469039D01*
X84627000Y-98589039D01*
X87858096Y-98589039D01*
X87898754Y-98723087D01*
X88018963Y-98977420D01*
X88186481Y-99203414D01*
X88394869Y-99392385D01*
X88636119Y-99537070D01*
X88900960Y-99631909D01*
X89123000Y-99510624D01*
X89123000Y-98367000D01*
X89377000Y-98367000D01*
X89377000Y-99510624D01*
X89599040Y-99631909D01*
X89863881Y-99537070D01*
X90105131Y-99392385D01*
X90313519Y-99203414D01*
X90481037Y-98977420D01*
X90601246Y-98723087D01*
X90641904Y-98589039D01*
X90519915Y-98367000D01*
X89377000Y-98367000D01*
X89123000Y-98367000D01*
X87980085Y-98367000D01*
X87858096Y-98589039D01*
X84627000Y-98589039D01*
X84627000Y-93747302D01*
X88173626Y-97293928D01*
G36*
X139167000Y-121613000D02*
G01*
X139187000Y-121613000D01*
X139187000Y-121867000D01*
X139167000Y-121867000D01*
X139167000Y-121887000D01*
X138913000Y-121887000D01*
X138913000Y-121867000D01*
X138893000Y-121867000D01*
X138893000Y-121613000D01*
X138913000Y-121613000D01*
X138913000Y-121593000D01*
X139167000Y-121593000D01*
X139167000Y-121613000D01*
X139167000Y-121613000D01*
G37*
X139167000Y-121613000D02*
X139187000Y-121613000D01*
X139187000Y-121867000D01*
X139167000Y-121867000D01*
X139167000Y-121887000D01*
X138913000Y-121887000D01*
X138913000Y-121867000D01*
X138893000Y-121867000D01*
X138893000Y-121613000D01*
X138913000Y-121613000D01*
X138913000Y-121593000D01*
X139167000Y-121593000D01*
X139167000Y-121613000D01*
G36*
X94943748Y-107485858D02*
G01*
X94929605Y-107500000D01*
X94943748Y-107514143D01*
X94764143Y-107693748D01*
X94750000Y-107679605D01*
X94735858Y-107693748D01*
X94556253Y-107514143D01*
X94570395Y-107500000D01*
X94556253Y-107485858D01*
X94735858Y-107306253D01*
X94750000Y-107320395D01*
X94764143Y-107306253D01*
X94943748Y-107485858D01*
X94943748Y-107485858D01*
G37*
X94943748Y-107485858D02*
X94929605Y-107500000D01*
X94943748Y-107514143D01*
X94764143Y-107693748D01*
X94750000Y-107679605D01*
X94735858Y-107693748D01*
X94556253Y-107514143D01*
X94570395Y-107500000D01*
X94556253Y-107485858D01*
X94735858Y-107306253D01*
X94750000Y-107320395D01*
X94764143Y-107306253D01*
X94943748Y-107485858D01*
G36*
X141340000Y-75517199D02*
G01*
X140136504Y-74313703D01*
X140112701Y-74284699D01*
X139996976Y-74189726D01*
X139864947Y-74119154D01*
X139721686Y-74075697D01*
X139610033Y-74064700D01*
X139610022Y-74064700D01*
X139572700Y-74061024D01*
X139535378Y-74064700D01*
X138520522Y-74064700D01*
X138483199Y-74061024D01*
X138445876Y-74064700D01*
X138445867Y-74064700D01*
X138334214Y-74075697D01*
X138216182Y-74111501D01*
X138190953Y-74119154D01*
X138058923Y-74189726D01*
X138028372Y-74214799D01*
X137943199Y-74284699D01*
X137919401Y-74313698D01*
X137645284Y-74587814D01*
X137594180Y-74560498D01*
X137474482Y-74524188D01*
X137350000Y-74511928D01*
X135650000Y-74511928D01*
X135525518Y-74524188D01*
X135405820Y-74560498D01*
X135295506Y-74619463D01*
X135198815Y-74698815D01*
X135119463Y-74795506D01*
X135060498Y-74905820D01*
X135024188Y-75025518D01*
X135011928Y-75150000D01*
X135011928Y-76850000D01*
X135024188Y-76974482D01*
X135060498Y-77094180D01*
X135119463Y-77204494D01*
X135198815Y-77301185D01*
X135295506Y-77380537D01*
X135405820Y-77439502D01*
X135474687Y-77460393D01*
X135444866Y-77484866D01*
X135259294Y-77710986D01*
X135121401Y-77968966D01*
X135036487Y-78248889D01*
X135007815Y-78540000D01*
X135036487Y-78831111D01*
X135121401Y-79111034D01*
X135259294Y-79369014D01*
X135444866Y-79595134D01*
X135670986Y-79780706D01*
X135725791Y-79810000D01*
X135670986Y-79839294D01*
X135444866Y-80024866D01*
X135259294Y-80250986D01*
X135121401Y-80508966D01*
X135036487Y-80788889D01*
X135007815Y-81080000D01*
X135010604Y-81108315D01*
X130885000Y-76982711D01*
X130885000Y-76783589D01*
X130831775Y-76516011D01*
X130727371Y-76263957D01*
X130575799Y-76037114D01*
X130382886Y-75844201D01*
X130156043Y-75692629D01*
X129903989Y-75588225D01*
X129636411Y-75535000D01*
X129363589Y-75535000D01*
X129096011Y-75588225D01*
X128843957Y-75692629D01*
X128617114Y-75844201D01*
X128424201Y-76037114D01*
X128272629Y-76263957D01*
X128168225Y-76516011D01*
X128115000Y-76783589D01*
X128115000Y-77056411D01*
X128168225Y-77323989D01*
X128272629Y-77576043D01*
X128424201Y-77802886D01*
X128617114Y-77995799D01*
X128843957Y-78147371D01*
X128943279Y-78188511D01*
X128901168Y-78203723D01*
X128788137Y-78264140D01*
X128722612Y-78503007D01*
X129500000Y-79280395D01*
X129514143Y-79266253D01*
X129693748Y-79445858D01*
X129679605Y-79460000D01*
X130456993Y-80237388D01*
X130695860Y-80171863D01*
X130811760Y-79924884D01*
X130877250Y-79660040D01*
X130879035Y-79621324D01*
X134202400Y-82944689D01*
X134202401Y-89831458D01*
X134197876Y-89877400D01*
X134215929Y-90060691D01*
X134253638Y-90185000D01*
X134269394Y-90236940D01*
X134356215Y-90399372D01*
X134473057Y-90541744D01*
X134508736Y-90571025D01*
X135023048Y-91085337D01*
X135007815Y-91240000D01*
X135036487Y-91531111D01*
X135121401Y-91811034D01*
X135259294Y-92069014D01*
X135444866Y-92295134D01*
X135670986Y-92480706D01*
X135928966Y-92618599D01*
X136208889Y-92703513D01*
X136427050Y-92725000D01*
X136572950Y-92725000D01*
X136791111Y-92703513D01*
X137071034Y-92618599D01*
X137329014Y-92480706D01*
X137555134Y-92295134D01*
X137740706Y-92069014D01*
X137771584Y-92011244D01*
X137942412Y-92240269D01*
X138158645Y-92435178D01*
X138408748Y-92584157D01*
X138683109Y-92681481D01*
X138913000Y-92560814D01*
X138913000Y-91367000D01*
X138893000Y-91367000D01*
X138893000Y-91113000D01*
X138913000Y-91113000D01*
X138913000Y-91093000D01*
X139167000Y-91093000D01*
X139167000Y-91113000D01*
X139187000Y-91113000D01*
X139187000Y-91367000D01*
X139167000Y-91367000D01*
X139167000Y-92560814D01*
X139396891Y-92681481D01*
X139671252Y-92584157D01*
X139921355Y-92435178D01*
X139953500Y-92406203D01*
X139953501Y-104672598D01*
X133049904Y-97769003D01*
X133026101Y-97739999D01*
X132910376Y-97645026D01*
X132778347Y-97574454D01*
X132635086Y-97530997D01*
X132523433Y-97520000D01*
X132523422Y-97520000D01*
X132486100Y-97516324D01*
X132448778Y-97520000D01*
X125960901Y-97520000D01*
X125938932Y-97478899D01*
X125759608Y-97260392D01*
X125541101Y-97081068D01*
X125408142Y-97010000D01*
X125541101Y-96938932D01*
X125759608Y-96759608D01*
X125938932Y-96541101D01*
X126072182Y-96291808D01*
X126154236Y-96021309D01*
X126181943Y-95740000D01*
X126154236Y-95458691D01*
X126072182Y-95188192D01*
X125938932Y-94938899D01*
X125759608Y-94720392D01*
X125541101Y-94541068D01*
X125408142Y-94470000D01*
X125541101Y-94398932D01*
X125759608Y-94219608D01*
X125938932Y-94001101D01*
X126072182Y-93751808D01*
X126154236Y-93481309D01*
X126181943Y-93200000D01*
X126154236Y-92918691D01*
X126072182Y-92648192D01*
X125938932Y-92398899D01*
X125845162Y-92284639D01*
X130604904Y-87524898D01*
X130633901Y-87501101D01*
X130728874Y-87385376D01*
X130764976Y-87317835D01*
X130897837Y-87184974D01*
X131011105Y-87015456D01*
X131089126Y-86827098D01*
X131128900Y-86627139D01*
X131128900Y-86423261D01*
X131089126Y-86223302D01*
X131011105Y-86034944D01*
X130897837Y-85865426D01*
X130753674Y-85721263D01*
X130584156Y-85607995D01*
X130395798Y-85529974D01*
X130195839Y-85490200D01*
X129991961Y-85490200D01*
X129792002Y-85529974D01*
X129603644Y-85607995D01*
X129434126Y-85721263D01*
X129289963Y-85865426D01*
X129176695Y-86034944D01*
X129098674Y-86223302D01*
X129058900Y-86423261D01*
X129058900Y-86627139D01*
X129098674Y-86827098D01*
X129114615Y-86865583D01*
X127414441Y-88565757D01*
X127392237Y-88532526D01*
X127248074Y-88388363D01*
X127078556Y-88275095D01*
X126890198Y-88197074D01*
X126690239Y-88157300D01*
X126486361Y-88157300D01*
X126286402Y-88197074D01*
X126169586Y-88245461D01*
X126181943Y-88120000D01*
X126154236Y-87838691D01*
X126072182Y-87568192D01*
X125938932Y-87318899D01*
X125759608Y-87100392D01*
X125541101Y-86921068D01*
X125408142Y-86850000D01*
X125541101Y-86778932D01*
X125759608Y-86599608D01*
X125938932Y-86381101D01*
X125964139Y-86333942D01*
X126014286Y-86329003D01*
X126157547Y-86285546D01*
X126289576Y-86214974D01*
X126405301Y-86120001D01*
X126500274Y-86004276D01*
X126570846Y-85872247D01*
X126614303Y-85728986D01*
X126625300Y-85617333D01*
X126628977Y-85580000D01*
X126625300Y-85542667D01*
X126625300Y-84874201D01*
X128298590Y-83200911D01*
X128298815Y-83201185D01*
X128395506Y-83280537D01*
X128505820Y-83339502D01*
X128625518Y-83375812D01*
X128750000Y-83388072D01*
X130250000Y-83388072D01*
X130374482Y-83375812D01*
X130494180Y-83339502D01*
X130604494Y-83280537D01*
X130701185Y-83201185D01*
X130780537Y-83104494D01*
X130839502Y-82994180D01*
X130875812Y-82874482D01*
X130888072Y-82750000D01*
X130888072Y-81250000D01*
X130875812Y-81125518D01*
X130839502Y-81005820D01*
X130780537Y-80895506D01*
X130701185Y-80798815D01*
X130604494Y-80719463D01*
X130494180Y-80660498D01*
X130374482Y-80624188D01*
X130250000Y-80611928D01*
X130223914Y-80611928D01*
X130277388Y-80416993D01*
X129500000Y-79639605D01*
X128722612Y-80416993D01*
X128776086Y-80611928D01*
X128750000Y-80611928D01*
X128625518Y-80624188D01*
X128505820Y-80660498D01*
X128395506Y-80719463D01*
X128298815Y-80798815D01*
X128219463Y-80895506D01*
X128160498Y-81005820D01*
X128124188Y-81125518D01*
X128111928Y-81250000D01*
X128111928Y-81305425D01*
X128000424Y-81365026D01*
X127884699Y-81459999D01*
X127860901Y-81488997D01*
X126167963Y-83181935D01*
X126181943Y-83040000D01*
X126154236Y-82758691D01*
X126072182Y-82488192D01*
X125938932Y-82238899D01*
X125759608Y-82020392D01*
X125541101Y-81841068D01*
X125408142Y-81770000D01*
X125541101Y-81698932D01*
X125759608Y-81519608D01*
X125938932Y-81301101D01*
X126072182Y-81051808D01*
X126154236Y-80781309D01*
X126181943Y-80500000D01*
X126154236Y-80218691D01*
X126072182Y-79948192D01*
X125938932Y-79698899D01*
X125802366Y-79532492D01*
X128110188Y-79532492D01*
X128151035Y-79802238D01*
X128243723Y-80058832D01*
X128304140Y-80171863D01*
X128543007Y-80237388D01*
X129320395Y-79460000D01*
X128543007Y-78682612D01*
X128304140Y-78748137D01*
X128188240Y-78995116D01*
X128122750Y-79259960D01*
X128110188Y-79532492D01*
X125802366Y-79532492D01*
X125759608Y-79480392D01*
X125541101Y-79301068D01*
X125291808Y-79167818D01*
X125021309Y-79085764D01*
X124810492Y-79065000D01*
X124669508Y-79065000D01*
X124458691Y-79085764D01*
X124188192Y-79167818D01*
X123938899Y-79301068D01*
X123720392Y-79480392D01*
X123541068Y-79698899D01*
X123407818Y-79948192D01*
X123325764Y-80218691D01*
X123298057Y-80500000D01*
X123325764Y-80781309D01*
X123407818Y-81051808D01*
X123541068Y-81301101D01*
X123720392Y-81519608D01*
X123938899Y-81698932D01*
X124071858Y-81770000D01*
X123938899Y-81841068D01*
X123720392Y-82020392D01*
X123541068Y-82238899D01*
X123407818Y-82488192D01*
X123325764Y-82758691D01*
X123298057Y-83040000D01*
X123325764Y-83321309D01*
X123407818Y-83591808D01*
X123541068Y-83841101D01*
X123720392Y-84059608D01*
X123938899Y-84238932D01*
X124071858Y-84310000D01*
X123938899Y-84381068D01*
X123720392Y-84560392D01*
X123541068Y-84778899D01*
X123407818Y-85028192D01*
X123325764Y-85298691D01*
X123298057Y-85580000D01*
X123325764Y-85861309D01*
X123407818Y-86131808D01*
X123541068Y-86381101D01*
X123720392Y-86599608D01*
X123938899Y-86778932D01*
X124071858Y-86850000D01*
X123938899Y-86921068D01*
X123720392Y-87100392D01*
X123541068Y-87318899D01*
X123407818Y-87568192D01*
X123325764Y-87838691D01*
X123298057Y-88120000D01*
X123325764Y-88401309D01*
X123407818Y-88671808D01*
X123541068Y-88921101D01*
X123629474Y-89028824D01*
X119950623Y-92707675D01*
X119838737Y-92540226D01*
X119694574Y-92396063D01*
X119525056Y-92282795D01*
X119336698Y-92204774D01*
X119136739Y-92165000D01*
X119074602Y-92165000D01*
X115660604Y-88751003D01*
X115636801Y-88721999D01*
X115521076Y-88627026D01*
X115389047Y-88556454D01*
X115245786Y-88512997D01*
X115134133Y-88502000D01*
X115134122Y-88502000D01*
X115096800Y-88498324D01*
X115059478Y-88502000D01*
X110883692Y-88502000D01*
X110914236Y-88401309D01*
X110941943Y-88120000D01*
X110914236Y-87838691D01*
X110832182Y-87568192D01*
X110698932Y-87318899D01*
X110519608Y-87100392D01*
X110301101Y-86921068D01*
X110168142Y-86850000D01*
X110301101Y-86778932D01*
X110519608Y-86599608D01*
X110698932Y-86381101D01*
X110832182Y-86131808D01*
X110914236Y-85861309D01*
X110941943Y-85580000D01*
X110914236Y-85298691D01*
X110832182Y-85028192D01*
X110698932Y-84778899D01*
X110519608Y-84560392D01*
X110301101Y-84381068D01*
X110168142Y-84310000D01*
X110301101Y-84238932D01*
X110519608Y-84059608D01*
X110698932Y-83841101D01*
X110832182Y-83591808D01*
X110914236Y-83321309D01*
X110941943Y-83040000D01*
X110914236Y-82758691D01*
X110832182Y-82488192D01*
X110698932Y-82238899D01*
X110519608Y-82020392D01*
X110406518Y-81927581D01*
X110424482Y-81925812D01*
X110544180Y-81889502D01*
X110654494Y-81830537D01*
X110751185Y-81751185D01*
X110830537Y-81654494D01*
X110889502Y-81544180D01*
X110925812Y-81424482D01*
X110938072Y-81300000D01*
X110935000Y-80785750D01*
X110776250Y-80627000D01*
X109627000Y-80627000D01*
X109627000Y-80647000D01*
X109373000Y-80647000D01*
X109373000Y-80627000D01*
X108223750Y-80627000D01*
X108065000Y-80785750D01*
X108061928Y-81300000D01*
X108074188Y-81424482D01*
X108110498Y-81544180D01*
X108169463Y-81654494D01*
X108248815Y-81751185D01*
X108345506Y-81830537D01*
X108455820Y-81889502D01*
X108575518Y-81925812D01*
X108593482Y-81927581D01*
X108480392Y-82020392D01*
X108301068Y-82238899D01*
X108167818Y-82488192D01*
X108085764Y-82758691D01*
X108058057Y-83040000D01*
X108085764Y-83321309D01*
X108167818Y-83591808D01*
X108301068Y-83841101D01*
X108480392Y-84059608D01*
X108698899Y-84238932D01*
X108831858Y-84310000D01*
X108698899Y-84381068D01*
X108480392Y-84560392D01*
X108301068Y-84778899D01*
X108167818Y-85028192D01*
X108085764Y-85298691D01*
X108058057Y-85580000D01*
X108085764Y-85861309D01*
X108167818Y-86131808D01*
X108301068Y-86381101D01*
X108480392Y-86599608D01*
X108698899Y-86778932D01*
X108831858Y-86850000D01*
X108698899Y-86921068D01*
X108480392Y-87100392D01*
X108301068Y-87318899D01*
X108167818Y-87568192D01*
X108085764Y-87838691D01*
X108058057Y-88120000D01*
X108083955Y-88382941D01*
X107971526Y-88458063D01*
X107827363Y-88602226D01*
X107714095Y-88771744D01*
X107636074Y-88960102D01*
X107596300Y-89160061D01*
X107596300Y-89316698D01*
X103878200Y-85598599D01*
X103878200Y-85334800D01*
X103945539Y-85334800D01*
X104145498Y-85295026D01*
X104333856Y-85217005D01*
X104503374Y-85103737D01*
X104647537Y-84959574D01*
X104760805Y-84790056D01*
X104838826Y-84601698D01*
X104878600Y-84401739D01*
X104878600Y-84197861D01*
X104838826Y-83997902D01*
X104760805Y-83809544D01*
X104647537Y-83640026D01*
X104603600Y-83596089D01*
X104603600Y-83446501D01*
X108063639Y-79986462D01*
X108065000Y-80214250D01*
X108223750Y-80373000D01*
X109373000Y-80373000D01*
X109373000Y-79223750D01*
X109627000Y-79223750D01*
X109627000Y-80373000D01*
X110776250Y-80373000D01*
X110935000Y-80214250D01*
X110938072Y-79700000D01*
X110925812Y-79575518D01*
X110889502Y-79455820D01*
X110830537Y-79345506D01*
X110751185Y-79248815D01*
X110654494Y-79169463D01*
X110544180Y-79110498D01*
X110424482Y-79074188D01*
X110300000Y-79061928D01*
X109785750Y-79065000D01*
X109627000Y-79223750D01*
X109373000Y-79223750D01*
X109214250Y-79065000D01*
X108986462Y-79063639D01*
X112811003Y-75239099D01*
X112840001Y-75215301D01*
X112934974Y-75099576D01*
X113005546Y-74967547D01*
X113049003Y-74824286D01*
X113053246Y-74781205D01*
X113129014Y-74740706D01*
X113355134Y-74555134D01*
X113540706Y-74329014D01*
X113570000Y-74274209D01*
X113599294Y-74329014D01*
X113784866Y-74555134D01*
X114010986Y-74740706D01*
X114268966Y-74878599D01*
X114548889Y-74963513D01*
X114767050Y-74985000D01*
X114912950Y-74985000D01*
X115131111Y-74963513D01*
X115411034Y-74878599D01*
X115669014Y-74740706D01*
X115895134Y-74555134D01*
X116080706Y-74329014D01*
X116110000Y-74274209D01*
X116139294Y-74329014D01*
X116324866Y-74555134D01*
X116550986Y-74740706D01*
X116808966Y-74878599D01*
X117088889Y-74963513D01*
X117307050Y-74985000D01*
X117452950Y-74985000D01*
X117671111Y-74963513D01*
X117951034Y-74878599D01*
X118209014Y-74740706D01*
X118435134Y-74555134D01*
X118620706Y-74329014D01*
X118650000Y-74274209D01*
X118679294Y-74329014D01*
X118864866Y-74555134D01*
X119090986Y-74740706D01*
X119348966Y-74878599D01*
X119628889Y-74963513D01*
X119847050Y-74985000D01*
X119992950Y-74985000D01*
X120211111Y-74963513D01*
X120491034Y-74878599D01*
X120749014Y-74740706D01*
X120975134Y-74555134D01*
X121160706Y-74329014D01*
X121190000Y-74274209D01*
X121219294Y-74329014D01*
X121404866Y-74555134D01*
X121630986Y-74740706D01*
X121888966Y-74878599D01*
X122168889Y-74963513D01*
X122387050Y-74985000D01*
X122532950Y-74985000D01*
X122751111Y-74963513D01*
X123031034Y-74878599D01*
X123289014Y-74740706D01*
X123515134Y-74555134D01*
X123700706Y-74329014D01*
X123838599Y-74071034D01*
X123923513Y-73791111D01*
X123952185Y-73500000D01*
X123923513Y-73208889D01*
X123838599Y-72928966D01*
X123700706Y-72670986D01*
X123515134Y-72444866D01*
X123289014Y-72259294D01*
X123231244Y-72228416D01*
X123460269Y-72057588D01*
X123655178Y-71841355D01*
X123804157Y-71591252D01*
X123901481Y-71316891D01*
X123780814Y-71087000D01*
X122587000Y-71087000D01*
X122587000Y-71107000D01*
X122333000Y-71107000D01*
X122333000Y-71087000D01*
X120047000Y-71087000D01*
X120047000Y-71107000D01*
X119793000Y-71107000D01*
X119793000Y-71087000D01*
X119773000Y-71087000D01*
X119773000Y-70833000D01*
X119793000Y-70833000D01*
X119793000Y-69639845D01*
X120047000Y-69639845D01*
X120047000Y-70833000D01*
X122333000Y-70833000D01*
X122333000Y-69639845D01*
X122587000Y-69639845D01*
X122587000Y-70833000D01*
X123780814Y-70833000D01*
X123901481Y-70603109D01*
X123804157Y-70328748D01*
X123655178Y-70078645D01*
X123460269Y-69862412D01*
X123226920Y-69688359D01*
X122964099Y-69563175D01*
X122816890Y-69518524D01*
X122587000Y-69639845D01*
X122333000Y-69639845D01*
X122103110Y-69518524D01*
X121955901Y-69563175D01*
X121693080Y-69688359D01*
X121459731Y-69862412D01*
X121264822Y-70078645D01*
X121190000Y-70204255D01*
X121115178Y-70078645D01*
X120920269Y-69862412D01*
X120686920Y-69688359D01*
X120424099Y-69563175D01*
X120276890Y-69518524D01*
X120047000Y-69639845D01*
X119793000Y-69639845D01*
X119563110Y-69518524D01*
X119415901Y-69563175D01*
X119153080Y-69688359D01*
X118919731Y-69862412D01*
X118724822Y-70078645D01*
X118655201Y-70195523D01*
X118620706Y-70130986D01*
X118435134Y-69904866D01*
X118209014Y-69719294D01*
X117951034Y-69581401D01*
X117671111Y-69496487D01*
X117452950Y-69475000D01*
X117307050Y-69475000D01*
X117088889Y-69496487D01*
X116808966Y-69581401D01*
X116550986Y-69719294D01*
X116324866Y-69904866D01*
X116139294Y-70130986D01*
X116110000Y-70185791D01*
X116080706Y-70130986D01*
X115895134Y-69904866D01*
X115669014Y-69719294D01*
X115411034Y-69581401D01*
X115131111Y-69496487D01*
X114912950Y-69475000D01*
X114767050Y-69475000D01*
X114548889Y-69496487D01*
X114268966Y-69581401D01*
X114010986Y-69719294D01*
X113784866Y-69904866D01*
X113599294Y-70130986D01*
X113570000Y-70185791D01*
X113540706Y-70130986D01*
X113355134Y-69904866D01*
X113129014Y-69719294D01*
X112871034Y-69581401D01*
X112591111Y-69496487D01*
X112372950Y-69475000D01*
X112227050Y-69475000D01*
X112008889Y-69496487D01*
X111728966Y-69581401D01*
X111470986Y-69719294D01*
X111244866Y-69904866D01*
X111059294Y-70130986D01*
X111030000Y-70185791D01*
X111000706Y-70130986D01*
X110815134Y-69904866D01*
X110589014Y-69719294D01*
X110331034Y-69581401D01*
X110051111Y-69496487D01*
X109832950Y-69475000D01*
X109687050Y-69475000D01*
X109468889Y-69496487D01*
X109188966Y-69581401D01*
X108930986Y-69719294D01*
X108852614Y-69783612D01*
X107829504Y-68760502D01*
X107805701Y-68731499D01*
X107689976Y-68636526D01*
X107557947Y-68565954D01*
X107414686Y-68522497D01*
X107303033Y-68511500D01*
X107303022Y-68511500D01*
X107265700Y-68507824D01*
X107228378Y-68511500D01*
X81803123Y-68511500D01*
X81765800Y-68507824D01*
X81728477Y-68511500D01*
X81728467Y-68511500D01*
X81616814Y-68522497D01*
X81473553Y-68565954D01*
X81341524Y-68636526D01*
X81225799Y-68731499D01*
X81202001Y-68760497D01*
X80182718Y-69779781D01*
X80109014Y-69719294D01*
X79851034Y-69581401D01*
X79571111Y-69496487D01*
X79352950Y-69475000D01*
X79207050Y-69475000D01*
X78988889Y-69496487D01*
X78708966Y-69581401D01*
X78450986Y-69719294D01*
X78224866Y-69904866D01*
X78039294Y-70130986D01*
X78010000Y-70185791D01*
X77980706Y-70130986D01*
X77795134Y-69904866D01*
X77569014Y-69719294D01*
X77311034Y-69581401D01*
X77031111Y-69496487D01*
X76812950Y-69475000D01*
X76667050Y-69475000D01*
X76448889Y-69496487D01*
X76168966Y-69581401D01*
X75910986Y-69719294D01*
X75684866Y-69904866D01*
X75499294Y-70130986D01*
X75470000Y-70185791D01*
X75440706Y-70130986D01*
X75255134Y-69904866D01*
X75029014Y-69719294D01*
X74771034Y-69581401D01*
X74491111Y-69496487D01*
X74272950Y-69475000D01*
X74127050Y-69475000D01*
X73908889Y-69496487D01*
X73628966Y-69581401D01*
X73370986Y-69719294D01*
X73144866Y-69904866D01*
X72959294Y-70130986D01*
X72930000Y-70185791D01*
X72900706Y-70130986D01*
X72715134Y-69904866D01*
X72489014Y-69719294D01*
X72231034Y-69581401D01*
X71951111Y-69496487D01*
X71732950Y-69475000D01*
X71587050Y-69475000D01*
X71368889Y-69496487D01*
X71088966Y-69581401D01*
X70830986Y-69719294D01*
X70604866Y-69904866D01*
X70419294Y-70130986D01*
X70390000Y-70185791D01*
X70360706Y-70130986D01*
X70175134Y-69904866D01*
X69949014Y-69719294D01*
X69691034Y-69581401D01*
X69411111Y-69496487D01*
X69192950Y-69475000D01*
X69047050Y-69475000D01*
X68828889Y-69496487D01*
X68548966Y-69581401D01*
X68290986Y-69719294D01*
X68064866Y-69904866D01*
X67879294Y-70130986D01*
X67850000Y-70185791D01*
X67820706Y-70130986D01*
X67635134Y-69904866D01*
X67409014Y-69719294D01*
X67151034Y-69581401D01*
X66871111Y-69496487D01*
X66652950Y-69475000D01*
X66507050Y-69475000D01*
X66288889Y-69496487D01*
X66008966Y-69581401D01*
X65750986Y-69719294D01*
X65524866Y-69904866D01*
X65339294Y-70130986D01*
X65310000Y-70185791D01*
X65280706Y-70130986D01*
X65095134Y-69904866D01*
X64869014Y-69719294D01*
X64611034Y-69581401D01*
X64331111Y-69496487D01*
X64112950Y-69475000D01*
X63967050Y-69475000D01*
X63748889Y-69496487D01*
X63468966Y-69581401D01*
X63210986Y-69719294D01*
X62984866Y-69904866D01*
X62799294Y-70130986D01*
X62770000Y-70185791D01*
X62740706Y-70130986D01*
X62555134Y-69904866D01*
X62329014Y-69719294D01*
X62071034Y-69581401D01*
X61791111Y-69496487D01*
X61572950Y-69475000D01*
X61427050Y-69475000D01*
X61208889Y-69496487D01*
X60928966Y-69581401D01*
X60670986Y-69719294D01*
X60444866Y-69904866D01*
X60259294Y-70130986D01*
X60121401Y-70388966D01*
X60036487Y-70668889D01*
X60007815Y-70960000D01*
X60036487Y-71251111D01*
X60121401Y-71531034D01*
X60259294Y-71789014D01*
X60444866Y-72015134D01*
X60474687Y-72039607D01*
X60405820Y-72060498D01*
X60295506Y-72119463D01*
X60198815Y-72198815D01*
X60119463Y-72295506D01*
X60060498Y-72405820D01*
X60024188Y-72525518D01*
X60011928Y-72650000D01*
X60011928Y-74350000D01*
X60024188Y-74474482D01*
X60060498Y-74594180D01*
X60119463Y-74704494D01*
X60198815Y-74801185D01*
X60295506Y-74880537D01*
X60405820Y-74939502D01*
X60525518Y-74975812D01*
X60650000Y-74988072D01*
X62350000Y-74988072D01*
X62474482Y-74975812D01*
X62594180Y-74939502D01*
X62704494Y-74880537D01*
X62801185Y-74801185D01*
X62880537Y-74704494D01*
X62939502Y-74594180D01*
X62960393Y-74525313D01*
X62984866Y-74555134D01*
X63210986Y-74740706D01*
X63468966Y-74878599D01*
X63748889Y-74963513D01*
X63967050Y-74985000D01*
X64112950Y-74985000D01*
X64331111Y-74963513D01*
X64611034Y-74878599D01*
X64869014Y-74740706D01*
X65095134Y-74555134D01*
X65280706Y-74329014D01*
X65310000Y-74274209D01*
X65339294Y-74329014D01*
X65524866Y-74555134D01*
X65750986Y-74740706D01*
X66008966Y-74878599D01*
X66288889Y-74963513D01*
X66507050Y-74985000D01*
X66652950Y-74985000D01*
X66871111Y-74963513D01*
X67151034Y-74878599D01*
X67409014Y-74740706D01*
X67635134Y-74555134D01*
X67820706Y-74329014D01*
X67850000Y-74274209D01*
X67879294Y-74329014D01*
X68064866Y-74555134D01*
X68290986Y-74740706D01*
X68548966Y-74878599D01*
X68828889Y-74963513D01*
X69047050Y-74985000D01*
X69192950Y-74985000D01*
X69411111Y-74963513D01*
X69691034Y-74878599D01*
X69949014Y-74740706D01*
X70175134Y-74555134D01*
X70360706Y-74329014D01*
X70390000Y-74274209D01*
X70419294Y-74329014D01*
X70604866Y-74555134D01*
X70830986Y-74740706D01*
X71088966Y-74878599D01*
X71368889Y-74963513D01*
X71587050Y-74985000D01*
X71732950Y-74985000D01*
X71951111Y-74963513D01*
X72202782Y-74887169D01*
X72250134Y-74944866D01*
X72295300Y-74999901D01*
X72324298Y-75023699D01*
X73173599Y-75873000D01*
X42660000Y-75873000D01*
X42660000Y-65279872D01*
X45265000Y-65279872D01*
X45265000Y-65720128D01*
X45350890Y-66151925D01*
X45519369Y-66558669D01*
X45763962Y-66924729D01*
X46075271Y-67236038D01*
X46441331Y-67480631D01*
X46848075Y-67649110D01*
X47279872Y-67735000D01*
X47720128Y-67735000D01*
X48151925Y-67649110D01*
X48558669Y-67480631D01*
X48924729Y-67236038D01*
X49236038Y-66924729D01*
X49480631Y-66558669D01*
X49649110Y-66151925D01*
X49735000Y-65720128D01*
X49735000Y-65279872D01*
X134265000Y-65279872D01*
X134265000Y-65720128D01*
X134350890Y-66151925D01*
X134519369Y-66558669D01*
X134763962Y-66924729D01*
X135075271Y-67236038D01*
X135441331Y-67480631D01*
X135848075Y-67649110D01*
X136279872Y-67735000D01*
X136720128Y-67735000D01*
X137151925Y-67649110D01*
X137558669Y-67480631D01*
X137924729Y-67236038D01*
X138236038Y-66924729D01*
X138480631Y-66558669D01*
X138649110Y-66151925D01*
X138735000Y-65720128D01*
X138735000Y-65279872D01*
X138649110Y-64848075D01*
X138480631Y-64441331D01*
X138236038Y-64075271D01*
X137924729Y-63763962D01*
X137558669Y-63519369D01*
X137151925Y-63350890D01*
X136720128Y-63265000D01*
X136279872Y-63265000D01*
X135848075Y-63350890D01*
X135441331Y-63519369D01*
X135075271Y-63763962D01*
X134763962Y-64075271D01*
X134519369Y-64441331D01*
X134350890Y-64848075D01*
X134265000Y-65279872D01*
X49735000Y-65279872D01*
X49649110Y-64848075D01*
X49480631Y-64441331D01*
X49236038Y-64075271D01*
X48924729Y-63763962D01*
X48558669Y-63519369D01*
X48151925Y-63350890D01*
X47720128Y-63265000D01*
X47279872Y-63265000D01*
X46848075Y-63350890D01*
X46441331Y-63519369D01*
X46075271Y-63763962D01*
X45763962Y-64075271D01*
X45519369Y-64441331D01*
X45350890Y-64848075D01*
X45265000Y-65279872D01*
X42660000Y-65279872D01*
X42660000Y-61660000D01*
X141340000Y-61660000D01*
X141340000Y-75517199D01*
X141340000Y-75517199D01*
G37*
X141340000Y-75517199D02*
X140136504Y-74313703D01*
X140112701Y-74284699D01*
X139996976Y-74189726D01*
X139864947Y-74119154D01*
X139721686Y-74075697D01*
X139610033Y-74064700D01*
X139610022Y-74064700D01*
X139572700Y-74061024D01*
X139535378Y-74064700D01*
X138520522Y-74064700D01*
X138483199Y-74061024D01*
X138445876Y-74064700D01*
X138445867Y-74064700D01*
X138334214Y-74075697D01*
X138216182Y-74111501D01*
X138190953Y-74119154D01*
X138058923Y-74189726D01*
X138028372Y-74214799D01*
X137943199Y-74284699D01*
X137919401Y-74313698D01*
X137645284Y-74587814D01*
X137594180Y-74560498D01*
X137474482Y-74524188D01*
X137350000Y-74511928D01*
X135650000Y-74511928D01*
X135525518Y-74524188D01*
X135405820Y-74560498D01*
X135295506Y-74619463D01*
X135198815Y-74698815D01*
X135119463Y-74795506D01*
X135060498Y-74905820D01*
X135024188Y-75025518D01*
X135011928Y-75150000D01*
X135011928Y-76850000D01*
X135024188Y-76974482D01*
X135060498Y-77094180D01*
X135119463Y-77204494D01*
X135198815Y-77301185D01*
X135295506Y-77380537D01*
X135405820Y-77439502D01*
X135474687Y-77460393D01*
X135444866Y-77484866D01*
X135259294Y-77710986D01*
X135121401Y-77968966D01*
X135036487Y-78248889D01*
X135007815Y-78540000D01*
X135036487Y-78831111D01*
X135121401Y-79111034D01*
X135259294Y-79369014D01*
X135444866Y-79595134D01*
X135670986Y-79780706D01*
X135725791Y-79810000D01*
X135670986Y-79839294D01*
X135444866Y-80024866D01*
X135259294Y-80250986D01*
X135121401Y-80508966D01*
X135036487Y-80788889D01*
X135007815Y-81080000D01*
X135010604Y-81108315D01*
X130885000Y-76982711D01*
X130885000Y-76783589D01*
X130831775Y-76516011D01*
X130727371Y-76263957D01*
X130575799Y-76037114D01*
X130382886Y-75844201D01*
X130156043Y-75692629D01*
X129903989Y-75588225D01*
X129636411Y-75535000D01*
X129363589Y-75535000D01*
X129096011Y-75588225D01*
X128843957Y-75692629D01*
X128617114Y-75844201D01*
X128424201Y-76037114D01*
X128272629Y-76263957D01*
X128168225Y-76516011D01*
X128115000Y-76783589D01*
X128115000Y-77056411D01*
X128168225Y-77323989D01*
X128272629Y-77576043D01*
X128424201Y-77802886D01*
X128617114Y-77995799D01*
X128843957Y-78147371D01*
X128943279Y-78188511D01*
X128901168Y-78203723D01*
X128788137Y-78264140D01*
X128722612Y-78503007D01*
X129500000Y-79280395D01*
X129514143Y-79266253D01*
X129693748Y-79445858D01*
X129679605Y-79460000D01*
X130456993Y-80237388D01*
X130695860Y-80171863D01*
X130811760Y-79924884D01*
X130877250Y-79660040D01*
X130879035Y-79621324D01*
X134202400Y-82944689D01*
X134202401Y-89831458D01*
X134197876Y-89877400D01*
X134215929Y-90060691D01*
X134253638Y-90185000D01*
X134269394Y-90236940D01*
X134356215Y-90399372D01*
X134473057Y-90541744D01*
X134508736Y-90571025D01*
X135023048Y-91085337D01*
X135007815Y-91240000D01*
X135036487Y-91531111D01*
X135121401Y-91811034D01*
X135259294Y-92069014D01*
X135444866Y-92295134D01*
X135670986Y-92480706D01*
X135928966Y-92618599D01*
X136208889Y-92703513D01*
X136427050Y-92725000D01*
X136572950Y-92725000D01*
X136791111Y-92703513D01*
X137071034Y-92618599D01*
X137329014Y-92480706D01*
X137555134Y-92295134D01*
X137740706Y-92069014D01*
X137771584Y-92011244D01*
X137942412Y-92240269D01*
X138158645Y-92435178D01*
X138408748Y-92584157D01*
X138683109Y-92681481D01*
X138913000Y-92560814D01*
X138913000Y-91367000D01*
X138893000Y-91367000D01*
X138893000Y-91113000D01*
X138913000Y-91113000D01*
X138913000Y-91093000D01*
X139167000Y-91093000D01*
X139167000Y-91113000D01*
X139187000Y-91113000D01*
X139187000Y-91367000D01*
X139167000Y-91367000D01*
X139167000Y-92560814D01*
X139396891Y-92681481D01*
X139671252Y-92584157D01*
X139921355Y-92435178D01*
X139953500Y-92406203D01*
X139953501Y-104672598D01*
X133049904Y-97769003D01*
X133026101Y-97739999D01*
X132910376Y-97645026D01*
X132778347Y-97574454D01*
X132635086Y-97530997D01*
X132523433Y-97520000D01*
X132523422Y-97520000D01*
X132486100Y-97516324D01*
X132448778Y-97520000D01*
X125960901Y-97520000D01*
X125938932Y-97478899D01*
X125759608Y-97260392D01*
X125541101Y-97081068D01*
X125408142Y-97010000D01*
X125541101Y-96938932D01*
X125759608Y-96759608D01*
X125938932Y-96541101D01*
X126072182Y-96291808D01*
X126154236Y-96021309D01*
X126181943Y-95740000D01*
X126154236Y-95458691D01*
X126072182Y-95188192D01*
X125938932Y-94938899D01*
X125759608Y-94720392D01*
X125541101Y-94541068D01*
X125408142Y-94470000D01*
X125541101Y-94398932D01*
X125759608Y-94219608D01*
X125938932Y-94001101D01*
X126072182Y-93751808D01*
X126154236Y-93481309D01*
X126181943Y-93200000D01*
X126154236Y-92918691D01*
X126072182Y-92648192D01*
X125938932Y-92398899D01*
X125845162Y-92284639D01*
X130604904Y-87524898D01*
X130633901Y-87501101D01*
X130728874Y-87385376D01*
X130764976Y-87317835D01*
X130897837Y-87184974D01*
X131011105Y-87015456D01*
X131089126Y-86827098D01*
X131128900Y-86627139D01*
X131128900Y-86423261D01*
X131089126Y-86223302D01*
X131011105Y-86034944D01*
X130897837Y-85865426D01*
X130753674Y-85721263D01*
X130584156Y-85607995D01*
X130395798Y-85529974D01*
X130195839Y-85490200D01*
X129991961Y-85490200D01*
X129792002Y-85529974D01*
X129603644Y-85607995D01*
X129434126Y-85721263D01*
X129289963Y-85865426D01*
X129176695Y-86034944D01*
X129098674Y-86223302D01*
X129058900Y-86423261D01*
X129058900Y-86627139D01*
X129098674Y-86827098D01*
X129114615Y-86865583D01*
X127414441Y-88565757D01*
X127392237Y-88532526D01*
X127248074Y-88388363D01*
X127078556Y-88275095D01*
X126890198Y-88197074D01*
X126690239Y-88157300D01*
X126486361Y-88157300D01*
X126286402Y-88197074D01*
X126169586Y-88245461D01*
X126181943Y-88120000D01*
X126154236Y-87838691D01*
X126072182Y-87568192D01*
X125938932Y-87318899D01*
X125759608Y-87100392D01*
X125541101Y-86921068D01*
X125408142Y-86850000D01*
X125541101Y-86778932D01*
X125759608Y-86599608D01*
X125938932Y-86381101D01*
X125964139Y-86333942D01*
X126014286Y-86329003D01*
X126157547Y-86285546D01*
X126289576Y-86214974D01*
X126405301Y-86120001D01*
X126500274Y-86004276D01*
X126570846Y-85872247D01*
X126614303Y-85728986D01*
X126625300Y-85617333D01*
X126628977Y-85580000D01*
X126625300Y-85542667D01*
X126625300Y-84874201D01*
X128298590Y-83200911D01*
X128298815Y-83201185D01*
X128395506Y-83280537D01*
X128505820Y-83339502D01*
X128625518Y-83375812D01*
X128750000Y-83388072D01*
X130250000Y-83388072D01*
X130374482Y-83375812D01*
X130494180Y-83339502D01*
X130604494Y-83280537D01*
X130701185Y-83201185D01*
X130780537Y-83104494D01*
X130839502Y-82994180D01*
X130875812Y-82874482D01*
X130888072Y-82750000D01*
X130888072Y-81250000D01*
X130875812Y-81125518D01*
X130839502Y-81005820D01*
X130780537Y-80895506D01*
X130701185Y-80798815D01*
X130604494Y-80719463D01*
X130494180Y-80660498D01*
X130374482Y-80624188D01*
X130250000Y-80611928D01*
X130223914Y-80611928D01*
X130277388Y-80416993D01*
X129500000Y-79639605D01*
X128722612Y-80416993D01*
X128776086Y-80611928D01*
X128750000Y-80611928D01*
X128625518Y-80624188D01*
X128505820Y-80660498D01*
X128395506Y-80719463D01*
X128298815Y-80798815D01*
X128219463Y-80895506D01*
X128160498Y-81005820D01*
X128124188Y-81125518D01*
X128111928Y-81250000D01*
X128111928Y-81305425D01*
X128000424Y-81365026D01*
X127884699Y-81459999D01*
X127860901Y-81488997D01*
X126167963Y-83181935D01*
X126181943Y-83040000D01*
X126154236Y-82758691D01*
X126072182Y-82488192D01*
X125938932Y-82238899D01*
X125759608Y-82020392D01*
X125541101Y-81841068D01*
X125408142Y-81770000D01*
X125541101Y-81698932D01*
X125759608Y-81519608D01*
X125938932Y-81301101D01*
X126072182Y-81051808D01*
X126154236Y-80781309D01*
X126181943Y-80500000D01*
X126154236Y-80218691D01*
X126072182Y-79948192D01*
X125938932Y-79698899D01*
X125802366Y-79532492D01*
X128110188Y-79532492D01*
X128151035Y-79802238D01*
X128243723Y-80058832D01*
X128304140Y-80171863D01*
X128543007Y-80237388D01*
X129320395Y-79460000D01*
X128543007Y-78682612D01*
X128304140Y-78748137D01*
X128188240Y-78995116D01*
X128122750Y-79259960D01*
X128110188Y-79532492D01*
X125802366Y-79532492D01*
X125759608Y-79480392D01*
X125541101Y-79301068D01*
X125291808Y-79167818D01*
X125021309Y-79085764D01*
X124810492Y-79065000D01*
X124669508Y-79065000D01*
X124458691Y-79085764D01*
X124188192Y-79167818D01*
X123938899Y-79301068D01*
X123720392Y-79480392D01*
X123541068Y-79698899D01*
X123407818Y-79948192D01*
X123325764Y-80218691D01*
X123298057Y-80500000D01*
X123325764Y-80781309D01*
X123407818Y-81051808D01*
X123541068Y-81301101D01*
X123720392Y-81519608D01*
X123938899Y-81698932D01*
X124071858Y-81770000D01*
X123938899Y-81841068D01*
X123720392Y-82020392D01*
X123541068Y-82238899D01*
X123407818Y-82488192D01*
X123325764Y-82758691D01*
X123298057Y-83040000D01*
X123325764Y-83321309D01*
X123407818Y-83591808D01*
X123541068Y-83841101D01*
X123720392Y-84059608D01*
X123938899Y-84238932D01*
X124071858Y-84310000D01*
X123938899Y-84381068D01*
X123720392Y-84560392D01*
X123541068Y-84778899D01*
X123407818Y-85028192D01*
X123325764Y-85298691D01*
X123298057Y-85580000D01*
X123325764Y-85861309D01*
X123407818Y-86131808D01*
X123541068Y-86381101D01*
X123720392Y-86599608D01*
X123938899Y-86778932D01*
X124071858Y-86850000D01*
X123938899Y-86921068D01*
X123720392Y-87100392D01*
X123541068Y-87318899D01*
X123407818Y-87568192D01*
X123325764Y-87838691D01*
X123298057Y-88120000D01*
X123325764Y-88401309D01*
X123407818Y-88671808D01*
X123541068Y-88921101D01*
X123629474Y-89028824D01*
X119950623Y-92707675D01*
X119838737Y-92540226D01*
X119694574Y-92396063D01*
X119525056Y-92282795D01*
X119336698Y-92204774D01*
X119136739Y-92165000D01*
X119074602Y-92165000D01*
X115660604Y-88751003D01*
X115636801Y-88721999D01*
X115521076Y-88627026D01*
X115389047Y-88556454D01*
X115245786Y-88512997D01*
X115134133Y-88502000D01*
X115134122Y-88502000D01*
X115096800Y-88498324D01*
X115059478Y-88502000D01*
X110883692Y-88502000D01*
X110914236Y-88401309D01*
X110941943Y-88120000D01*
X110914236Y-87838691D01*
X110832182Y-87568192D01*
X110698932Y-87318899D01*
X110519608Y-87100392D01*
X110301101Y-86921068D01*
X110168142Y-86850000D01*
X110301101Y-86778932D01*
X110519608Y-86599608D01*
X110698932Y-86381101D01*
X110832182Y-86131808D01*
X110914236Y-85861309D01*
X110941943Y-85580000D01*
X110914236Y-85298691D01*
X110832182Y-85028192D01*
X110698932Y-84778899D01*
X110519608Y-84560392D01*
X110301101Y-84381068D01*
X110168142Y-84310000D01*
X110301101Y-84238932D01*
X110519608Y-84059608D01*
X110698932Y-83841101D01*
X110832182Y-83591808D01*
X110914236Y-83321309D01*
X110941943Y-83040000D01*
X110914236Y-82758691D01*
X110832182Y-82488192D01*
X110698932Y-82238899D01*
X110519608Y-82020392D01*
X110406518Y-81927581D01*
X110424482Y-81925812D01*
X110544180Y-81889502D01*
X110654494Y-81830537D01*
X110751185Y-81751185D01*
X110830537Y-81654494D01*
X110889502Y-81544180D01*
X110925812Y-81424482D01*
X110938072Y-81300000D01*
X110935000Y-80785750D01*
X110776250Y-80627000D01*
X109627000Y-80627000D01*
X109627000Y-80647000D01*
X109373000Y-80647000D01*
X109373000Y-80627000D01*
X108223750Y-80627000D01*
X108065000Y-80785750D01*
X108061928Y-81300000D01*
X108074188Y-81424482D01*
X108110498Y-81544180D01*
X108169463Y-81654494D01*
X108248815Y-81751185D01*
X108345506Y-81830537D01*
X108455820Y-81889502D01*
X108575518Y-81925812D01*
X108593482Y-81927581D01*
X108480392Y-82020392D01*
X108301068Y-82238899D01*
X108167818Y-82488192D01*
X108085764Y-82758691D01*
X108058057Y-83040000D01*
X108085764Y-83321309D01*
X108167818Y-83591808D01*
X108301068Y-83841101D01*
X108480392Y-84059608D01*
X108698899Y-84238932D01*
X108831858Y-84310000D01*
X108698899Y-84381068D01*
X108480392Y-84560392D01*
X108301068Y-84778899D01*
X108167818Y-85028192D01*
X108085764Y-85298691D01*
X108058057Y-85580000D01*
X108085764Y-85861309D01*
X108167818Y-86131808D01*
X108301068Y-86381101D01*
X108480392Y-86599608D01*
X108698899Y-86778932D01*
X108831858Y-86850000D01*
X108698899Y-86921068D01*
X108480392Y-87100392D01*
X108301068Y-87318899D01*
X108167818Y-87568192D01*
X108085764Y-87838691D01*
X108058057Y-88120000D01*
X108083955Y-88382941D01*
X107971526Y-88458063D01*
X107827363Y-88602226D01*
X107714095Y-88771744D01*
X107636074Y-88960102D01*
X107596300Y-89160061D01*
X107596300Y-89316698D01*
X103878200Y-85598599D01*
X103878200Y-85334800D01*
X103945539Y-85334800D01*
X104145498Y-85295026D01*
X104333856Y-85217005D01*
X104503374Y-85103737D01*
X104647537Y-84959574D01*
X104760805Y-84790056D01*
X104838826Y-84601698D01*
X104878600Y-84401739D01*
X104878600Y-84197861D01*
X104838826Y-83997902D01*
X104760805Y-83809544D01*
X104647537Y-83640026D01*
X104603600Y-83596089D01*
X104603600Y-83446501D01*
X108063639Y-79986462D01*
X108065000Y-80214250D01*
X108223750Y-80373000D01*
X109373000Y-80373000D01*
X109373000Y-79223750D01*
X109627000Y-79223750D01*
X109627000Y-80373000D01*
X110776250Y-80373000D01*
X110935000Y-80214250D01*
X110938072Y-79700000D01*
X110925812Y-79575518D01*
X110889502Y-79455820D01*
X110830537Y-79345506D01*
X110751185Y-79248815D01*
X110654494Y-79169463D01*
X110544180Y-79110498D01*
X110424482Y-79074188D01*
X110300000Y-79061928D01*
X109785750Y-79065000D01*
X109627000Y-79223750D01*
X109373000Y-79223750D01*
X109214250Y-79065000D01*
X108986462Y-79063639D01*
X112811003Y-75239099D01*
X112840001Y-75215301D01*
X112934974Y-75099576D01*
X113005546Y-74967547D01*
X113049003Y-74824286D01*
X113053246Y-74781205D01*
X113129014Y-74740706D01*
X113355134Y-74555134D01*
X113540706Y-74329014D01*
X113570000Y-74274209D01*
X113599294Y-74329014D01*
X113784866Y-74555134D01*
X114010986Y-74740706D01*
X114268966Y-74878599D01*
X114548889Y-74963513D01*
X114767050Y-74985000D01*
X114912950Y-74985000D01*
X115131111Y-74963513D01*
X115411034Y-74878599D01*
X115669014Y-74740706D01*
X115895134Y-74555134D01*
X116080706Y-74329014D01*
X116110000Y-74274209D01*
X116139294Y-74329014D01*
X116324866Y-74555134D01*
X116550986Y-74740706D01*
X116808966Y-74878599D01*
X117088889Y-74963513D01*
X117307050Y-74985000D01*
X117452950Y-74985000D01*
X117671111Y-74963513D01*
X117951034Y-74878599D01*
X118209014Y-74740706D01*
X118435134Y-74555134D01*
X118620706Y-74329014D01*
X118650000Y-74274209D01*
X118679294Y-74329014D01*
X118864866Y-74555134D01*
X119090986Y-74740706D01*
X119348966Y-74878599D01*
X119628889Y-74963513D01*
X119847050Y-74985000D01*
X119992950Y-74985000D01*
X120211111Y-74963513D01*
X120491034Y-74878599D01*
X120749014Y-74740706D01*
X120975134Y-74555134D01*
X121160706Y-74329014D01*
X121190000Y-74274209D01*
X121219294Y-74329014D01*
X121404866Y-74555134D01*
X121630986Y-74740706D01*
X121888966Y-74878599D01*
X122168889Y-74963513D01*
X122387050Y-74985000D01*
X122532950Y-74985000D01*
X122751111Y-74963513D01*
X123031034Y-74878599D01*
X123289014Y-74740706D01*
X123515134Y-74555134D01*
X123700706Y-74329014D01*
X123838599Y-74071034D01*
X123923513Y-73791111D01*
X123952185Y-73500000D01*
X123923513Y-73208889D01*
X123838599Y-72928966D01*
X123700706Y-72670986D01*
X123515134Y-72444866D01*
X123289014Y-72259294D01*
X123231244Y-72228416D01*
X123460269Y-72057588D01*
X123655178Y-71841355D01*
X123804157Y-71591252D01*
X123901481Y-71316891D01*
X123780814Y-71087000D01*
X122587000Y-71087000D01*
X122587000Y-71107000D01*
X122333000Y-71107000D01*
X122333000Y-71087000D01*
X120047000Y-71087000D01*
X120047000Y-71107000D01*
X119793000Y-71107000D01*
X119793000Y-71087000D01*
X119773000Y-71087000D01*
X119773000Y-70833000D01*
X119793000Y-70833000D01*
X119793000Y-69639845D01*
X120047000Y-69639845D01*
X120047000Y-70833000D01*
X122333000Y-70833000D01*
X122333000Y-69639845D01*
X122587000Y-69639845D01*
X122587000Y-70833000D01*
X123780814Y-70833000D01*
X123901481Y-70603109D01*
X123804157Y-70328748D01*
X123655178Y-70078645D01*
X123460269Y-69862412D01*
X123226920Y-69688359D01*
X122964099Y-69563175D01*
X122816890Y-69518524D01*
X122587000Y-69639845D01*
X122333000Y-69639845D01*
X122103110Y-69518524D01*
X121955901Y-69563175D01*
X121693080Y-69688359D01*
X121459731Y-69862412D01*
X121264822Y-70078645D01*
X121190000Y-70204255D01*
X121115178Y-70078645D01*
X120920269Y-69862412D01*
X120686920Y-69688359D01*
X120424099Y-69563175D01*
X120276890Y-69518524D01*
X120047000Y-69639845D01*
X119793000Y-69639845D01*
X119563110Y-69518524D01*
X119415901Y-69563175D01*
X119153080Y-69688359D01*
X118919731Y-69862412D01*
X118724822Y-70078645D01*
X118655201Y-70195523D01*
X118620706Y-70130986D01*
X118435134Y-69904866D01*
X118209014Y-69719294D01*
X117951034Y-69581401D01*
X117671111Y-69496487D01*
X117452950Y-69475000D01*
X117307050Y-69475000D01*
X117088889Y-69496487D01*
X116808966Y-69581401D01*
X116550986Y-69719294D01*
X116324866Y-69904866D01*
X116139294Y-70130986D01*
X116110000Y-70185791D01*
X116080706Y-70130986D01*
X115895134Y-69904866D01*
X115669014Y-69719294D01*
X115411034Y-69581401D01*
X115131111Y-69496487D01*
X114912950Y-69475000D01*
X114767050Y-69475000D01*
X114548889Y-69496487D01*
X114268966Y-69581401D01*
X114010986Y-69719294D01*
X113784866Y-69904866D01*
X113599294Y-70130986D01*
X113570000Y-70185791D01*
X113540706Y-70130986D01*
X113355134Y-69904866D01*
X113129014Y-69719294D01*
X112871034Y-69581401D01*
X112591111Y-69496487D01*
X112372950Y-69475000D01*
X112227050Y-69475000D01*
X112008889Y-69496487D01*
X111728966Y-69581401D01*
X111470986Y-69719294D01*
X111244866Y-69904866D01*
X111059294Y-70130986D01*
X111030000Y-70185791D01*
X111000706Y-70130986D01*
X110815134Y-69904866D01*
X110589014Y-69719294D01*
X110331034Y-69581401D01*
X110051111Y-69496487D01*
X109832950Y-69475000D01*
X109687050Y-69475000D01*
X109468889Y-69496487D01*
X109188966Y-69581401D01*
X108930986Y-69719294D01*
X108852614Y-69783612D01*
X107829504Y-68760502D01*
X107805701Y-68731499D01*
X107689976Y-68636526D01*
X107557947Y-68565954D01*
X107414686Y-68522497D01*
X107303033Y-68511500D01*
X107303022Y-68511500D01*
X107265700Y-68507824D01*
X107228378Y-68511500D01*
X81803123Y-68511500D01*
X81765800Y-68507824D01*
X81728477Y-68511500D01*
X81728467Y-68511500D01*
X81616814Y-68522497D01*
X81473553Y-68565954D01*
X81341524Y-68636526D01*
X81225799Y-68731499D01*
X81202001Y-68760497D01*
X80182718Y-69779781D01*
X80109014Y-69719294D01*
X79851034Y-69581401D01*
X79571111Y-69496487D01*
X79352950Y-69475000D01*
X79207050Y-69475000D01*
X78988889Y-69496487D01*
X78708966Y-69581401D01*
X78450986Y-69719294D01*
X78224866Y-69904866D01*
X78039294Y-70130986D01*
X78010000Y-70185791D01*
X77980706Y-70130986D01*
X77795134Y-69904866D01*
X77569014Y-69719294D01*
X77311034Y-69581401D01*
X77031111Y-69496487D01*
X76812950Y-69475000D01*
X76667050Y-69475000D01*
X76448889Y-69496487D01*
X76168966Y-69581401D01*
X75910986Y-69719294D01*
X75684866Y-69904866D01*
X75499294Y-70130986D01*
X75470000Y-70185791D01*
X75440706Y-70130986D01*
X75255134Y-69904866D01*
X75029014Y-69719294D01*
X74771034Y-69581401D01*
X74491111Y-69496487D01*
X74272950Y-69475000D01*
X74127050Y-69475000D01*
X73908889Y-69496487D01*
X73628966Y-69581401D01*
X73370986Y-69719294D01*
X73144866Y-69904866D01*
X72959294Y-70130986D01*
X72930000Y-70185791D01*
X72900706Y-70130986D01*
X72715134Y-69904866D01*
X72489014Y-69719294D01*
X72231034Y-69581401D01*
X71951111Y-69496487D01*
X71732950Y-69475000D01*
X71587050Y-69475000D01*
X71368889Y-69496487D01*
X71088966Y-69581401D01*
X70830986Y-69719294D01*
X70604866Y-69904866D01*
X70419294Y-70130986D01*
X70390000Y-70185791D01*
X70360706Y-70130986D01*
X70175134Y-69904866D01*
X69949014Y-69719294D01*
X69691034Y-69581401D01*
X69411111Y-69496487D01*
X69192950Y-69475000D01*
X69047050Y-69475000D01*
X68828889Y-69496487D01*
X68548966Y-69581401D01*
X68290986Y-69719294D01*
X68064866Y-69904866D01*
X67879294Y-70130986D01*
X67850000Y-70185791D01*
X67820706Y-70130986D01*
X67635134Y-69904866D01*
X67409014Y-69719294D01*
X67151034Y-69581401D01*
X66871111Y-69496487D01*
X66652950Y-69475000D01*
X66507050Y-69475000D01*
X66288889Y-69496487D01*
X66008966Y-69581401D01*
X65750986Y-69719294D01*
X65524866Y-69904866D01*
X65339294Y-70130986D01*
X65310000Y-70185791D01*
X65280706Y-70130986D01*
X65095134Y-69904866D01*
X64869014Y-69719294D01*
X64611034Y-69581401D01*
X64331111Y-69496487D01*
X64112950Y-69475000D01*
X63967050Y-69475000D01*
X63748889Y-69496487D01*
X63468966Y-69581401D01*
X63210986Y-69719294D01*
X62984866Y-69904866D01*
X62799294Y-70130986D01*
X62770000Y-70185791D01*
X62740706Y-70130986D01*
X62555134Y-69904866D01*
X62329014Y-69719294D01*
X62071034Y-69581401D01*
X61791111Y-69496487D01*
X61572950Y-69475000D01*
X61427050Y-69475000D01*
X61208889Y-69496487D01*
X60928966Y-69581401D01*
X60670986Y-69719294D01*
X60444866Y-69904866D01*
X60259294Y-70130986D01*
X60121401Y-70388966D01*
X60036487Y-70668889D01*
X60007815Y-70960000D01*
X60036487Y-71251111D01*
X60121401Y-71531034D01*
X60259294Y-71789014D01*
X60444866Y-72015134D01*
X60474687Y-72039607D01*
X60405820Y-72060498D01*
X60295506Y-72119463D01*
X60198815Y-72198815D01*
X60119463Y-72295506D01*
X60060498Y-72405820D01*
X60024188Y-72525518D01*
X60011928Y-72650000D01*
X60011928Y-74350000D01*
X60024188Y-74474482D01*
X60060498Y-74594180D01*
X60119463Y-74704494D01*
X60198815Y-74801185D01*
X60295506Y-74880537D01*
X60405820Y-74939502D01*
X60525518Y-74975812D01*
X60650000Y-74988072D01*
X62350000Y-74988072D01*
X62474482Y-74975812D01*
X62594180Y-74939502D01*
X62704494Y-74880537D01*
X62801185Y-74801185D01*
X62880537Y-74704494D01*
X62939502Y-74594180D01*
X62960393Y-74525313D01*
X62984866Y-74555134D01*
X63210986Y-74740706D01*
X63468966Y-74878599D01*
X63748889Y-74963513D01*
X63967050Y-74985000D01*
X64112950Y-74985000D01*
X64331111Y-74963513D01*
X64611034Y-74878599D01*
X64869014Y-74740706D01*
X65095134Y-74555134D01*
X65280706Y-74329014D01*
X65310000Y-74274209D01*
X65339294Y-74329014D01*
X65524866Y-74555134D01*
X65750986Y-74740706D01*
X66008966Y-74878599D01*
X66288889Y-74963513D01*
X66507050Y-74985000D01*
X66652950Y-74985000D01*
X66871111Y-74963513D01*
X67151034Y-74878599D01*
X67409014Y-74740706D01*
X67635134Y-74555134D01*
X67820706Y-74329014D01*
X67850000Y-74274209D01*
X67879294Y-74329014D01*
X68064866Y-74555134D01*
X68290986Y-74740706D01*
X68548966Y-74878599D01*
X68828889Y-74963513D01*
X69047050Y-74985000D01*
X69192950Y-74985000D01*
X69411111Y-74963513D01*
X69691034Y-74878599D01*
X69949014Y-74740706D01*
X70175134Y-74555134D01*
X70360706Y-74329014D01*
X70390000Y-74274209D01*
X70419294Y-74329014D01*
X70604866Y-74555134D01*
X70830986Y-74740706D01*
X71088966Y-74878599D01*
X71368889Y-74963513D01*
X71587050Y-74985000D01*
X71732950Y-74985000D01*
X71951111Y-74963513D01*
X72202782Y-74887169D01*
X72250134Y-74944866D01*
X72295300Y-74999901D01*
X72324298Y-75023699D01*
X73173599Y-75873000D01*
X42660000Y-75873000D01*
X42660000Y-65279872D01*
X45265000Y-65279872D01*
X45265000Y-65720128D01*
X45350890Y-66151925D01*
X45519369Y-66558669D01*
X45763962Y-66924729D01*
X46075271Y-67236038D01*
X46441331Y-67480631D01*
X46848075Y-67649110D01*
X47279872Y-67735000D01*
X47720128Y-67735000D01*
X48151925Y-67649110D01*
X48558669Y-67480631D01*
X48924729Y-67236038D01*
X49236038Y-66924729D01*
X49480631Y-66558669D01*
X49649110Y-66151925D01*
X49735000Y-65720128D01*
X49735000Y-65279872D01*
X134265000Y-65279872D01*
X134265000Y-65720128D01*
X134350890Y-66151925D01*
X134519369Y-66558669D01*
X134763962Y-66924729D01*
X135075271Y-67236038D01*
X135441331Y-67480631D01*
X135848075Y-67649110D01*
X136279872Y-67735000D01*
X136720128Y-67735000D01*
X137151925Y-67649110D01*
X137558669Y-67480631D01*
X137924729Y-67236038D01*
X138236038Y-66924729D01*
X138480631Y-66558669D01*
X138649110Y-66151925D01*
X138735000Y-65720128D01*
X138735000Y-65279872D01*
X138649110Y-64848075D01*
X138480631Y-64441331D01*
X138236038Y-64075271D01*
X137924729Y-63763962D01*
X137558669Y-63519369D01*
X137151925Y-63350890D01*
X136720128Y-63265000D01*
X136279872Y-63265000D01*
X135848075Y-63350890D01*
X135441331Y-63519369D01*
X135075271Y-63763962D01*
X134763962Y-64075271D01*
X134519369Y-64441331D01*
X134350890Y-64848075D01*
X134265000Y-65279872D01*
X49735000Y-65279872D01*
X49649110Y-64848075D01*
X49480631Y-64441331D01*
X49236038Y-64075271D01*
X48924729Y-63763962D01*
X48558669Y-63519369D01*
X48151925Y-63350890D01*
X47720128Y-63265000D01*
X47279872Y-63265000D01*
X46848075Y-63350890D01*
X46441331Y-63519369D01*
X46075271Y-63763962D01*
X45763962Y-64075271D01*
X45519369Y-64441331D01*
X45350890Y-64848075D01*
X45265000Y-65279872D01*
X42660000Y-65279872D01*
X42660000Y-61660000D01*
X141340000Y-61660000D01*
X141340000Y-75517199D01*
G36*
X93950271Y-75179076D02*
G01*
X93980000Y-75215301D01*
X94008998Y-75239099D01*
X97338841Y-78568943D01*
X97081426Y-78620147D01*
X96820273Y-78728320D01*
X96585241Y-78885363D01*
X96385363Y-79085241D01*
X96251308Y-79285869D01*
X96236671Y-79258486D01*
X95992702Y-79186903D01*
X95179605Y-80000000D01*
X95193748Y-80014143D01*
X95014143Y-80193748D01*
X95000000Y-80179605D01*
X94186903Y-80992702D01*
X94258486Y-81236671D01*
X94513996Y-81357571D01*
X94788184Y-81426300D01*
X95070512Y-81440217D01*
X95350130Y-81398787D01*
X95616292Y-81303603D01*
X95741514Y-81236671D01*
X95813097Y-80992704D01*
X95929370Y-81108977D01*
X95935000Y-81103347D01*
X95935001Y-81910956D01*
X95850392Y-81980392D01*
X95671068Y-82198899D01*
X95537818Y-82448192D01*
X95455764Y-82718691D01*
X95428057Y-83000000D01*
X95455764Y-83281309D01*
X95537818Y-83551808D01*
X95671068Y-83801101D01*
X95850392Y-84019608D01*
X96068899Y-84198932D01*
X96206682Y-84272579D01*
X96014869Y-84387615D01*
X95806481Y-84576586D01*
X95638963Y-84802580D01*
X95518754Y-85056913D01*
X95478096Y-85190961D01*
X95600085Y-85413000D01*
X96743000Y-85413000D01*
X96743000Y-85393000D01*
X96997000Y-85393000D01*
X96997000Y-85413000D01*
X97017000Y-85413000D01*
X97017000Y-85667000D01*
X96997000Y-85667000D01*
X96997000Y-87953000D01*
X97017000Y-87953000D01*
X97017000Y-88207000D01*
X96997000Y-88207000D01*
X96997000Y-88227000D01*
X96743000Y-88227000D01*
X96743000Y-88207000D01*
X95600085Y-88207000D01*
X95478096Y-88429039D01*
X95518754Y-88563087D01*
X95638963Y-88817420D01*
X95806481Y-89043414D01*
X96014869Y-89232385D01*
X96206682Y-89347421D01*
X96068899Y-89421068D01*
X95850392Y-89600392D01*
X95671068Y-89818899D01*
X95537818Y-90068192D01*
X95455764Y-90338691D01*
X95428057Y-90620000D01*
X95455764Y-90901309D01*
X95537818Y-91171808D01*
X95671068Y-91421101D01*
X95850392Y-91639608D01*
X96068899Y-91818932D01*
X96206682Y-91892579D01*
X96014869Y-92007615D01*
X95806481Y-92196586D01*
X95638963Y-92422580D01*
X95518754Y-92676913D01*
X95478096Y-92810961D01*
X95600085Y-93033000D01*
X96743000Y-93033000D01*
X96743000Y-93013000D01*
X96997000Y-93013000D01*
X96997000Y-93033000D01*
X97017000Y-93033000D01*
X97017000Y-93287000D01*
X96997000Y-93287000D01*
X96997000Y-95573000D01*
X97017000Y-95573000D01*
X97017000Y-95827000D01*
X96997000Y-95827000D01*
X96997000Y-95847000D01*
X96743000Y-95847000D01*
X96743000Y-95827000D01*
X95600085Y-95827000D01*
X95545379Y-95926573D01*
X95501005Y-95819444D01*
X95387737Y-95649926D01*
X95243574Y-95505763D01*
X95074056Y-95392495D01*
X94885698Y-95314474D01*
X94685739Y-95274700D01*
X94623602Y-95274700D01*
X93267904Y-93919003D01*
X93244101Y-93889999D01*
X93128376Y-93795026D01*
X92996347Y-93724454D01*
X92853086Y-93680997D01*
X92741433Y-93670000D01*
X92741422Y-93670000D01*
X92704100Y-93666324D01*
X92666778Y-93670000D01*
X90594864Y-93670000D01*
X90643690Y-93509039D01*
X95478096Y-93509039D01*
X95518754Y-93643087D01*
X95638963Y-93897420D01*
X95806481Y-94123414D01*
X96014869Y-94312385D01*
X96210982Y-94430000D01*
X96014869Y-94547615D01*
X95806481Y-94736586D01*
X95638963Y-94962580D01*
X95518754Y-95216913D01*
X95478096Y-95350961D01*
X95600085Y-95573000D01*
X96743000Y-95573000D01*
X96743000Y-93287000D01*
X95600085Y-93287000D01*
X95478096Y-93509039D01*
X90643690Y-93509039D01*
X90664236Y-93441309D01*
X90691943Y-93160000D01*
X90664236Y-92878691D01*
X90582182Y-92608192D01*
X90448932Y-92358899D01*
X90373643Y-92267159D01*
X93685203Y-88955599D01*
X93714201Y-88931801D01*
X93809174Y-88816076D01*
X93879746Y-88684047D01*
X93923203Y-88540786D01*
X93934200Y-88429133D01*
X93937877Y-88391800D01*
X93934200Y-88354467D01*
X93934200Y-85889039D01*
X95478096Y-85889039D01*
X95518754Y-86023087D01*
X95638963Y-86277420D01*
X95806481Y-86503414D01*
X96014869Y-86692385D01*
X96210982Y-86810000D01*
X96014869Y-86927615D01*
X95806481Y-87116586D01*
X95638963Y-87342580D01*
X95518754Y-87596913D01*
X95478096Y-87730961D01*
X95600085Y-87953000D01*
X96743000Y-87953000D01*
X96743000Y-85667000D01*
X95600085Y-85667000D01*
X95478096Y-85889039D01*
X93934200Y-85889039D01*
X93934200Y-80791649D01*
X94007298Y-80813097D01*
X94820395Y-80000000D01*
X94007298Y-79186903D01*
X93934200Y-79208351D01*
X93934200Y-79007298D01*
X94186903Y-79007298D01*
X95000000Y-79820395D01*
X95813097Y-79007298D01*
X95741514Y-78763329D01*
X95486004Y-78642429D01*
X95211816Y-78573700D01*
X94929488Y-78559783D01*
X94649870Y-78601213D01*
X94383708Y-78696397D01*
X94258486Y-78763329D01*
X94186903Y-79007298D01*
X93934200Y-79007298D01*
X93934200Y-75159494D01*
X93950271Y-75179076D01*
X93950271Y-75179076D01*
G37*
X93950271Y-75179076D02*
X93980000Y-75215301D01*
X94008998Y-75239099D01*
X97338841Y-78568943D01*
X97081426Y-78620147D01*
X96820273Y-78728320D01*
X96585241Y-78885363D01*
X96385363Y-79085241D01*
X96251308Y-79285869D01*
X96236671Y-79258486D01*
X95992702Y-79186903D01*
X95179605Y-80000000D01*
X95193748Y-80014143D01*
X95014143Y-80193748D01*
X95000000Y-80179605D01*
X94186903Y-80992702D01*
X94258486Y-81236671D01*
X94513996Y-81357571D01*
X94788184Y-81426300D01*
X95070512Y-81440217D01*
X95350130Y-81398787D01*
X95616292Y-81303603D01*
X95741514Y-81236671D01*
X95813097Y-80992704D01*
X95929370Y-81108977D01*
X95935000Y-81103347D01*
X95935001Y-81910956D01*
X95850392Y-81980392D01*
X95671068Y-82198899D01*
X95537818Y-82448192D01*
X95455764Y-82718691D01*
X95428057Y-83000000D01*
X95455764Y-83281309D01*
X95537818Y-83551808D01*
X95671068Y-83801101D01*
X95850392Y-84019608D01*
X96068899Y-84198932D01*
X96206682Y-84272579D01*
X96014869Y-84387615D01*
X95806481Y-84576586D01*
X95638963Y-84802580D01*
X95518754Y-85056913D01*
X95478096Y-85190961D01*
X95600085Y-85413000D01*
X96743000Y-85413000D01*
X96743000Y-85393000D01*
X96997000Y-85393000D01*
X96997000Y-85413000D01*
X97017000Y-85413000D01*
X97017000Y-85667000D01*
X96997000Y-85667000D01*
X96997000Y-87953000D01*
X97017000Y-87953000D01*
X97017000Y-88207000D01*
X96997000Y-88207000D01*
X96997000Y-88227000D01*
X96743000Y-88227000D01*
X96743000Y-88207000D01*
X95600085Y-88207000D01*
X95478096Y-88429039D01*
X95518754Y-88563087D01*
X95638963Y-88817420D01*
X95806481Y-89043414D01*
X96014869Y-89232385D01*
X96206682Y-89347421D01*
X96068899Y-89421068D01*
X95850392Y-89600392D01*
X95671068Y-89818899D01*
X95537818Y-90068192D01*
X95455764Y-90338691D01*
X95428057Y-90620000D01*
X95455764Y-90901309D01*
X95537818Y-91171808D01*
X95671068Y-91421101D01*
X95850392Y-91639608D01*
X96068899Y-91818932D01*
X96206682Y-91892579D01*
X96014869Y-92007615D01*
X95806481Y-92196586D01*
X95638963Y-92422580D01*
X95518754Y-92676913D01*
X95478096Y-92810961D01*
X95600085Y-93033000D01*
X96743000Y-93033000D01*
X96743000Y-93013000D01*
X96997000Y-93013000D01*
X96997000Y-93033000D01*
X97017000Y-93033000D01*
X97017000Y-93287000D01*
X96997000Y-93287000D01*
X96997000Y-95573000D01*
X97017000Y-95573000D01*
X97017000Y-95827000D01*
X96997000Y-95827000D01*
X96997000Y-95847000D01*
X96743000Y-95847000D01*
X96743000Y-95827000D01*
X95600085Y-95827000D01*
X95545379Y-95926573D01*
X95501005Y-95819444D01*
X95387737Y-95649926D01*
X95243574Y-95505763D01*
X95074056Y-95392495D01*
X94885698Y-95314474D01*
X94685739Y-95274700D01*
X94623602Y-95274700D01*
X93267904Y-93919003D01*
X93244101Y-93889999D01*
X93128376Y-93795026D01*
X92996347Y-93724454D01*
X92853086Y-93680997D01*
X92741433Y-93670000D01*
X92741422Y-93670000D01*
X92704100Y-93666324D01*
X92666778Y-93670000D01*
X90594864Y-93670000D01*
X90643690Y-93509039D01*
X95478096Y-93509039D01*
X95518754Y-93643087D01*
X95638963Y-93897420D01*
X95806481Y-94123414D01*
X96014869Y-94312385D01*
X96210982Y-94430000D01*
X96014869Y-94547615D01*
X95806481Y-94736586D01*
X95638963Y-94962580D01*
X95518754Y-95216913D01*
X95478096Y-95350961D01*
X95600085Y-95573000D01*
X96743000Y-95573000D01*
X96743000Y-93287000D01*
X95600085Y-93287000D01*
X95478096Y-93509039D01*
X90643690Y-93509039D01*
X90664236Y-93441309D01*
X90691943Y-93160000D01*
X90664236Y-92878691D01*
X90582182Y-92608192D01*
X90448932Y-92358899D01*
X90373643Y-92267159D01*
X93685203Y-88955599D01*
X93714201Y-88931801D01*
X93809174Y-88816076D01*
X93879746Y-88684047D01*
X93923203Y-88540786D01*
X93934200Y-88429133D01*
X93937877Y-88391800D01*
X93934200Y-88354467D01*
X93934200Y-85889039D01*
X95478096Y-85889039D01*
X95518754Y-86023087D01*
X95638963Y-86277420D01*
X95806481Y-86503414D01*
X96014869Y-86692385D01*
X96210982Y-86810000D01*
X96014869Y-86927615D01*
X95806481Y-87116586D01*
X95638963Y-87342580D01*
X95518754Y-87596913D01*
X95478096Y-87730961D01*
X95600085Y-87953000D01*
X96743000Y-87953000D01*
X96743000Y-85667000D01*
X95600085Y-85667000D01*
X95478096Y-85889039D01*
X93934200Y-85889039D01*
X93934200Y-80791649D01*
X94007298Y-80813097D01*
X94820395Y-80000000D01*
X94007298Y-79186903D01*
X93934200Y-79208351D01*
X93934200Y-79007298D01*
X94186903Y-79007298D01*
X95000000Y-79820395D01*
X95813097Y-79007298D01*
X95741514Y-78763329D01*
X95486004Y-78642429D01*
X95211816Y-78573700D01*
X94929488Y-78559783D01*
X94649870Y-78601213D01*
X94383708Y-78696397D01*
X94258486Y-78763329D01*
X94186903Y-79007298D01*
X93934200Y-79007298D01*
X93934200Y-75159494D01*
X93950271Y-75179076D01*
G36*
X98303001Y-93032998D02*
G01*
X98139916Y-93032998D01*
X98261904Y-92810961D01*
X98221246Y-92676913D01*
X98101037Y-92422580D01*
X97933519Y-92196586D01*
X97725131Y-92007615D01*
X97533318Y-91892579D01*
X97671101Y-91818932D01*
X97889608Y-91639608D01*
X98068932Y-91421101D01*
X98202182Y-91171808D01*
X98284236Y-90901309D01*
X98303001Y-90710792D01*
X98303001Y-93032998D01*
X98303001Y-93032998D01*
G37*
X98303001Y-93032998D02*
X98139916Y-93032998D01*
X98261904Y-92810961D01*
X98221246Y-92676913D01*
X98101037Y-92422580D01*
X97933519Y-92196586D01*
X97725131Y-92007615D01*
X97533318Y-91892579D01*
X97671101Y-91818932D01*
X97889608Y-91639608D01*
X98068932Y-91421101D01*
X98202182Y-91171808D01*
X98284236Y-90901309D01*
X98303001Y-90710792D01*
X98303001Y-93032998D01*
G36*
X98303001Y-90529208D02*
G01*
X98284236Y-90338691D01*
X98202182Y-90068192D01*
X98068932Y-89818899D01*
X97889608Y-89600392D01*
X97671101Y-89421068D01*
X97533318Y-89347421D01*
X97725131Y-89232385D01*
X97933519Y-89043414D01*
X98101037Y-88817420D01*
X98221246Y-88563087D01*
X98261904Y-88429039D01*
X98139916Y-88207002D01*
X98303001Y-88207002D01*
X98303001Y-90529208D01*
X98303001Y-90529208D01*
G37*
X98303001Y-90529208D02*
X98284236Y-90338691D01*
X98202182Y-90068192D01*
X98068932Y-89818899D01*
X97889608Y-89600392D01*
X97671101Y-89421068D01*
X97533318Y-89347421D01*
X97725131Y-89232385D01*
X97933519Y-89043414D01*
X98101037Y-88817420D01*
X98221246Y-88563087D01*
X98261904Y-88429039D01*
X98139916Y-88207002D01*
X98303001Y-88207002D01*
X98303001Y-90529208D01*
G36*
X76835100Y-79534503D02*
G01*
X76835100Y-79596639D01*
X76874874Y-79796598D01*
X76952895Y-79984956D01*
X77066163Y-80154474D01*
X77210326Y-80298637D01*
X77379844Y-80411905D01*
X77568202Y-80489926D01*
X77768161Y-80529700D01*
X77972039Y-80529700D01*
X78171998Y-80489926D01*
X78360356Y-80411905D01*
X78520000Y-80305234D01*
X78520001Y-87288168D01*
X78516324Y-87325500D01*
X78520001Y-87362833D01*
X78530998Y-87474486D01*
X78544180Y-87517942D01*
X78574454Y-87617746D01*
X78645026Y-87749776D01*
X78670905Y-87781309D01*
X78740000Y-87865501D01*
X78768998Y-87889299D01*
X80873000Y-89993301D01*
X80873000Y-129762897D01*
X79099104Y-127989002D01*
X79075301Y-127959999D01*
X78959576Y-127865026D01*
X78827547Y-127794454D01*
X78684286Y-127750997D01*
X78634139Y-127746058D01*
X78608932Y-127698899D01*
X78429608Y-127480392D01*
X78211101Y-127301068D01*
X77961808Y-127167818D01*
X77691309Y-127085764D01*
X77480492Y-127065000D01*
X77339508Y-127065000D01*
X77128691Y-127085764D01*
X76858192Y-127167818D01*
X76608899Y-127301068D01*
X76390392Y-127480392D01*
X76211068Y-127698899D01*
X76077818Y-127948192D01*
X75995764Y-128218691D01*
X75968057Y-128500000D01*
X75995764Y-128781309D01*
X76077818Y-129051808D01*
X76211068Y-129301101D01*
X76390392Y-129519608D01*
X76608899Y-129698932D01*
X76858192Y-129832182D01*
X77128691Y-129914236D01*
X77339508Y-129935000D01*
X77480492Y-129935000D01*
X77691309Y-129914236D01*
X77961808Y-129832182D01*
X78211101Y-129698932D01*
X78429608Y-129519608D01*
X78452370Y-129491872D01*
X80021405Y-131060908D01*
X80045199Y-131089901D01*
X80074192Y-131113695D01*
X80074196Y-131113699D01*
X80144885Y-131171711D01*
X80160924Y-131184874D01*
X80264056Y-131240000D01*
X78630901Y-131240000D01*
X78608932Y-131198899D01*
X78429608Y-130980392D01*
X78211101Y-130801068D01*
X77961808Y-130667818D01*
X77691309Y-130585764D01*
X77480492Y-130565000D01*
X77339508Y-130565000D01*
X77128691Y-130585764D01*
X76858192Y-130667818D01*
X76608899Y-130801068D01*
X76390392Y-130980392D01*
X76211068Y-131198899D01*
X76077818Y-131448192D01*
X75995764Y-131718691D01*
X75968057Y-132000000D01*
X75995764Y-132281309D01*
X76077818Y-132551808D01*
X76211068Y-132801101D01*
X76390392Y-133019608D01*
X76608899Y-133198932D01*
X76858192Y-133332182D01*
X77128691Y-133414236D01*
X77339508Y-133435000D01*
X77480492Y-133435000D01*
X77691309Y-133414236D01*
X77961808Y-133332182D01*
X78211101Y-133198932D01*
X78429608Y-133019608D01*
X78608932Y-132801101D01*
X78630901Y-132760000D01*
X80873000Y-132760000D01*
X80873000Y-135340000D01*
X42660000Y-135340000D01*
X42660000Y-131279872D01*
X45265000Y-131279872D01*
X45265000Y-131720128D01*
X45350890Y-132151925D01*
X45519369Y-132558669D01*
X45763962Y-132924729D01*
X46075271Y-133236038D01*
X46441331Y-133480631D01*
X46848075Y-133649110D01*
X47279872Y-133735000D01*
X47720128Y-133735000D01*
X48151925Y-133649110D01*
X48558669Y-133480631D01*
X48924729Y-133236038D01*
X49236038Y-132924729D01*
X49480631Y-132558669D01*
X49649110Y-132151925D01*
X49735000Y-131720128D01*
X49735000Y-131279872D01*
X49649110Y-130848075D01*
X49480631Y-130441331D01*
X49236038Y-130075271D01*
X48924729Y-129763962D01*
X48558669Y-129519369D01*
X48151925Y-129350890D01*
X47720128Y-129265000D01*
X47279872Y-129265000D01*
X46848075Y-129350890D01*
X46441331Y-129519369D01*
X46075271Y-129763962D01*
X45763962Y-130075271D01*
X45519369Y-130441331D01*
X45350890Y-130848075D01*
X45265000Y-131279872D01*
X42660000Y-131279872D01*
X42660000Y-124858665D01*
X65815000Y-124858665D01*
X65815000Y-125141335D01*
X65870147Y-125418574D01*
X65978320Y-125679727D01*
X66135363Y-125914759D01*
X66335241Y-126114637D01*
X66490001Y-126218044D01*
X66490000Y-127281956D01*
X66335241Y-127385363D01*
X66135363Y-127585241D01*
X65978320Y-127820273D01*
X65870147Y-128081426D01*
X65815000Y-128358665D01*
X65815000Y-128641335D01*
X65870147Y-128918574D01*
X65978320Y-129179727D01*
X66135363Y-129414759D01*
X66335241Y-129614637D01*
X66490001Y-129718044D01*
X66490000Y-130781956D01*
X66335241Y-130885363D01*
X66135363Y-131085241D01*
X65978320Y-131320273D01*
X65870147Y-131581426D01*
X65815000Y-131858665D01*
X65815000Y-132141335D01*
X65870147Y-132418574D01*
X65978320Y-132679727D01*
X66135363Y-132914759D01*
X66335241Y-133114637D01*
X66570273Y-133271680D01*
X66831426Y-133379853D01*
X67108665Y-133435000D01*
X67391335Y-133435000D01*
X67668574Y-133379853D01*
X67929727Y-133271680D01*
X68164759Y-133114637D01*
X68364637Y-132914759D01*
X68521680Y-132679727D01*
X68629853Y-132418574D01*
X68685000Y-132141335D01*
X68685000Y-131858665D01*
X68629853Y-131581426D01*
X68521680Y-131320273D01*
X68364637Y-131085241D01*
X68164759Y-130885363D01*
X68010000Y-130781957D01*
X68010000Y-129718043D01*
X68164759Y-129614637D01*
X68364637Y-129414759D01*
X68521680Y-129179727D01*
X68629853Y-128918574D01*
X68685000Y-128641335D01*
X68685000Y-128358665D01*
X68629853Y-128081426D01*
X68521680Y-127820273D01*
X68364637Y-127585241D01*
X68164759Y-127385363D01*
X68010000Y-127281957D01*
X68010000Y-126218043D01*
X68164759Y-126114637D01*
X68364637Y-125914759D01*
X68521680Y-125679727D01*
X68629853Y-125418574D01*
X68685000Y-125141335D01*
X68685000Y-125000000D01*
X75968057Y-125000000D01*
X75995764Y-125281309D01*
X76077818Y-125551808D01*
X76211068Y-125801101D01*
X76390392Y-126019608D01*
X76608899Y-126198932D01*
X76858192Y-126332182D01*
X77128691Y-126414236D01*
X77339508Y-126435000D01*
X77480492Y-126435000D01*
X77691309Y-126414236D01*
X77961808Y-126332182D01*
X78211101Y-126198932D01*
X78429608Y-126019608D01*
X78608932Y-125801101D01*
X78742182Y-125551808D01*
X78824236Y-125281309D01*
X78851943Y-125000000D01*
X78824236Y-124718691D01*
X78742182Y-124448192D01*
X78608932Y-124198899D01*
X78429608Y-123980392D01*
X78211101Y-123801068D01*
X77961808Y-123667818D01*
X77691309Y-123585764D01*
X77480492Y-123565000D01*
X77339508Y-123565000D01*
X77128691Y-123585764D01*
X76858192Y-123667818D01*
X76608899Y-123801068D01*
X76390392Y-123980392D01*
X76211068Y-124198899D01*
X76077818Y-124448192D01*
X75995764Y-124718691D01*
X75968057Y-125000000D01*
X68685000Y-125000000D01*
X68685000Y-124858665D01*
X68648688Y-124676114D01*
X70261004Y-123063798D01*
X70290001Y-123040001D01*
X70316332Y-123007917D01*
X70384974Y-122924277D01*
X70455546Y-122792247D01*
X70455546Y-122792246D01*
X70499003Y-122648986D01*
X70510000Y-122537333D01*
X70510000Y-122537323D01*
X70513676Y-122500000D01*
X70510000Y-122462677D01*
X70510000Y-122121828D01*
X70613762Y-122052497D01*
X70802497Y-121863762D01*
X70950785Y-121641833D01*
X71052928Y-121395239D01*
X71105000Y-121133456D01*
X71105000Y-120866544D01*
X71052928Y-120604761D01*
X70950785Y-120358167D01*
X70802497Y-120136238D01*
X70613762Y-119947503D01*
X70391833Y-119799215D01*
X70145239Y-119697072D01*
X69883456Y-119645000D01*
X69616544Y-119645000D01*
X69354761Y-119697072D01*
X69108167Y-119799215D01*
X68886238Y-119947503D01*
X68697503Y-120136238D01*
X68549215Y-120358167D01*
X68447072Y-120604761D01*
X68395000Y-120866544D01*
X68395000Y-121133456D01*
X68447072Y-121395239D01*
X68549215Y-121641833D01*
X68697503Y-121863762D01*
X68886238Y-122052497D01*
X68990000Y-122121829D01*
X68990000Y-122185198D01*
X67573886Y-123601312D01*
X67391335Y-123565000D01*
X67108665Y-123565000D01*
X66831426Y-123620147D01*
X66570273Y-123728320D01*
X66335241Y-123885363D01*
X66135363Y-124085241D01*
X65978320Y-124320273D01*
X65870147Y-124581426D01*
X65815000Y-124858665D01*
X42660000Y-124858665D01*
X42660000Y-118326544D01*
X70935000Y-118326544D01*
X70935000Y-118593456D01*
X70987072Y-118855239D01*
X71089215Y-119101833D01*
X71237503Y-119323762D01*
X71426238Y-119512497D01*
X71648167Y-119660785D01*
X71894761Y-119762928D01*
X72156544Y-119815000D01*
X72423456Y-119815000D01*
X72685239Y-119762928D01*
X72931833Y-119660785D01*
X73153762Y-119512497D01*
X73342497Y-119323762D01*
X73490785Y-119101833D01*
X73592928Y-118855239D01*
X73645000Y-118593456D01*
X73645000Y-118326544D01*
X73592928Y-118064761D01*
X73490785Y-117818167D01*
X73342497Y-117596238D01*
X73153762Y-117407503D01*
X72931833Y-117259215D01*
X72685239Y-117157072D01*
X72423456Y-117105000D01*
X72156544Y-117105000D01*
X71894761Y-117157072D01*
X71648167Y-117259215D01*
X71426238Y-117407503D01*
X71237503Y-117596238D01*
X71089215Y-117818167D01*
X70987072Y-118064761D01*
X70935000Y-118326544D01*
X42660000Y-118326544D01*
X42660000Y-116855560D01*
X68994045Y-116855560D01*
X69055932Y-117091368D01*
X69297790Y-117204266D01*
X69557027Y-117267811D01*
X69823680Y-117279561D01*
X70087501Y-117239063D01*
X70338353Y-117147875D01*
X70444068Y-117091368D01*
X70505955Y-116855560D01*
X69750000Y-116099605D01*
X68994045Y-116855560D01*
X42660000Y-116855560D01*
X42660000Y-115993680D01*
X68390439Y-115993680D01*
X68430937Y-116257501D01*
X68522125Y-116508353D01*
X68578632Y-116614068D01*
X68814440Y-116675955D01*
X69570395Y-115920000D01*
X69929605Y-115920000D01*
X70685560Y-116675955D01*
X70921368Y-116614068D01*
X71034266Y-116372210D01*
X71097811Y-116112973D01*
X71109561Y-115846320D01*
X71069063Y-115582499D01*
X70977875Y-115331647D01*
X70921368Y-115225932D01*
X70685560Y-115164045D01*
X69929605Y-115920000D01*
X69570395Y-115920000D01*
X68814440Y-115164045D01*
X68578632Y-115225932D01*
X68465734Y-115467790D01*
X68402189Y-115727027D01*
X68390439Y-115993680D01*
X42660000Y-115993680D01*
X42660000Y-114984440D01*
X68994045Y-114984440D01*
X69750000Y-115740395D01*
X70505955Y-114984440D01*
X70444068Y-114748632D01*
X70202210Y-114635734D01*
X69942973Y-114572189D01*
X69676320Y-114560439D01*
X69412499Y-114600937D01*
X69161647Y-114692125D01*
X69055932Y-114748632D01*
X68994045Y-114984440D01*
X42660000Y-114984440D01*
X42660000Y-107750000D01*
X48807089Y-107750000D01*
X48838657Y-108070516D01*
X48932148Y-108378715D01*
X49083969Y-108662752D01*
X49288286Y-108911714D01*
X49537248Y-109116031D01*
X49821285Y-109267852D01*
X50129484Y-109361343D01*
X50369678Y-109385000D01*
X51530322Y-109385000D01*
X51770516Y-109361343D01*
X52078715Y-109267852D01*
X52362752Y-109116031D01*
X52611714Y-108911714D01*
X52816031Y-108662752D01*
X52902405Y-108501158D01*
X52924286Y-108499003D01*
X53067547Y-108455546D01*
X53199576Y-108384974D01*
X53315301Y-108290001D01*
X53339104Y-108260997D01*
X57061250Y-104538852D01*
X58077793Y-105555395D01*
X57837248Y-105683969D01*
X57588286Y-105888286D01*
X57383969Y-106137249D01*
X57232148Y-106421286D01*
X57138657Y-106729485D01*
X57115000Y-106969679D01*
X57115000Y-108130322D01*
X57138657Y-108370516D01*
X57232148Y-108678715D01*
X57383970Y-108962752D01*
X57588287Y-109211714D01*
X57837249Y-109416031D01*
X58121286Y-109567852D01*
X58429485Y-109661343D01*
X58750000Y-109692911D01*
X59070516Y-109661343D01*
X59378715Y-109567852D01*
X59662752Y-109416031D01*
X59911714Y-109211714D01*
X60116031Y-108962752D01*
X60267852Y-108678715D01*
X60361343Y-108370516D01*
X60385000Y-108130322D01*
X60385000Y-107862602D01*
X62740000Y-110217603D01*
X62740000Y-110781956D01*
X62585241Y-110885363D01*
X62385363Y-111085241D01*
X62228320Y-111320273D01*
X62120147Y-111581426D01*
X62065000Y-111858665D01*
X62065000Y-112141335D01*
X62120147Y-112418574D01*
X62228320Y-112679727D01*
X62385363Y-112914759D01*
X62585241Y-113114637D01*
X62820273Y-113271680D01*
X63081426Y-113379853D01*
X63358665Y-113435000D01*
X63641335Y-113435000D01*
X63918574Y-113379853D01*
X64179727Y-113271680D01*
X64414759Y-113114637D01*
X64614637Y-112914759D01*
X64771680Y-112679727D01*
X64879853Y-112418574D01*
X64935000Y-112141335D01*
X64935000Y-112000000D01*
X72218057Y-112000000D01*
X72245764Y-112281309D01*
X72327818Y-112551808D01*
X72461068Y-112801101D01*
X72640392Y-113019608D01*
X72858899Y-113198932D01*
X73108192Y-113332182D01*
X73378691Y-113414236D01*
X73589508Y-113435000D01*
X73730492Y-113435000D01*
X73941309Y-113414236D01*
X74100310Y-113366004D01*
X74150326Y-113459576D01*
X74190171Y-113508126D01*
X74245299Y-113575301D01*
X74274303Y-113599104D01*
X76601312Y-115926114D01*
X76565000Y-116108665D01*
X76565000Y-116391335D01*
X76620147Y-116668574D01*
X76728320Y-116929727D01*
X76885363Y-117164759D01*
X77051943Y-117331339D01*
X76955820Y-117360498D01*
X76845506Y-117419463D01*
X76748815Y-117498815D01*
X76669463Y-117595506D01*
X76610498Y-117705820D01*
X76574188Y-117825518D01*
X76561928Y-117950000D01*
X76561928Y-119550000D01*
X76574188Y-119674482D01*
X76610498Y-119794180D01*
X76669463Y-119904494D01*
X76748815Y-120001185D01*
X76845506Y-120080537D01*
X76955820Y-120139502D01*
X77075518Y-120175812D01*
X77200000Y-120188072D01*
X78800000Y-120188072D01*
X78924482Y-120175812D01*
X79044180Y-120139502D01*
X79154494Y-120080537D01*
X79251185Y-120001185D01*
X79330537Y-119904494D01*
X79389502Y-119794180D01*
X79425812Y-119674482D01*
X79438072Y-119550000D01*
X79438072Y-117950000D01*
X79425812Y-117825518D01*
X79389502Y-117705820D01*
X79330537Y-117595506D01*
X79251185Y-117498815D01*
X79154494Y-117419463D01*
X79044180Y-117360498D01*
X78948057Y-117331339D01*
X79114637Y-117164759D01*
X79271680Y-116929727D01*
X79379853Y-116668574D01*
X79435000Y-116391335D01*
X79435000Y-116108665D01*
X79379853Y-115831426D01*
X79271680Y-115570273D01*
X79114637Y-115335241D01*
X78914759Y-115135363D01*
X78679727Y-114978320D01*
X78418574Y-114870147D01*
X78141335Y-114815000D01*
X77858665Y-114815000D01*
X77676114Y-114851312D01*
X75545300Y-112720499D01*
X75545300Y-112037333D01*
X75548977Y-112000000D01*
X75534303Y-111851014D01*
X75490846Y-111707753D01*
X75420274Y-111575724D01*
X75325301Y-111459999D01*
X75209576Y-111365026D01*
X75077547Y-111294454D01*
X74934286Y-111250997D01*
X74884139Y-111246058D01*
X74858932Y-111198899D01*
X74679608Y-110980392D01*
X74461101Y-110801068D01*
X74211808Y-110667818D01*
X73941309Y-110585764D01*
X73730492Y-110565000D01*
X73589508Y-110565000D01*
X73378691Y-110585764D01*
X73108192Y-110667818D01*
X72858899Y-110801068D01*
X72640392Y-110980392D01*
X72461068Y-111198899D01*
X72327818Y-111448192D01*
X72245764Y-111718691D01*
X72218057Y-112000000D01*
X64935000Y-112000000D01*
X64935000Y-111858665D01*
X64879853Y-111581426D01*
X64771680Y-111320273D01*
X64614637Y-111085241D01*
X64414759Y-110885363D01*
X64260000Y-110781957D01*
X64260000Y-109940122D01*
X64263676Y-109902799D01*
X64260000Y-109865476D01*
X64260000Y-109865467D01*
X64249003Y-109753814D01*
X64205546Y-109610553D01*
X64134974Y-109478524D01*
X64121811Y-109462485D01*
X64063799Y-109391796D01*
X64063795Y-109391792D01*
X64040001Y-109362799D01*
X64011009Y-109339006D01*
X61530668Y-106858665D01*
X62565000Y-106858665D01*
X62565000Y-107141335D01*
X62620147Y-107418574D01*
X62728320Y-107679727D01*
X62885363Y-107914759D01*
X63085241Y-108114637D01*
X63320273Y-108271680D01*
X63581426Y-108379853D01*
X63858665Y-108435000D01*
X64141335Y-108435000D01*
X64418574Y-108379853D01*
X64679727Y-108271680D01*
X64914759Y-108114637D01*
X65114637Y-107914759D01*
X65271680Y-107679727D01*
X65379853Y-107418574D01*
X65435000Y-107141335D01*
X65435000Y-106858665D01*
X65379853Y-106581426D01*
X65271680Y-106320273D01*
X65114637Y-106085241D01*
X64914759Y-105885363D01*
X64714131Y-105751308D01*
X64741514Y-105736671D01*
X64813097Y-105492702D01*
X64000000Y-104679605D01*
X63186903Y-105492702D01*
X63258486Y-105736671D01*
X63287341Y-105750324D01*
X63085241Y-105885363D01*
X62885363Y-106085241D01*
X62728320Y-106320273D01*
X62620147Y-106581426D01*
X62565000Y-106858665D01*
X61530668Y-106858665D01*
X59242514Y-104570512D01*
X62559783Y-104570512D01*
X62601213Y-104850130D01*
X62696397Y-105116292D01*
X62763329Y-105241514D01*
X63007298Y-105313097D01*
X63820395Y-104500000D01*
X63007298Y-103686903D01*
X62763329Y-103758486D01*
X62642429Y-104013996D01*
X62573700Y-104288184D01*
X62559783Y-104570512D01*
X59242514Y-104570512D01*
X57823604Y-103151603D01*
X57799801Y-103122599D01*
X57684076Y-103027626D01*
X57622700Y-102994819D01*
X57622700Y-98998327D01*
X57816031Y-98762752D01*
X57967852Y-98478715D01*
X58061343Y-98170516D01*
X58092911Y-97850000D01*
X58078977Y-97708525D01*
X59011004Y-96776498D01*
X59040001Y-96752701D01*
X59134974Y-96636976D01*
X59205546Y-96504947D01*
X59249003Y-96361686D01*
X59260000Y-96250033D01*
X59260000Y-96250023D01*
X59263676Y-96212700D01*
X59260000Y-96175377D01*
X59260000Y-95218043D01*
X59414759Y-95114637D01*
X59614637Y-94914759D01*
X59771680Y-94679727D01*
X59879853Y-94418574D01*
X59935000Y-94141335D01*
X59935000Y-93858665D01*
X59879853Y-93581426D01*
X59771680Y-93320273D01*
X59614637Y-93085241D01*
X59414759Y-92885363D01*
X59179727Y-92728320D01*
X58918574Y-92620147D01*
X58641335Y-92565000D01*
X58358665Y-92565000D01*
X58081426Y-92620147D01*
X57820273Y-92728320D01*
X57585241Y-92885363D01*
X57385363Y-93085241D01*
X57228320Y-93320273D01*
X57120147Y-93581426D01*
X57065000Y-93858665D01*
X57065000Y-94141335D01*
X57120147Y-94418574D01*
X57228320Y-94679727D01*
X57385363Y-94914759D01*
X57585241Y-95114637D01*
X57740000Y-95218044D01*
X57740000Y-95897898D01*
X57226668Y-96411231D01*
X57078715Y-96332148D01*
X56770516Y-96238657D01*
X56530322Y-96215000D01*
X55369678Y-96215000D01*
X55129484Y-96238657D01*
X54821285Y-96332148D01*
X54537248Y-96483969D01*
X54288286Y-96688286D01*
X54083969Y-96937248D01*
X53932148Y-97221285D01*
X53838657Y-97529484D01*
X53807089Y-97850000D01*
X53838657Y-98170516D01*
X53932148Y-98478715D01*
X54058445Y-98715000D01*
X53669678Y-98715000D01*
X53429484Y-98738657D01*
X53121285Y-98832148D01*
X52837248Y-98983969D01*
X52588286Y-99188286D01*
X52383969Y-99437248D01*
X52232148Y-99721285D01*
X52138657Y-100029484D01*
X52107089Y-100350000D01*
X52138657Y-100670516D01*
X52232148Y-100978715D01*
X52383969Y-101262752D01*
X52588286Y-101511714D01*
X52837248Y-101716031D01*
X53121285Y-101867852D01*
X53429484Y-101961343D01*
X53669678Y-101985000D01*
X54830322Y-101985000D01*
X55070516Y-101961343D01*
X55378715Y-101867852D01*
X55662752Y-101716031D01*
X55911714Y-101511714D01*
X56102701Y-101278995D01*
X56102701Y-103347797D01*
X52724627Y-106725872D01*
X52611714Y-106588286D01*
X52362752Y-106383969D01*
X52078715Y-106232148D01*
X51770516Y-106138657D01*
X51530322Y-106115000D01*
X50369678Y-106115000D01*
X50129484Y-106138657D01*
X49821285Y-106232148D01*
X49537248Y-106383969D01*
X49288286Y-106588286D01*
X49083969Y-106837248D01*
X48932148Y-107121285D01*
X48838657Y-107429484D01*
X48807089Y-107750000D01*
X42660000Y-107750000D01*
X42660000Y-103377000D01*
X45815000Y-103377000D01*
X45815000Y-103877000D01*
X45871193Y-104193532D01*
X45988058Y-104493020D01*
X46161105Y-104763954D01*
X46383683Y-104995922D01*
X46647239Y-105180010D01*
X46941645Y-105309144D01*
X47069566Y-105340124D01*
X47323000Y-105220777D01*
X47323000Y-103377000D01*
X47577000Y-103377000D01*
X47577000Y-105220777D01*
X47830434Y-105340124D01*
X47958355Y-105309144D01*
X48252761Y-105180010D01*
X48516317Y-104995922D01*
X48738895Y-104763954D01*
X48911942Y-104493020D01*
X49028807Y-104193532D01*
X49085000Y-103877000D01*
X49085000Y-103377000D01*
X47577000Y-103377000D01*
X47323000Y-103377000D01*
X45815000Y-103377000D01*
X42660000Y-103377000D01*
X42660000Y-102623000D01*
X45815000Y-102623000D01*
X45815000Y-103123000D01*
X47323000Y-103123000D01*
X47323000Y-101279223D01*
X47577000Y-101279223D01*
X47577000Y-103123000D01*
X49085000Y-103123000D01*
X49085000Y-102623000D01*
X49028807Y-102306468D01*
X48911942Y-102006980D01*
X48738895Y-101736046D01*
X48516317Y-101504078D01*
X48252761Y-101319990D01*
X47958355Y-101190856D01*
X47830434Y-101159876D01*
X47577000Y-101279223D01*
X47323000Y-101279223D01*
X47069566Y-101159876D01*
X46941645Y-101190856D01*
X46647239Y-101319990D01*
X46383683Y-101504078D01*
X46161105Y-101736046D01*
X45988058Y-102006980D01*
X45871193Y-102306468D01*
X45815000Y-102623000D01*
X42660000Y-102623000D01*
X42660000Y-94000000D01*
X46898057Y-94000000D01*
X46925764Y-94281309D01*
X47007818Y-94551808D01*
X47141068Y-94801101D01*
X47320392Y-95019608D01*
X47538899Y-95198932D01*
X47788192Y-95332182D01*
X48058691Y-95414236D01*
X48269508Y-95435000D01*
X48410492Y-95435000D01*
X48621309Y-95414236D01*
X48891808Y-95332182D01*
X49141101Y-95198932D01*
X49359608Y-95019608D01*
X49538932Y-94801101D01*
X49672182Y-94551808D01*
X49754236Y-94281309D01*
X49781943Y-94000000D01*
X49754236Y-93718691D01*
X49672182Y-93448192D01*
X49538932Y-93198899D01*
X49359608Y-92980392D01*
X49141101Y-92801068D01*
X48891808Y-92667818D01*
X48621309Y-92585764D01*
X48410492Y-92565000D01*
X48269508Y-92565000D01*
X48058691Y-92585764D01*
X47788192Y-92667818D01*
X47538899Y-92801068D01*
X47320392Y-92980392D01*
X47141068Y-93198899D01*
X47007818Y-93448192D01*
X46925764Y-93718691D01*
X46898057Y-94000000D01*
X42660000Y-94000000D01*
X42660000Y-90116544D01*
X56645000Y-90116544D01*
X56645000Y-90383456D01*
X56697072Y-90645239D01*
X56799215Y-90891833D01*
X56947503Y-91113762D01*
X57136238Y-91302497D01*
X57358167Y-91450785D01*
X57604761Y-91552928D01*
X57866544Y-91605000D01*
X58133456Y-91605000D01*
X58395239Y-91552928D01*
X58641833Y-91450785D01*
X58863762Y-91302497D01*
X59052497Y-91113762D01*
X59200785Y-90891833D01*
X59302928Y-90645239D01*
X59355000Y-90383456D01*
X59355000Y-90116544D01*
X59302928Y-89854761D01*
X59200785Y-89608167D01*
X59052497Y-89386238D01*
X58863762Y-89197503D01*
X58760000Y-89128172D01*
X58760000Y-89019901D01*
X59374805Y-88405097D01*
X59487503Y-88573762D01*
X59676238Y-88762497D01*
X59898167Y-88910785D01*
X60144761Y-89012928D01*
X60406544Y-89065000D01*
X60673456Y-89065000D01*
X60935239Y-89012928D01*
X61181833Y-88910785D01*
X61403762Y-88762497D01*
X61592497Y-88573762D01*
X61740785Y-88351833D01*
X61842928Y-88105239D01*
X61895000Y-87843456D01*
X61895000Y-87576544D01*
X61842928Y-87314761D01*
X61740785Y-87068167D01*
X61592497Y-86846238D01*
X61581330Y-86835071D01*
X64764700Y-83651702D01*
X64764701Y-103342355D01*
X64741514Y-103263329D01*
X64486004Y-103142429D01*
X64211816Y-103073700D01*
X63929488Y-103059783D01*
X63649870Y-103101213D01*
X63383708Y-103196397D01*
X63258486Y-103263329D01*
X63186903Y-103507298D01*
X64000000Y-104320395D01*
X64014143Y-104306253D01*
X64193748Y-104485858D01*
X64179605Y-104500000D01*
X64992702Y-105313097D01*
X65236671Y-105241514D01*
X65311462Y-105083451D01*
X65738903Y-105510892D01*
X65669463Y-105595506D01*
X65610498Y-105705820D01*
X65574188Y-105825518D01*
X65561928Y-105950000D01*
X65561928Y-107550000D01*
X65574188Y-107674482D01*
X65610498Y-107794180D01*
X65669463Y-107904494D01*
X65748815Y-108001185D01*
X65845506Y-108080537D01*
X65955820Y-108139502D01*
X66075518Y-108175812D01*
X66200000Y-108188072D01*
X67800000Y-108188072D01*
X67924482Y-108175812D01*
X68044180Y-108139502D01*
X68154494Y-108080537D01*
X68251185Y-108001185D01*
X68330537Y-107904494D01*
X68389502Y-107794180D01*
X68425812Y-107674482D01*
X68427581Y-107656518D01*
X68520392Y-107769608D01*
X68738899Y-107948932D01*
X68988192Y-108082182D01*
X69258691Y-108164236D01*
X69469508Y-108185000D01*
X69610492Y-108185000D01*
X69821309Y-108164236D01*
X70091808Y-108082182D01*
X70341101Y-107948932D01*
X70559608Y-107769608D01*
X70738932Y-107551101D01*
X70810000Y-107418142D01*
X70881068Y-107551101D01*
X71060392Y-107769608D01*
X71278899Y-107948932D01*
X71528192Y-108082182D01*
X71798691Y-108164236D01*
X72009508Y-108185000D01*
X72150492Y-108185000D01*
X72361309Y-108164236D01*
X72631808Y-108082182D01*
X72881101Y-107948932D01*
X73099608Y-107769608D01*
X73278932Y-107551101D01*
X73350000Y-107418142D01*
X73421068Y-107551101D01*
X73600392Y-107769608D01*
X73818899Y-107948932D01*
X74068192Y-108082182D01*
X74338691Y-108164236D01*
X74549508Y-108185000D01*
X74690492Y-108185000D01*
X74901309Y-108164236D01*
X75171808Y-108082182D01*
X75421101Y-107948932D01*
X75639608Y-107769608D01*
X75818932Y-107551101D01*
X75952182Y-107301808D01*
X76034236Y-107031309D01*
X76061943Y-106750000D01*
X76034236Y-106468691D01*
X75952182Y-106198192D01*
X75818932Y-105948899D01*
X75639608Y-105730392D01*
X75421101Y-105551068D01*
X75171808Y-105417818D01*
X74901309Y-105335764D01*
X74690492Y-105315000D01*
X74549508Y-105315000D01*
X74338691Y-105335764D01*
X74068192Y-105417818D01*
X73818899Y-105551068D01*
X73600392Y-105730392D01*
X73421068Y-105948899D01*
X73350000Y-106081858D01*
X73278932Y-105948899D01*
X73099608Y-105730392D01*
X72881101Y-105551068D01*
X72631808Y-105417818D01*
X72361309Y-105335764D01*
X72150492Y-105315000D01*
X72009508Y-105315000D01*
X71798691Y-105335764D01*
X71528192Y-105417818D01*
X71278899Y-105551068D01*
X71060392Y-105730392D01*
X70881068Y-105948899D01*
X70810000Y-106081858D01*
X70738932Y-105948899D01*
X70559608Y-105730392D01*
X70531872Y-105707630D01*
X71176303Y-105063199D01*
X71205301Y-105039401D01*
X71300274Y-104923676D01*
X71370846Y-104791647D01*
X71414303Y-104648386D01*
X71425300Y-104536733D01*
X71428977Y-104499400D01*
X71425300Y-104462067D01*
X71425300Y-100400134D01*
X71596913Y-100481246D01*
X71730961Y-100521904D01*
X71953000Y-100399915D01*
X71953000Y-99257000D01*
X71933000Y-99257000D01*
X71933000Y-99003000D01*
X71953000Y-99003000D01*
X71953000Y-97860085D01*
X72207000Y-97860085D01*
X72207000Y-99003000D01*
X72227000Y-99003000D01*
X72227000Y-99257000D01*
X72207000Y-99257000D01*
X72207000Y-100399915D01*
X72429039Y-100521904D01*
X72563087Y-100481246D01*
X72817420Y-100361037D01*
X73043414Y-100193519D01*
X73232385Y-99985131D01*
X73347421Y-99793318D01*
X73421068Y-99931101D01*
X73600392Y-100149608D01*
X73818899Y-100328932D01*
X74068192Y-100462182D01*
X74338691Y-100544236D01*
X74549508Y-100565000D01*
X74690492Y-100565000D01*
X74901309Y-100544236D01*
X75171808Y-100462182D01*
X75421101Y-100328932D01*
X75639608Y-100149608D01*
X75818932Y-99931101D01*
X75952182Y-99681808D01*
X76034236Y-99411309D01*
X76061943Y-99130000D01*
X76034236Y-98848691D01*
X75952182Y-98578192D01*
X75818932Y-98328899D01*
X75639608Y-98110392D01*
X75421101Y-97931068D01*
X75171808Y-97797818D01*
X74901309Y-97715764D01*
X74690492Y-97695000D01*
X74549508Y-97695000D01*
X74338691Y-97715764D01*
X74068192Y-97797818D01*
X73818899Y-97931068D01*
X73600392Y-98110392D01*
X73421068Y-98328899D01*
X73347421Y-98466682D01*
X73232385Y-98274869D01*
X73043414Y-98066481D01*
X72817420Y-97898963D01*
X72563087Y-97778754D01*
X72429039Y-97738096D01*
X72207000Y-97860085D01*
X71953000Y-97860085D01*
X71730961Y-97738096D01*
X71596913Y-97778754D01*
X71425300Y-97859866D01*
X71425300Y-97489501D01*
X72886403Y-96028399D01*
X72915401Y-96004601D01*
X73010374Y-95888876D01*
X73080946Y-95756847D01*
X73124403Y-95613586D01*
X73135400Y-95501933D01*
X73139077Y-95464600D01*
X73135400Y-95427267D01*
X73135400Y-94796723D01*
X73263996Y-94857571D01*
X73538184Y-94926300D01*
X73820512Y-94940217D01*
X74100130Y-94898787D01*
X74366292Y-94803603D01*
X74491514Y-94736671D01*
X74563097Y-94492702D01*
X73750000Y-93679605D01*
X73735858Y-93693748D01*
X73556253Y-93514143D01*
X73570395Y-93500000D01*
X73929605Y-93500000D01*
X74742702Y-94313097D01*
X74986671Y-94241514D01*
X75107571Y-93986004D01*
X75176300Y-93711816D01*
X75190217Y-93429488D01*
X75148787Y-93149870D01*
X75053603Y-92883708D01*
X74986671Y-92758486D01*
X74742702Y-92686903D01*
X73929605Y-93500000D01*
X73570395Y-93500000D01*
X73556253Y-93485858D01*
X73735858Y-93306253D01*
X73750000Y-93320395D01*
X74563097Y-92507298D01*
X74491514Y-92263329D01*
X74236004Y-92142429D01*
X73961816Y-92073700D01*
X73679488Y-92059783D01*
X73399870Y-92101213D01*
X73135400Y-92195792D01*
X73135400Y-91309201D01*
X74255703Y-90188899D01*
X74284701Y-90165101D01*
X74379674Y-90049376D01*
X74450246Y-89917347D01*
X74493703Y-89774086D01*
X74504700Y-89662433D01*
X74504700Y-89662425D01*
X74508376Y-89625100D01*
X74504700Y-89587775D01*
X74504700Y-88886972D01*
X74520961Y-88891904D01*
X74743000Y-88769915D01*
X74743000Y-87627000D01*
X74997000Y-87627000D01*
X74997000Y-88769915D01*
X75219039Y-88891904D01*
X75353087Y-88851246D01*
X75607420Y-88731037D01*
X75833414Y-88563519D01*
X76022385Y-88355131D01*
X76167070Y-88113881D01*
X76261909Y-87849040D01*
X76140624Y-87627000D01*
X74997000Y-87627000D01*
X74743000Y-87627000D01*
X74723000Y-87627000D01*
X74723000Y-87373000D01*
X74743000Y-87373000D01*
X74743000Y-86230085D01*
X74997000Y-86230085D01*
X74997000Y-87373000D01*
X76140624Y-87373000D01*
X76261909Y-87150960D01*
X76167070Y-86886119D01*
X76022385Y-86644869D01*
X75833414Y-86436481D01*
X75607420Y-86268963D01*
X75353087Y-86148754D01*
X75219039Y-86108096D01*
X74997000Y-86230085D01*
X74743000Y-86230085D01*
X74520961Y-86108096D01*
X74504700Y-86113028D01*
X74504700Y-82445401D01*
X75381003Y-81569099D01*
X75410001Y-81545301D01*
X75504974Y-81429576D01*
X75575546Y-81297547D01*
X75619003Y-81154286D01*
X75623942Y-81104139D01*
X75671101Y-81078932D01*
X75889608Y-80899608D01*
X76068932Y-80681101D01*
X76202182Y-80431808D01*
X76284236Y-80161309D01*
X76311943Y-79880000D01*
X76284236Y-79598691D01*
X76202182Y-79328192D01*
X76068932Y-79078899D01*
X75889608Y-78860392D01*
X75671101Y-78681068D01*
X75421808Y-78547818D01*
X75151309Y-78465764D01*
X74940492Y-78445000D01*
X74799508Y-78445000D01*
X74588691Y-78465764D01*
X74318192Y-78547818D01*
X74068899Y-78681068D01*
X73850392Y-78860392D01*
X73671068Y-79078899D01*
X73600000Y-79211858D01*
X73528932Y-79078899D01*
X73349608Y-78860392D01*
X73131101Y-78681068D01*
X72881808Y-78547818D01*
X72611309Y-78465764D01*
X72400492Y-78445000D01*
X72259508Y-78445000D01*
X72048691Y-78465764D01*
X71778192Y-78547818D01*
X71528899Y-78681068D01*
X71310392Y-78860392D01*
X71131068Y-79078899D01*
X71060000Y-79211858D01*
X70988932Y-79078899D01*
X70809608Y-78860392D01*
X70591101Y-78681068D01*
X70341808Y-78547818D01*
X70071309Y-78465764D01*
X69860492Y-78445000D01*
X69719508Y-78445000D01*
X69508691Y-78465764D01*
X69238192Y-78547818D01*
X68988899Y-78681068D01*
X68897214Y-78756312D01*
X68384603Y-78243702D01*
X68360801Y-78214699D01*
X68245076Y-78119726D01*
X68113047Y-78049154D01*
X67969786Y-78005697D01*
X67858133Y-77994700D01*
X67858122Y-77994700D01*
X67820800Y-77991024D01*
X67783478Y-77994700D01*
X66816323Y-77994700D01*
X66779000Y-77991024D01*
X66741677Y-77994700D01*
X66741667Y-77994700D01*
X66630014Y-78005697D01*
X66486753Y-78049154D01*
X66354724Y-78119726D01*
X66238999Y-78214699D01*
X66215201Y-78243697D01*
X65420936Y-79037962D01*
X65379853Y-78831426D01*
X65271680Y-78570273D01*
X65114637Y-78335241D01*
X64914759Y-78135363D01*
X64679727Y-77978320D01*
X64418574Y-77870147D01*
X64141335Y-77815000D01*
X63858665Y-77815000D01*
X63581426Y-77870147D01*
X63320273Y-77978320D01*
X63085241Y-78135363D01*
X62885363Y-78335241D01*
X62728320Y-78570273D01*
X62620147Y-78831426D01*
X62565000Y-79108665D01*
X62565000Y-79391335D01*
X62620147Y-79668574D01*
X62728320Y-79929727D01*
X62885363Y-80164759D01*
X63085241Y-80364637D01*
X63285869Y-80498692D01*
X63258486Y-80513329D01*
X63186903Y-80757298D01*
X64000000Y-81570395D01*
X64014143Y-81556253D01*
X64193748Y-81735858D01*
X64179605Y-81750000D01*
X64193748Y-81764143D01*
X64014143Y-81943748D01*
X64000000Y-81929605D01*
X63186903Y-82742702D01*
X63258486Y-82986671D01*
X63273176Y-82993622D01*
X60510199Y-85756600D01*
X60225822Y-85756600D01*
X60188499Y-85752924D01*
X60151176Y-85756600D01*
X60151167Y-85756600D01*
X60039514Y-85767597D01*
X59896253Y-85811054D01*
X59764224Y-85881626D01*
X59764222Y-85881627D01*
X59764223Y-85881627D01*
X59677496Y-85952801D01*
X59677492Y-85952805D01*
X59648499Y-85976599D01*
X59624705Y-86005592D01*
X57488998Y-88141301D01*
X57460000Y-88165099D01*
X57436202Y-88194097D01*
X57436201Y-88194098D01*
X57365026Y-88280824D01*
X57294454Y-88412854D01*
X57250998Y-88556115D01*
X57236324Y-88705100D01*
X57240001Y-88742432D01*
X57240001Y-89128171D01*
X57136238Y-89197503D01*
X56947503Y-89386238D01*
X56799215Y-89608167D01*
X56697072Y-89854761D01*
X56645000Y-90116544D01*
X42660000Y-90116544D01*
X42660000Y-84700000D01*
X47561928Y-84700000D01*
X47561928Y-86300000D01*
X47574188Y-86424482D01*
X47610498Y-86544180D01*
X47669463Y-86654494D01*
X47748815Y-86751185D01*
X47845506Y-86830537D01*
X47955820Y-86889502D01*
X48051943Y-86918661D01*
X47885363Y-87085241D01*
X47728320Y-87320273D01*
X47620147Y-87581426D01*
X47565000Y-87858665D01*
X47565000Y-88141335D01*
X47620147Y-88418574D01*
X47728320Y-88679727D01*
X47885363Y-88914759D01*
X48085241Y-89114637D01*
X48320273Y-89271680D01*
X48581426Y-89379853D01*
X48858665Y-89435000D01*
X49141335Y-89435000D01*
X49418574Y-89379853D01*
X49679727Y-89271680D01*
X49914759Y-89114637D01*
X50114637Y-88914759D01*
X50271680Y-88679727D01*
X50379853Y-88418574D01*
X50435000Y-88141335D01*
X50435000Y-87858665D01*
X50379853Y-87581426D01*
X50271680Y-87320273D01*
X50114637Y-87085241D01*
X49948057Y-86918661D01*
X50044180Y-86889502D01*
X50154494Y-86830537D01*
X50251185Y-86751185D01*
X50330537Y-86654494D01*
X50389502Y-86544180D01*
X50425812Y-86424482D01*
X50438072Y-86300000D01*
X50438072Y-86105560D01*
X57244045Y-86105560D01*
X57305932Y-86341368D01*
X57547790Y-86454266D01*
X57807027Y-86517811D01*
X58073680Y-86529561D01*
X58337501Y-86489063D01*
X58588353Y-86397875D01*
X58694068Y-86341368D01*
X58755955Y-86105560D01*
X58000000Y-85349605D01*
X57244045Y-86105560D01*
X50438072Y-86105560D01*
X50438072Y-85243680D01*
X56640439Y-85243680D01*
X56680937Y-85507501D01*
X56772125Y-85758353D01*
X56828632Y-85864068D01*
X57064440Y-85925955D01*
X57820395Y-85170000D01*
X58179605Y-85170000D01*
X58935560Y-85925955D01*
X59171368Y-85864068D01*
X59284266Y-85622210D01*
X59347811Y-85362973D01*
X59359561Y-85096320D01*
X59319063Y-84832499D01*
X59227875Y-84581647D01*
X59171368Y-84475932D01*
X58935560Y-84414045D01*
X58179605Y-85170000D01*
X57820395Y-85170000D01*
X57064440Y-84414045D01*
X56828632Y-84475932D01*
X56715734Y-84717790D01*
X56652189Y-84977027D01*
X56640439Y-85243680D01*
X50438072Y-85243680D01*
X50438072Y-84700000D01*
X50425812Y-84575518D01*
X50389502Y-84455820D01*
X50330537Y-84345506D01*
X50251185Y-84248815D01*
X50233669Y-84234440D01*
X57244045Y-84234440D01*
X58000000Y-84990395D01*
X58755955Y-84234440D01*
X58694068Y-83998632D01*
X58452210Y-83885734D01*
X58192973Y-83822189D01*
X57926320Y-83810439D01*
X57662499Y-83850937D01*
X57411647Y-83942125D01*
X57305932Y-83998632D01*
X57244045Y-84234440D01*
X50233669Y-84234440D01*
X50154494Y-84169463D01*
X50044180Y-84110498D01*
X49924482Y-84074188D01*
X49800000Y-84061928D01*
X48200000Y-84061928D01*
X48075518Y-84074188D01*
X47955820Y-84110498D01*
X47845506Y-84169463D01*
X47748815Y-84248815D01*
X47669463Y-84345506D01*
X47610498Y-84455820D01*
X47574188Y-84575518D01*
X47561928Y-84700000D01*
X42660000Y-84700000D01*
X42660000Y-81820512D01*
X62559783Y-81820512D01*
X62601213Y-82100130D01*
X62696397Y-82366292D01*
X62763329Y-82491514D01*
X63007298Y-82563097D01*
X63820395Y-81750000D01*
X63007298Y-80936903D01*
X62763329Y-81008486D01*
X62642429Y-81263996D01*
X62573700Y-81538184D01*
X62559783Y-81820512D01*
X42660000Y-81820512D01*
X42660000Y-77127000D01*
X74427598Y-77127000D01*
X76835100Y-79534503D01*
X76835100Y-79534503D01*
G37*
X76835100Y-79534503D02*
X76835100Y-79596639D01*
X76874874Y-79796598D01*
X76952895Y-79984956D01*
X77066163Y-80154474D01*
X77210326Y-80298637D01*
X77379844Y-80411905D01*
X77568202Y-80489926D01*
X77768161Y-80529700D01*
X77972039Y-80529700D01*
X78171998Y-80489926D01*
X78360356Y-80411905D01*
X78520000Y-80305234D01*
X78520001Y-87288168D01*
X78516324Y-87325500D01*
X78520001Y-87362833D01*
X78530998Y-87474486D01*
X78544180Y-87517942D01*
X78574454Y-87617746D01*
X78645026Y-87749776D01*
X78670905Y-87781309D01*
X78740000Y-87865501D01*
X78768998Y-87889299D01*
X80873000Y-89993301D01*
X80873000Y-129762897D01*
X79099104Y-127989002D01*
X79075301Y-127959999D01*
X78959576Y-127865026D01*
X78827547Y-127794454D01*
X78684286Y-127750997D01*
X78634139Y-127746058D01*
X78608932Y-127698899D01*
X78429608Y-127480392D01*
X78211101Y-127301068D01*
X77961808Y-127167818D01*
X77691309Y-127085764D01*
X77480492Y-127065000D01*
X77339508Y-127065000D01*
X77128691Y-127085764D01*
X76858192Y-127167818D01*
X76608899Y-127301068D01*
X76390392Y-127480392D01*
X76211068Y-127698899D01*
X76077818Y-127948192D01*
X75995764Y-128218691D01*
X75968057Y-128500000D01*
X75995764Y-128781309D01*
X76077818Y-129051808D01*
X76211068Y-129301101D01*
X76390392Y-129519608D01*
X76608899Y-129698932D01*
X76858192Y-129832182D01*
X77128691Y-129914236D01*
X77339508Y-129935000D01*
X77480492Y-129935000D01*
X77691309Y-129914236D01*
X77961808Y-129832182D01*
X78211101Y-129698932D01*
X78429608Y-129519608D01*
X78452370Y-129491872D01*
X80021405Y-131060908D01*
X80045199Y-131089901D01*
X80074192Y-131113695D01*
X80074196Y-131113699D01*
X80144885Y-131171711D01*
X80160924Y-131184874D01*
X80264056Y-131240000D01*
X78630901Y-131240000D01*
X78608932Y-131198899D01*
X78429608Y-130980392D01*
X78211101Y-130801068D01*
X77961808Y-130667818D01*
X77691309Y-130585764D01*
X77480492Y-130565000D01*
X77339508Y-130565000D01*
X77128691Y-130585764D01*
X76858192Y-130667818D01*
X76608899Y-130801068D01*
X76390392Y-130980392D01*
X76211068Y-131198899D01*
X76077818Y-131448192D01*
X75995764Y-131718691D01*
X75968057Y-132000000D01*
X75995764Y-132281309D01*
X76077818Y-132551808D01*
X76211068Y-132801101D01*
X76390392Y-133019608D01*
X76608899Y-133198932D01*
X76858192Y-133332182D01*
X77128691Y-133414236D01*
X77339508Y-133435000D01*
X77480492Y-133435000D01*
X77691309Y-133414236D01*
X77961808Y-133332182D01*
X78211101Y-133198932D01*
X78429608Y-133019608D01*
X78608932Y-132801101D01*
X78630901Y-132760000D01*
X80873000Y-132760000D01*
X80873000Y-135340000D01*
X42660000Y-135340000D01*
X42660000Y-131279872D01*
X45265000Y-131279872D01*
X45265000Y-131720128D01*
X45350890Y-132151925D01*
X45519369Y-132558669D01*
X45763962Y-132924729D01*
X46075271Y-133236038D01*
X46441331Y-133480631D01*
X46848075Y-133649110D01*
X47279872Y-133735000D01*
X47720128Y-133735000D01*
X48151925Y-133649110D01*
X48558669Y-133480631D01*
X48924729Y-133236038D01*
X49236038Y-132924729D01*
X49480631Y-132558669D01*
X49649110Y-132151925D01*
X49735000Y-131720128D01*
X49735000Y-131279872D01*
X49649110Y-130848075D01*
X49480631Y-130441331D01*
X49236038Y-130075271D01*
X48924729Y-129763962D01*
X48558669Y-129519369D01*
X48151925Y-129350890D01*
X47720128Y-129265000D01*
X47279872Y-129265000D01*
X46848075Y-129350890D01*
X46441331Y-129519369D01*
X46075271Y-129763962D01*
X45763962Y-130075271D01*
X45519369Y-130441331D01*
X45350890Y-130848075D01*
X45265000Y-131279872D01*
X42660000Y-131279872D01*
X42660000Y-124858665D01*
X65815000Y-124858665D01*
X65815000Y-125141335D01*
X65870147Y-125418574D01*
X65978320Y-125679727D01*
X66135363Y-125914759D01*
X66335241Y-126114637D01*
X66490001Y-126218044D01*
X66490000Y-127281956D01*
X66335241Y-127385363D01*
X66135363Y-127585241D01*
X65978320Y-127820273D01*
X65870147Y-128081426D01*
X65815000Y-128358665D01*
X65815000Y-128641335D01*
X65870147Y-128918574D01*
X65978320Y-129179727D01*
X66135363Y-129414759D01*
X66335241Y-129614637D01*
X66490001Y-129718044D01*
X66490000Y-130781956D01*
X66335241Y-130885363D01*
X66135363Y-131085241D01*
X65978320Y-131320273D01*
X65870147Y-131581426D01*
X65815000Y-131858665D01*
X65815000Y-132141335D01*
X65870147Y-132418574D01*
X65978320Y-132679727D01*
X66135363Y-132914759D01*
X66335241Y-133114637D01*
X66570273Y-133271680D01*
X66831426Y-133379853D01*
X67108665Y-133435000D01*
X67391335Y-133435000D01*
X67668574Y-133379853D01*
X67929727Y-133271680D01*
X68164759Y-133114637D01*
X68364637Y-132914759D01*
X68521680Y-132679727D01*
X68629853Y-132418574D01*
X68685000Y-132141335D01*
X68685000Y-131858665D01*
X68629853Y-131581426D01*
X68521680Y-131320273D01*
X68364637Y-131085241D01*
X68164759Y-130885363D01*
X68010000Y-130781957D01*
X68010000Y-129718043D01*
X68164759Y-129614637D01*
X68364637Y-129414759D01*
X68521680Y-129179727D01*
X68629853Y-128918574D01*
X68685000Y-128641335D01*
X68685000Y-128358665D01*
X68629853Y-128081426D01*
X68521680Y-127820273D01*
X68364637Y-127585241D01*
X68164759Y-127385363D01*
X68010000Y-127281957D01*
X68010000Y-126218043D01*
X68164759Y-126114637D01*
X68364637Y-125914759D01*
X68521680Y-125679727D01*
X68629853Y-125418574D01*
X68685000Y-125141335D01*
X68685000Y-125000000D01*
X75968057Y-125000000D01*
X75995764Y-125281309D01*
X76077818Y-125551808D01*
X76211068Y-125801101D01*
X76390392Y-126019608D01*
X76608899Y-126198932D01*
X76858192Y-126332182D01*
X77128691Y-126414236D01*
X77339508Y-126435000D01*
X77480492Y-126435000D01*
X77691309Y-126414236D01*
X77961808Y-126332182D01*
X78211101Y-126198932D01*
X78429608Y-126019608D01*
X78608932Y-125801101D01*
X78742182Y-125551808D01*
X78824236Y-125281309D01*
X78851943Y-125000000D01*
X78824236Y-124718691D01*
X78742182Y-124448192D01*
X78608932Y-124198899D01*
X78429608Y-123980392D01*
X78211101Y-123801068D01*
X77961808Y-123667818D01*
X77691309Y-123585764D01*
X77480492Y-123565000D01*
X77339508Y-123565000D01*
X77128691Y-123585764D01*
X76858192Y-123667818D01*
X76608899Y-123801068D01*
X76390392Y-123980392D01*
X76211068Y-124198899D01*
X76077818Y-124448192D01*
X75995764Y-124718691D01*
X75968057Y-125000000D01*
X68685000Y-125000000D01*
X68685000Y-124858665D01*
X68648688Y-124676114D01*
X70261004Y-123063798D01*
X70290001Y-123040001D01*
X70316332Y-123007917D01*
X70384974Y-122924277D01*
X70455546Y-122792247D01*
X70455546Y-122792246D01*
X70499003Y-122648986D01*
X70510000Y-122537333D01*
X70510000Y-122537323D01*
X70513676Y-122500000D01*
X70510000Y-122462677D01*
X70510000Y-122121828D01*
X70613762Y-122052497D01*
X70802497Y-121863762D01*
X70950785Y-121641833D01*
X71052928Y-121395239D01*
X71105000Y-121133456D01*
X71105000Y-120866544D01*
X71052928Y-120604761D01*
X70950785Y-120358167D01*
X70802497Y-120136238D01*
X70613762Y-119947503D01*
X70391833Y-119799215D01*
X70145239Y-119697072D01*
X69883456Y-119645000D01*
X69616544Y-119645000D01*
X69354761Y-119697072D01*
X69108167Y-119799215D01*
X68886238Y-119947503D01*
X68697503Y-120136238D01*
X68549215Y-120358167D01*
X68447072Y-120604761D01*
X68395000Y-120866544D01*
X68395000Y-121133456D01*
X68447072Y-121395239D01*
X68549215Y-121641833D01*
X68697503Y-121863762D01*
X68886238Y-122052497D01*
X68990000Y-122121829D01*
X68990000Y-122185198D01*
X67573886Y-123601312D01*
X67391335Y-123565000D01*
X67108665Y-123565000D01*
X66831426Y-123620147D01*
X66570273Y-123728320D01*
X66335241Y-123885363D01*
X66135363Y-124085241D01*
X65978320Y-124320273D01*
X65870147Y-124581426D01*
X65815000Y-124858665D01*
X42660000Y-124858665D01*
X42660000Y-118326544D01*
X70935000Y-118326544D01*
X70935000Y-118593456D01*
X70987072Y-118855239D01*
X71089215Y-119101833D01*
X71237503Y-119323762D01*
X71426238Y-119512497D01*
X71648167Y-119660785D01*
X71894761Y-119762928D01*
X72156544Y-119815000D01*
X72423456Y-119815000D01*
X72685239Y-119762928D01*
X72931833Y-119660785D01*
X73153762Y-119512497D01*
X73342497Y-119323762D01*
X73490785Y-119101833D01*
X73592928Y-118855239D01*
X73645000Y-118593456D01*
X73645000Y-118326544D01*
X73592928Y-118064761D01*
X73490785Y-117818167D01*
X73342497Y-117596238D01*
X73153762Y-117407503D01*
X72931833Y-117259215D01*
X72685239Y-117157072D01*
X72423456Y-117105000D01*
X72156544Y-117105000D01*
X71894761Y-117157072D01*
X71648167Y-117259215D01*
X71426238Y-117407503D01*
X71237503Y-117596238D01*
X71089215Y-117818167D01*
X70987072Y-118064761D01*
X70935000Y-118326544D01*
X42660000Y-118326544D01*
X42660000Y-116855560D01*
X68994045Y-116855560D01*
X69055932Y-117091368D01*
X69297790Y-117204266D01*
X69557027Y-117267811D01*
X69823680Y-117279561D01*
X70087501Y-117239063D01*
X70338353Y-117147875D01*
X70444068Y-117091368D01*
X70505955Y-116855560D01*
X69750000Y-116099605D01*
X68994045Y-116855560D01*
X42660000Y-116855560D01*
X42660000Y-115993680D01*
X68390439Y-115993680D01*
X68430937Y-116257501D01*
X68522125Y-116508353D01*
X68578632Y-116614068D01*
X68814440Y-116675955D01*
X69570395Y-115920000D01*
X69929605Y-115920000D01*
X70685560Y-116675955D01*
X70921368Y-116614068D01*
X71034266Y-116372210D01*
X71097811Y-116112973D01*
X71109561Y-115846320D01*
X71069063Y-115582499D01*
X70977875Y-115331647D01*
X70921368Y-115225932D01*
X70685560Y-115164045D01*
X69929605Y-115920000D01*
X69570395Y-115920000D01*
X68814440Y-115164045D01*
X68578632Y-115225932D01*
X68465734Y-115467790D01*
X68402189Y-115727027D01*
X68390439Y-115993680D01*
X42660000Y-115993680D01*
X42660000Y-114984440D01*
X68994045Y-114984440D01*
X69750000Y-115740395D01*
X70505955Y-114984440D01*
X70444068Y-114748632D01*
X70202210Y-114635734D01*
X69942973Y-114572189D01*
X69676320Y-114560439D01*
X69412499Y-114600937D01*
X69161647Y-114692125D01*
X69055932Y-114748632D01*
X68994045Y-114984440D01*
X42660000Y-114984440D01*
X42660000Y-107750000D01*
X48807089Y-107750000D01*
X48838657Y-108070516D01*
X48932148Y-108378715D01*
X49083969Y-108662752D01*
X49288286Y-108911714D01*
X49537248Y-109116031D01*
X49821285Y-109267852D01*
X50129484Y-109361343D01*
X50369678Y-109385000D01*
X51530322Y-109385000D01*
X51770516Y-109361343D01*
X52078715Y-109267852D01*
X52362752Y-109116031D01*
X52611714Y-108911714D01*
X52816031Y-108662752D01*
X52902405Y-108501158D01*
X52924286Y-108499003D01*
X53067547Y-108455546D01*
X53199576Y-108384974D01*
X53315301Y-108290001D01*
X53339104Y-108260997D01*
X57061250Y-104538852D01*
X58077793Y-105555395D01*
X57837248Y-105683969D01*
X57588286Y-105888286D01*
X57383969Y-106137249D01*
X57232148Y-106421286D01*
X57138657Y-106729485D01*
X57115000Y-106969679D01*
X57115000Y-108130322D01*
X57138657Y-108370516D01*
X57232148Y-108678715D01*
X57383970Y-108962752D01*
X57588287Y-109211714D01*
X57837249Y-109416031D01*
X58121286Y-109567852D01*
X58429485Y-109661343D01*
X58750000Y-109692911D01*
X59070516Y-109661343D01*
X59378715Y-109567852D01*
X59662752Y-109416031D01*
X59911714Y-109211714D01*
X60116031Y-108962752D01*
X60267852Y-108678715D01*
X60361343Y-108370516D01*
X60385000Y-108130322D01*
X60385000Y-107862602D01*
X62740000Y-110217603D01*
X62740000Y-110781956D01*
X62585241Y-110885363D01*
X62385363Y-111085241D01*
X62228320Y-111320273D01*
X62120147Y-111581426D01*
X62065000Y-111858665D01*
X62065000Y-112141335D01*
X62120147Y-112418574D01*
X62228320Y-112679727D01*
X62385363Y-112914759D01*
X62585241Y-113114637D01*
X62820273Y-113271680D01*
X63081426Y-113379853D01*
X63358665Y-113435000D01*
X63641335Y-113435000D01*
X63918574Y-113379853D01*
X64179727Y-113271680D01*
X64414759Y-113114637D01*
X64614637Y-112914759D01*
X64771680Y-112679727D01*
X64879853Y-112418574D01*
X64935000Y-112141335D01*
X64935000Y-112000000D01*
X72218057Y-112000000D01*
X72245764Y-112281309D01*
X72327818Y-112551808D01*
X72461068Y-112801101D01*
X72640392Y-113019608D01*
X72858899Y-113198932D01*
X73108192Y-113332182D01*
X73378691Y-113414236D01*
X73589508Y-113435000D01*
X73730492Y-113435000D01*
X73941309Y-113414236D01*
X74100310Y-113366004D01*
X74150326Y-113459576D01*
X74190171Y-113508126D01*
X74245299Y-113575301D01*
X74274303Y-113599104D01*
X76601312Y-115926114D01*
X76565000Y-116108665D01*
X76565000Y-116391335D01*
X76620147Y-116668574D01*
X76728320Y-116929727D01*
X76885363Y-117164759D01*
X77051943Y-117331339D01*
X76955820Y-117360498D01*
X76845506Y-117419463D01*
X76748815Y-117498815D01*
X76669463Y-117595506D01*
X76610498Y-117705820D01*
X76574188Y-117825518D01*
X76561928Y-117950000D01*
X76561928Y-119550000D01*
X76574188Y-119674482D01*
X76610498Y-119794180D01*
X76669463Y-119904494D01*
X76748815Y-120001185D01*
X76845506Y-120080537D01*
X76955820Y-120139502D01*
X77075518Y-120175812D01*
X77200000Y-120188072D01*
X78800000Y-120188072D01*
X78924482Y-120175812D01*
X79044180Y-120139502D01*
X79154494Y-120080537D01*
X79251185Y-120001185D01*
X79330537Y-119904494D01*
X79389502Y-119794180D01*
X79425812Y-119674482D01*
X79438072Y-119550000D01*
X79438072Y-117950000D01*
X79425812Y-117825518D01*
X79389502Y-117705820D01*
X79330537Y-117595506D01*
X79251185Y-117498815D01*
X79154494Y-117419463D01*
X79044180Y-117360498D01*
X78948057Y-117331339D01*
X79114637Y-117164759D01*
X79271680Y-116929727D01*
X79379853Y-116668574D01*
X79435000Y-116391335D01*
X79435000Y-116108665D01*
X79379853Y-115831426D01*
X79271680Y-115570273D01*
X79114637Y-115335241D01*
X78914759Y-115135363D01*
X78679727Y-114978320D01*
X78418574Y-114870147D01*
X78141335Y-114815000D01*
X77858665Y-114815000D01*
X77676114Y-114851312D01*
X75545300Y-112720499D01*
X75545300Y-112037333D01*
X75548977Y-112000000D01*
X75534303Y-111851014D01*
X75490846Y-111707753D01*
X75420274Y-111575724D01*
X75325301Y-111459999D01*
X75209576Y-111365026D01*
X75077547Y-111294454D01*
X74934286Y-111250997D01*
X74884139Y-111246058D01*
X74858932Y-111198899D01*
X74679608Y-110980392D01*
X74461101Y-110801068D01*
X74211808Y-110667818D01*
X73941309Y-110585764D01*
X73730492Y-110565000D01*
X73589508Y-110565000D01*
X73378691Y-110585764D01*
X73108192Y-110667818D01*
X72858899Y-110801068D01*
X72640392Y-110980392D01*
X72461068Y-111198899D01*
X72327818Y-111448192D01*
X72245764Y-111718691D01*
X72218057Y-112000000D01*
X64935000Y-112000000D01*
X64935000Y-111858665D01*
X64879853Y-111581426D01*
X64771680Y-111320273D01*
X64614637Y-111085241D01*
X64414759Y-110885363D01*
X64260000Y-110781957D01*
X64260000Y-109940122D01*
X64263676Y-109902799D01*
X64260000Y-109865476D01*
X64260000Y-109865467D01*
X64249003Y-109753814D01*
X64205546Y-109610553D01*
X64134974Y-109478524D01*
X64121811Y-109462485D01*
X64063799Y-109391796D01*
X64063795Y-109391792D01*
X64040001Y-109362799D01*
X64011009Y-109339006D01*
X61530668Y-106858665D01*
X62565000Y-106858665D01*
X62565000Y-107141335D01*
X62620147Y-107418574D01*
X62728320Y-107679727D01*
X62885363Y-107914759D01*
X63085241Y-108114637D01*
X63320273Y-108271680D01*
X63581426Y-108379853D01*
X63858665Y-108435000D01*
X64141335Y-108435000D01*
X64418574Y-108379853D01*
X64679727Y-108271680D01*
X64914759Y-108114637D01*
X65114637Y-107914759D01*
X65271680Y-107679727D01*
X65379853Y-107418574D01*
X65435000Y-107141335D01*
X65435000Y-106858665D01*
X65379853Y-106581426D01*
X65271680Y-106320273D01*
X65114637Y-106085241D01*
X64914759Y-105885363D01*
X64714131Y-105751308D01*
X64741514Y-105736671D01*
X64813097Y-105492702D01*
X64000000Y-104679605D01*
X63186903Y-105492702D01*
X63258486Y-105736671D01*
X63287341Y-105750324D01*
X63085241Y-105885363D01*
X62885363Y-106085241D01*
X62728320Y-106320273D01*
X62620147Y-106581426D01*
X62565000Y-106858665D01*
X61530668Y-106858665D01*
X59242514Y-104570512D01*
X62559783Y-104570512D01*
X62601213Y-104850130D01*
X62696397Y-105116292D01*
X62763329Y-105241514D01*
X63007298Y-105313097D01*
X63820395Y-104500000D01*
X63007298Y-103686903D01*
X62763329Y-103758486D01*
X62642429Y-104013996D01*
X62573700Y-104288184D01*
X62559783Y-104570512D01*
X59242514Y-104570512D01*
X57823604Y-103151603D01*
X57799801Y-103122599D01*
X57684076Y-103027626D01*
X57622700Y-102994819D01*
X57622700Y-98998327D01*
X57816031Y-98762752D01*
X57967852Y-98478715D01*
X58061343Y-98170516D01*
X58092911Y-97850000D01*
X58078977Y-97708525D01*
X59011004Y-96776498D01*
X59040001Y-96752701D01*
X59134974Y-96636976D01*
X59205546Y-96504947D01*
X59249003Y-96361686D01*
X59260000Y-96250033D01*
X59260000Y-96250023D01*
X59263676Y-96212700D01*
X59260000Y-96175377D01*
X59260000Y-95218043D01*
X59414759Y-95114637D01*
X59614637Y-94914759D01*
X59771680Y-94679727D01*
X59879853Y-94418574D01*
X59935000Y-94141335D01*
X59935000Y-93858665D01*
X59879853Y-93581426D01*
X59771680Y-93320273D01*
X59614637Y-93085241D01*
X59414759Y-92885363D01*
X59179727Y-92728320D01*
X58918574Y-92620147D01*
X58641335Y-92565000D01*
X58358665Y-92565000D01*
X58081426Y-92620147D01*
X57820273Y-92728320D01*
X57585241Y-92885363D01*
X57385363Y-93085241D01*
X57228320Y-93320273D01*
X57120147Y-93581426D01*
X57065000Y-93858665D01*
X57065000Y-94141335D01*
X57120147Y-94418574D01*
X57228320Y-94679727D01*
X57385363Y-94914759D01*
X57585241Y-95114637D01*
X57740000Y-95218044D01*
X57740000Y-95897898D01*
X57226668Y-96411231D01*
X57078715Y-96332148D01*
X56770516Y-96238657D01*
X56530322Y-96215000D01*
X55369678Y-96215000D01*
X55129484Y-96238657D01*
X54821285Y-96332148D01*
X54537248Y-96483969D01*
X54288286Y-96688286D01*
X54083969Y-96937248D01*
X53932148Y-97221285D01*
X53838657Y-97529484D01*
X53807089Y-97850000D01*
X53838657Y-98170516D01*
X53932148Y-98478715D01*
X54058445Y-98715000D01*
X53669678Y-98715000D01*
X53429484Y-98738657D01*
X53121285Y-98832148D01*
X52837248Y-98983969D01*
X52588286Y-99188286D01*
X52383969Y-99437248D01*
X52232148Y-99721285D01*
X52138657Y-100029484D01*
X52107089Y-100350000D01*
X52138657Y-100670516D01*
X52232148Y-100978715D01*
X52383969Y-101262752D01*
X52588286Y-101511714D01*
X52837248Y-101716031D01*
X53121285Y-101867852D01*
X53429484Y-101961343D01*
X53669678Y-101985000D01*
X54830322Y-101985000D01*
X55070516Y-101961343D01*
X55378715Y-101867852D01*
X55662752Y-101716031D01*
X55911714Y-101511714D01*
X56102701Y-101278995D01*
X56102701Y-103347797D01*
X52724627Y-106725872D01*
X52611714Y-106588286D01*
X52362752Y-106383969D01*
X52078715Y-106232148D01*
X51770516Y-106138657D01*
X51530322Y-106115000D01*
X50369678Y-106115000D01*
X50129484Y-106138657D01*
X49821285Y-106232148D01*
X49537248Y-106383969D01*
X49288286Y-106588286D01*
X49083969Y-106837248D01*
X48932148Y-107121285D01*
X48838657Y-107429484D01*
X48807089Y-107750000D01*
X42660000Y-107750000D01*
X42660000Y-103377000D01*
X45815000Y-103377000D01*
X45815000Y-103877000D01*
X45871193Y-104193532D01*
X45988058Y-104493020D01*
X46161105Y-104763954D01*
X46383683Y-104995922D01*
X46647239Y-105180010D01*
X46941645Y-105309144D01*
X47069566Y-105340124D01*
X47323000Y-105220777D01*
X47323000Y-103377000D01*
X47577000Y-103377000D01*
X47577000Y-105220777D01*
X47830434Y-105340124D01*
X47958355Y-105309144D01*
X48252761Y-105180010D01*
X48516317Y-104995922D01*
X48738895Y-104763954D01*
X48911942Y-104493020D01*
X49028807Y-104193532D01*
X49085000Y-103877000D01*
X49085000Y-103377000D01*
X47577000Y-103377000D01*
X47323000Y-103377000D01*
X45815000Y-103377000D01*
X42660000Y-103377000D01*
X42660000Y-102623000D01*
X45815000Y-102623000D01*
X45815000Y-103123000D01*
X47323000Y-103123000D01*
X47323000Y-101279223D01*
X47577000Y-101279223D01*
X47577000Y-103123000D01*
X49085000Y-103123000D01*
X49085000Y-102623000D01*
X49028807Y-102306468D01*
X48911942Y-102006980D01*
X48738895Y-101736046D01*
X48516317Y-101504078D01*
X48252761Y-101319990D01*
X47958355Y-101190856D01*
X47830434Y-101159876D01*
X47577000Y-101279223D01*
X47323000Y-101279223D01*
X47069566Y-101159876D01*
X46941645Y-101190856D01*
X46647239Y-101319990D01*
X46383683Y-101504078D01*
X46161105Y-101736046D01*
X45988058Y-102006980D01*
X45871193Y-102306468D01*
X45815000Y-102623000D01*
X42660000Y-102623000D01*
X42660000Y-94000000D01*
X46898057Y-94000000D01*
X46925764Y-94281309D01*
X47007818Y-94551808D01*
X47141068Y-94801101D01*
X47320392Y-95019608D01*
X47538899Y-95198932D01*
X47788192Y-95332182D01*
X48058691Y-95414236D01*
X48269508Y-95435000D01*
X48410492Y-95435000D01*
X48621309Y-95414236D01*
X48891808Y-95332182D01*
X49141101Y-95198932D01*
X49359608Y-95019608D01*
X49538932Y-94801101D01*
X49672182Y-94551808D01*
X49754236Y-94281309D01*
X49781943Y-94000000D01*
X49754236Y-93718691D01*
X49672182Y-93448192D01*
X49538932Y-93198899D01*
X49359608Y-92980392D01*
X49141101Y-92801068D01*
X48891808Y-92667818D01*
X48621309Y-92585764D01*
X48410492Y-92565000D01*
X48269508Y-92565000D01*
X48058691Y-92585764D01*
X47788192Y-92667818D01*
X47538899Y-92801068D01*
X47320392Y-92980392D01*
X47141068Y-93198899D01*
X47007818Y-93448192D01*
X46925764Y-93718691D01*
X46898057Y-94000000D01*
X42660000Y-94000000D01*
X42660000Y-90116544D01*
X56645000Y-90116544D01*
X56645000Y-90383456D01*
X56697072Y-90645239D01*
X56799215Y-90891833D01*
X56947503Y-91113762D01*
X57136238Y-91302497D01*
X57358167Y-91450785D01*
X57604761Y-91552928D01*
X57866544Y-91605000D01*
X58133456Y-91605000D01*
X58395239Y-91552928D01*
X58641833Y-91450785D01*
X58863762Y-91302497D01*
X59052497Y-91113762D01*
X59200785Y-90891833D01*
X59302928Y-90645239D01*
X59355000Y-90383456D01*
X59355000Y-90116544D01*
X59302928Y-89854761D01*
X59200785Y-89608167D01*
X59052497Y-89386238D01*
X58863762Y-89197503D01*
X58760000Y-89128172D01*
X58760000Y-89019901D01*
X59374805Y-88405097D01*
X59487503Y-88573762D01*
X59676238Y-88762497D01*
X59898167Y-88910785D01*
X60144761Y-89012928D01*
X60406544Y-89065000D01*
X60673456Y-89065000D01*
X60935239Y-89012928D01*
X61181833Y-88910785D01*
X61403762Y-88762497D01*
X61592497Y-88573762D01*
X61740785Y-88351833D01*
X61842928Y-88105239D01*
X61895000Y-87843456D01*
X61895000Y-87576544D01*
X61842928Y-87314761D01*
X61740785Y-87068167D01*
X61592497Y-86846238D01*
X61581330Y-86835071D01*
X64764700Y-83651702D01*
X64764701Y-103342355D01*
X64741514Y-103263329D01*
X64486004Y-103142429D01*
X64211816Y-103073700D01*
X63929488Y-103059783D01*
X63649870Y-103101213D01*
X63383708Y-103196397D01*
X63258486Y-103263329D01*
X63186903Y-103507298D01*
X64000000Y-104320395D01*
X64014143Y-104306253D01*
X64193748Y-104485858D01*
X64179605Y-104500000D01*
X64992702Y-105313097D01*
X65236671Y-105241514D01*
X65311462Y-105083451D01*
X65738903Y-105510892D01*
X65669463Y-105595506D01*
X65610498Y-105705820D01*
X65574188Y-105825518D01*
X65561928Y-105950000D01*
X65561928Y-107550000D01*
X65574188Y-107674482D01*
X65610498Y-107794180D01*
X65669463Y-107904494D01*
X65748815Y-108001185D01*
X65845506Y-108080537D01*
X65955820Y-108139502D01*
X66075518Y-108175812D01*
X66200000Y-108188072D01*
X67800000Y-108188072D01*
X67924482Y-108175812D01*
X68044180Y-108139502D01*
X68154494Y-108080537D01*
X68251185Y-108001185D01*
X68330537Y-107904494D01*
X68389502Y-107794180D01*
X68425812Y-107674482D01*
X68427581Y-107656518D01*
X68520392Y-107769608D01*
X68738899Y-107948932D01*
X68988192Y-108082182D01*
X69258691Y-108164236D01*
X69469508Y-108185000D01*
X69610492Y-108185000D01*
X69821309Y-108164236D01*
X70091808Y-108082182D01*
X70341101Y-107948932D01*
X70559608Y-107769608D01*
X70738932Y-107551101D01*
X70810000Y-107418142D01*
X70881068Y-107551101D01*
X71060392Y-107769608D01*
X71278899Y-107948932D01*
X71528192Y-108082182D01*
X71798691Y-108164236D01*
X72009508Y-108185000D01*
X72150492Y-108185000D01*
X72361309Y-108164236D01*
X72631808Y-108082182D01*
X72881101Y-107948932D01*
X73099608Y-107769608D01*
X73278932Y-107551101D01*
X73350000Y-107418142D01*
X73421068Y-107551101D01*
X73600392Y-107769608D01*
X73818899Y-107948932D01*
X74068192Y-108082182D01*
X74338691Y-108164236D01*
X74549508Y-108185000D01*
X74690492Y-108185000D01*
X74901309Y-108164236D01*
X75171808Y-108082182D01*
X75421101Y-107948932D01*
X75639608Y-107769608D01*
X75818932Y-107551101D01*
X75952182Y-107301808D01*
X76034236Y-107031309D01*
X76061943Y-106750000D01*
X76034236Y-106468691D01*
X75952182Y-106198192D01*
X75818932Y-105948899D01*
X75639608Y-105730392D01*
X75421101Y-105551068D01*
X75171808Y-105417818D01*
X74901309Y-105335764D01*
X74690492Y-105315000D01*
X74549508Y-105315000D01*
X74338691Y-105335764D01*
X74068192Y-105417818D01*
X73818899Y-105551068D01*
X73600392Y-105730392D01*
X73421068Y-105948899D01*
X73350000Y-106081858D01*
X73278932Y-105948899D01*
X73099608Y-105730392D01*
X72881101Y-105551068D01*
X72631808Y-105417818D01*
X72361309Y-105335764D01*
X72150492Y-105315000D01*
X72009508Y-105315000D01*
X71798691Y-105335764D01*
X71528192Y-105417818D01*
X71278899Y-105551068D01*
X71060392Y-105730392D01*
X70881068Y-105948899D01*
X70810000Y-106081858D01*
X70738932Y-105948899D01*
X70559608Y-105730392D01*
X70531872Y-105707630D01*
X71176303Y-105063199D01*
X71205301Y-105039401D01*
X71300274Y-104923676D01*
X71370846Y-104791647D01*
X71414303Y-104648386D01*
X71425300Y-104536733D01*
X71428977Y-104499400D01*
X71425300Y-104462067D01*
X71425300Y-100400134D01*
X71596913Y-100481246D01*
X71730961Y-100521904D01*
X71953000Y-100399915D01*
X71953000Y-99257000D01*
X71933000Y-99257000D01*
X71933000Y-99003000D01*
X71953000Y-99003000D01*
X71953000Y-97860085D01*
X72207000Y-97860085D01*
X72207000Y-99003000D01*
X72227000Y-99003000D01*
X72227000Y-99257000D01*
X72207000Y-99257000D01*
X72207000Y-100399915D01*
X72429039Y-100521904D01*
X72563087Y-100481246D01*
X72817420Y-100361037D01*
X73043414Y-100193519D01*
X73232385Y-99985131D01*
X73347421Y-99793318D01*
X73421068Y-99931101D01*
X73600392Y-100149608D01*
X73818899Y-100328932D01*
X74068192Y-100462182D01*
X74338691Y-100544236D01*
X74549508Y-100565000D01*
X74690492Y-100565000D01*
X74901309Y-100544236D01*
X75171808Y-100462182D01*
X75421101Y-100328932D01*
X75639608Y-100149608D01*
X75818932Y-99931101D01*
X75952182Y-99681808D01*
X76034236Y-99411309D01*
X76061943Y-99130000D01*
X76034236Y-98848691D01*
X75952182Y-98578192D01*
X75818932Y-98328899D01*
X75639608Y-98110392D01*
X75421101Y-97931068D01*
X75171808Y-97797818D01*
X74901309Y-97715764D01*
X74690492Y-97695000D01*
X74549508Y-97695000D01*
X74338691Y-97715764D01*
X74068192Y-97797818D01*
X73818899Y-97931068D01*
X73600392Y-98110392D01*
X73421068Y-98328899D01*
X73347421Y-98466682D01*
X73232385Y-98274869D01*
X73043414Y-98066481D01*
X72817420Y-97898963D01*
X72563087Y-97778754D01*
X72429039Y-97738096D01*
X72207000Y-97860085D01*
X71953000Y-97860085D01*
X71730961Y-97738096D01*
X71596913Y-97778754D01*
X71425300Y-97859866D01*
X71425300Y-97489501D01*
X72886403Y-96028399D01*
X72915401Y-96004601D01*
X73010374Y-95888876D01*
X73080946Y-95756847D01*
X73124403Y-95613586D01*
X73135400Y-95501933D01*
X73139077Y-95464600D01*
X73135400Y-95427267D01*
X73135400Y-94796723D01*
X73263996Y-94857571D01*
X73538184Y-94926300D01*
X73820512Y-94940217D01*
X74100130Y-94898787D01*
X74366292Y-94803603D01*
X74491514Y-94736671D01*
X74563097Y-94492702D01*
X73750000Y-93679605D01*
X73735858Y-93693748D01*
X73556253Y-93514143D01*
X73570395Y-93500000D01*
X73929605Y-93500000D01*
X74742702Y-94313097D01*
X74986671Y-94241514D01*
X75107571Y-93986004D01*
X75176300Y-93711816D01*
X75190217Y-93429488D01*
X75148787Y-93149870D01*
X75053603Y-92883708D01*
X74986671Y-92758486D01*
X74742702Y-92686903D01*
X73929605Y-93500000D01*
X73570395Y-93500000D01*
X73556253Y-93485858D01*
X73735858Y-93306253D01*
X73750000Y-93320395D01*
X74563097Y-92507298D01*
X74491514Y-92263329D01*
X74236004Y-92142429D01*
X73961816Y-92073700D01*
X73679488Y-92059783D01*
X73399870Y-92101213D01*
X73135400Y-92195792D01*
X73135400Y-91309201D01*
X74255703Y-90188899D01*
X74284701Y-90165101D01*
X74379674Y-90049376D01*
X74450246Y-89917347D01*
X74493703Y-89774086D01*
X74504700Y-89662433D01*
X74504700Y-89662425D01*
X74508376Y-89625100D01*
X74504700Y-89587775D01*
X74504700Y-88886972D01*
X74520961Y-88891904D01*
X74743000Y-88769915D01*
X74743000Y-87627000D01*
X74997000Y-87627000D01*
X74997000Y-88769915D01*
X75219039Y-88891904D01*
X75353087Y-88851246D01*
X75607420Y-88731037D01*
X75833414Y-88563519D01*
X76022385Y-88355131D01*
X76167070Y-88113881D01*
X76261909Y-87849040D01*
X76140624Y-87627000D01*
X74997000Y-87627000D01*
X74743000Y-87627000D01*
X74723000Y-87627000D01*
X74723000Y-87373000D01*
X74743000Y-87373000D01*
X74743000Y-86230085D01*
X74997000Y-86230085D01*
X74997000Y-87373000D01*
X76140624Y-87373000D01*
X76261909Y-87150960D01*
X76167070Y-86886119D01*
X76022385Y-86644869D01*
X75833414Y-86436481D01*
X75607420Y-86268963D01*
X75353087Y-86148754D01*
X75219039Y-86108096D01*
X74997000Y-86230085D01*
X74743000Y-86230085D01*
X74520961Y-86108096D01*
X74504700Y-86113028D01*
X74504700Y-82445401D01*
X75381003Y-81569099D01*
X75410001Y-81545301D01*
X75504974Y-81429576D01*
X75575546Y-81297547D01*
X75619003Y-81154286D01*
X75623942Y-81104139D01*
X75671101Y-81078932D01*
X75889608Y-80899608D01*
X76068932Y-80681101D01*
X76202182Y-80431808D01*
X76284236Y-80161309D01*
X76311943Y-79880000D01*
X76284236Y-79598691D01*
X76202182Y-79328192D01*
X76068932Y-79078899D01*
X75889608Y-78860392D01*
X75671101Y-78681068D01*
X75421808Y-78547818D01*
X75151309Y-78465764D01*
X74940492Y-78445000D01*
X74799508Y-78445000D01*
X74588691Y-78465764D01*
X74318192Y-78547818D01*
X74068899Y-78681068D01*
X73850392Y-78860392D01*
X73671068Y-79078899D01*
X73600000Y-79211858D01*
X73528932Y-79078899D01*
X73349608Y-78860392D01*
X73131101Y-78681068D01*
X72881808Y-78547818D01*
X72611309Y-78465764D01*
X72400492Y-78445000D01*
X72259508Y-78445000D01*
X72048691Y-78465764D01*
X71778192Y-78547818D01*
X71528899Y-78681068D01*
X71310392Y-78860392D01*
X71131068Y-79078899D01*
X71060000Y-79211858D01*
X70988932Y-79078899D01*
X70809608Y-78860392D01*
X70591101Y-78681068D01*
X70341808Y-78547818D01*
X70071309Y-78465764D01*
X69860492Y-78445000D01*
X69719508Y-78445000D01*
X69508691Y-78465764D01*
X69238192Y-78547818D01*
X68988899Y-78681068D01*
X68897214Y-78756312D01*
X68384603Y-78243702D01*
X68360801Y-78214699D01*
X68245076Y-78119726D01*
X68113047Y-78049154D01*
X67969786Y-78005697D01*
X67858133Y-77994700D01*
X67858122Y-77994700D01*
X67820800Y-77991024D01*
X67783478Y-77994700D01*
X66816323Y-77994700D01*
X66779000Y-77991024D01*
X66741677Y-77994700D01*
X66741667Y-77994700D01*
X66630014Y-78005697D01*
X66486753Y-78049154D01*
X66354724Y-78119726D01*
X66238999Y-78214699D01*
X66215201Y-78243697D01*
X65420936Y-79037962D01*
X65379853Y-78831426D01*
X65271680Y-78570273D01*
X65114637Y-78335241D01*
X64914759Y-78135363D01*
X64679727Y-77978320D01*
X64418574Y-77870147D01*
X64141335Y-77815000D01*
X63858665Y-77815000D01*
X63581426Y-77870147D01*
X63320273Y-77978320D01*
X63085241Y-78135363D01*
X62885363Y-78335241D01*
X62728320Y-78570273D01*
X62620147Y-78831426D01*
X62565000Y-79108665D01*
X62565000Y-79391335D01*
X62620147Y-79668574D01*
X62728320Y-79929727D01*
X62885363Y-80164759D01*
X63085241Y-80364637D01*
X63285869Y-80498692D01*
X63258486Y-80513329D01*
X63186903Y-80757298D01*
X64000000Y-81570395D01*
X64014143Y-81556253D01*
X64193748Y-81735858D01*
X64179605Y-81750000D01*
X64193748Y-81764143D01*
X64014143Y-81943748D01*
X64000000Y-81929605D01*
X63186903Y-82742702D01*
X63258486Y-82986671D01*
X63273176Y-82993622D01*
X60510199Y-85756600D01*
X60225822Y-85756600D01*
X60188499Y-85752924D01*
X60151176Y-85756600D01*
X60151167Y-85756600D01*
X60039514Y-85767597D01*
X59896253Y-85811054D01*
X59764224Y-85881626D01*
X59764222Y-85881627D01*
X59764223Y-85881627D01*
X59677496Y-85952801D01*
X59677492Y-85952805D01*
X59648499Y-85976599D01*
X59624705Y-86005592D01*
X57488998Y-88141301D01*
X57460000Y-88165099D01*
X57436202Y-88194097D01*
X57436201Y-88194098D01*
X57365026Y-88280824D01*
X57294454Y-88412854D01*
X57250998Y-88556115D01*
X57236324Y-88705100D01*
X57240001Y-88742432D01*
X57240001Y-89128171D01*
X57136238Y-89197503D01*
X56947503Y-89386238D01*
X56799215Y-89608167D01*
X56697072Y-89854761D01*
X56645000Y-90116544D01*
X42660000Y-90116544D01*
X42660000Y-84700000D01*
X47561928Y-84700000D01*
X47561928Y-86300000D01*
X47574188Y-86424482D01*
X47610498Y-86544180D01*
X47669463Y-86654494D01*
X47748815Y-86751185D01*
X47845506Y-86830537D01*
X47955820Y-86889502D01*
X48051943Y-86918661D01*
X47885363Y-87085241D01*
X47728320Y-87320273D01*
X47620147Y-87581426D01*
X47565000Y-87858665D01*
X47565000Y-88141335D01*
X47620147Y-88418574D01*
X47728320Y-88679727D01*
X47885363Y-88914759D01*
X48085241Y-89114637D01*
X48320273Y-89271680D01*
X48581426Y-89379853D01*
X48858665Y-89435000D01*
X49141335Y-89435000D01*
X49418574Y-89379853D01*
X49679727Y-89271680D01*
X49914759Y-89114637D01*
X50114637Y-88914759D01*
X50271680Y-88679727D01*
X50379853Y-88418574D01*
X50435000Y-88141335D01*
X50435000Y-87858665D01*
X50379853Y-87581426D01*
X50271680Y-87320273D01*
X50114637Y-87085241D01*
X49948057Y-86918661D01*
X50044180Y-86889502D01*
X50154494Y-86830537D01*
X50251185Y-86751185D01*
X50330537Y-86654494D01*
X50389502Y-86544180D01*
X50425812Y-86424482D01*
X50438072Y-86300000D01*
X50438072Y-86105560D01*
X57244045Y-86105560D01*
X57305932Y-86341368D01*
X57547790Y-86454266D01*
X57807027Y-86517811D01*
X58073680Y-86529561D01*
X58337501Y-86489063D01*
X58588353Y-86397875D01*
X58694068Y-86341368D01*
X58755955Y-86105560D01*
X58000000Y-85349605D01*
X57244045Y-86105560D01*
X50438072Y-86105560D01*
X50438072Y-85243680D01*
X56640439Y-85243680D01*
X56680937Y-85507501D01*
X56772125Y-85758353D01*
X56828632Y-85864068D01*
X57064440Y-85925955D01*
X57820395Y-85170000D01*
X58179605Y-85170000D01*
X58935560Y-85925955D01*
X59171368Y-85864068D01*
X59284266Y-85622210D01*
X59347811Y-85362973D01*
X59359561Y-85096320D01*
X59319063Y-84832499D01*
X59227875Y-84581647D01*
X59171368Y-84475932D01*
X58935560Y-84414045D01*
X58179605Y-85170000D01*
X57820395Y-85170000D01*
X57064440Y-84414045D01*
X56828632Y-84475932D01*
X56715734Y-84717790D01*
X56652189Y-84977027D01*
X56640439Y-85243680D01*
X50438072Y-85243680D01*
X50438072Y-84700000D01*
X50425812Y-84575518D01*
X50389502Y-84455820D01*
X50330537Y-84345506D01*
X50251185Y-84248815D01*
X50233669Y-84234440D01*
X57244045Y-84234440D01*
X58000000Y-84990395D01*
X58755955Y-84234440D01*
X58694068Y-83998632D01*
X58452210Y-83885734D01*
X58192973Y-83822189D01*
X57926320Y-83810439D01*
X57662499Y-83850937D01*
X57411647Y-83942125D01*
X57305932Y-83998632D01*
X57244045Y-84234440D01*
X50233669Y-84234440D01*
X50154494Y-84169463D01*
X50044180Y-84110498D01*
X49924482Y-84074188D01*
X49800000Y-84061928D01*
X48200000Y-84061928D01*
X48075518Y-84074188D01*
X47955820Y-84110498D01*
X47845506Y-84169463D01*
X47748815Y-84248815D01*
X47669463Y-84345506D01*
X47610498Y-84455820D01*
X47574188Y-84575518D01*
X47561928Y-84700000D01*
X42660000Y-84700000D01*
X42660000Y-81820512D01*
X62559783Y-81820512D01*
X62601213Y-82100130D01*
X62696397Y-82366292D01*
X62763329Y-82491514D01*
X63007298Y-82563097D01*
X63820395Y-81750000D01*
X63007298Y-80936903D01*
X62763329Y-81008486D01*
X62642429Y-81263996D01*
X62573700Y-81538184D01*
X62559783Y-81820512D01*
X42660000Y-81820512D01*
X42660000Y-77127000D01*
X74427598Y-77127000D01*
X76835100Y-79534503D01*
M02*
